<svg version="1.0" xmlns="http://www.w3.org/2000/svg" width="1424" height="409.333" viewBox="0 0 1068 307"><path d="M43.7 18.7l-22.9.3 5.9 4c7.2 4.8 9 7.7 23.1 35.5C56 70.6 64.7 87.1 69.2 95.1c4.6 8.1 13 23.7 18.8 34.8 5.8 11 10.8 20.1 11.1 20.1.3 0 2.2-3.9 4.1-8.8 8.6-20.9 20-47.7 25.3-59.2 3.1-6.9 6.8-15.4 8.2-19 1.3-3.6 5.5-12.1 9.3-19 5.4-9.8 8.4-14 13.4-18.9 3.7-3.4 6.6-6.5 6.6-6.7 0-.8-35.5-.4-36.8.5-1 .6-.6 1.3 1.5 2.6 6.1 4 8.2 10.1 6 17.3-5 16-31.6 78.2-33.4 78.2-1.8 0-5.2-6.2-23.7-43.1C59.1 33.1 58.5 30.4 68 23.3c2.8-2.1 5-4.1 5-4.5 0-.4-1.5-.7-3.2-.6-1.8.2-13.6.4-26.1.5zM980.2 38.2c-2.2 5.1-6.8 15.6-10.2 23.3-3.5 7.7-8.4 19.2-11 25.5-2.6 6.3-6.2 14.6-8 18.5-1.7 3.8-4.5 10.3-6.1 14.3-6.9 17.2-13.4 26.6-19.9 28.7-1.2.4-1.9 1-1.5 1.3.8.9 32.5.9 32.5.1 0-.3-1.8-1.4-3.9-2.4-2.5-1.1-4.4-2.8-5.2-4.6-1.3-3.2.3-8.5 8.5-27.9l3.5-8.5 21.5-.3c25-.3 21.9-1.8 28.4 13.8 8.6 20.6 8.8 23.6 2 27.1-3.1 1.6-3.8 2.3-2.7 3 .8.5 10 .9 20.4.9 18.8 0 19 0 16-1.8-7.2-4.4-10.4-9.8-23-38.7-5.2-11.9-27.4-61.7-33.4-74.8-1.6-3.7-3.2-6.7-3.4-6.7-.3 0-2.3 4.2-4.5 9.2zm10.1 38.7c4.8 10.9 8.7 20.4 8.7 21 0 .8-5.2 1.1-18.2.9-17.3-.3-18.3-.4-18-2.2.8-4.7 16.8-39.6 18.1-39.6.3 0 4.5 9 9.4 19.9zM311.8 34.6c-.3.3-23 .6-50.4.7l-49.9.2-.7 6.9c-.4 3.8-.9 8-1.3 9.3-.7 3.1.1 2.9 4.6-1.1 5.7-5.2 14.3-7.5 29-7.7 11-.2 12.3-.1 13.6 1.7 1.3 1.6 1.4 7.8 1 43.1-.3 22.7-.2 41.3.2 41.3.5 0 2.3-1.1 4.2-2.5 1.9-1.4 5-3.2 7-4.1l3.6-1.6.6-15.6c.4-8.7.7-25.9.7-38.4s.4-22.9.8-23.2c.5-.3 7.3-.6 15.3-.7 15.9-.3 16.8-.1 23.3 6l3.9 3.6-.7-7.3c-.8-9-2.6-12.9-4.8-10.6zM657 37.5c0 .3 1.7 1.3 3.8 2.4 8.6 4.4 9.5 9.3 8.9 46l-.4 28.9 4.1 1.1c2.3.6 5.9 2.2 7.9 3.5l3.7 2.5v-11.7c0-6.4.3-13.4.6-15.5l.7-3.7h12.6c14.9 0 16.8.8 22.2 9.1l3.4 5.4.6-18.5c.5-16.9.3-21.3-.7-18.5-.2.5-1.9 3.4-3.7 6.4-4.9 8.1-7.7 9.3-21.9 8.9-6.4-.2-12-.7-12.5-1.1-1.4-1.5-.6-33.9.9-35.4 3-3 26.2-3.9 35.3-1.4 6.4 1.7 9.9 4.5 14.3 11 2.2 3.3 4.2 6.6 4.5 7.3.2.7.8 1 1.2.6.4-.4.4-6.6 0-13.7l-.7-13.1h-11.7c-6.4 0-25.4-.2-42.3-.5-17-.2-30.8-.2-30.8 0zM160 38.7c0 .1 2.5 1.3 5.5 2.7 4.2 1.9 5.9 3.3 7 5.8 1 2.7 1.4 12.5 1.7 46.3.3 47.5.2 48.2-5.8 53.4-1.9 1.7-3.4 3.3-3.4 3.6 0 .3 8.6.5 19 .5 10.5 0 19-.3 19-.8 0-.4-2.3-1.5-5.1-2.5-8.5-3.1-8.3-1.8-8.1-53.7.2-48.9.1-48.4 6.3-52.6 1.6-1 2.9-2.3 2.9-2.7 0-.4-8.8-.7-19.5-.5-10.7.1-19.5.3-19.5.5zM329.4 41c3 1.5 6 3.9 7.4 5.9 2.2 3.4 2.2 3.7 2.2 39.7 0 33.6.4 38.8 2.5 35.4.3-.6 2.2-1 4.1-1 2.8 0 3.4-.4 3.4-2.1 0-1.2 1.1-4.7 2.5-7.8 2.3-5.4 2.4-6.4 2.7-33.6.4-30.4.7-32.2 6.2-35.9 5.2-3.4 3.2-3.8-16.8-3.4l-19.4.3 5.2 2.5zM373.4 39.3c8.9 5.6 9.9 6.9 20.7 27.7 5.8 11.3 14.9 28.3 20.2 37.9 8.7 15.8 9.7 17.1 10.2 14.5 1.3-5.6 2.8-8.6 5.4-10.2 1.4-.9 2.7-1.7 2.9-1.8.2-.1-5.3-11.5-12.1-25.2-16.5-32.8-16.9-35.9-6.1-40.9 3-1.3 5.4-2.6 5.4-2.9 0-.2-10.9-.4-24.2-.3-19.2 0-23.9.3-22.4 1.2zM466.9 41.8c5.4 5.1 6 9 2.7 17.2-1.4 3.5-2.6 6.7-2.6 7.2s-3.7 9.3-8.1 19.6c-4.5 10.3-8.8 20.2-9.5 22-1.5 3.4-1.5 3.5 3.1 4.5 1.8.3 2.9-1.5 8.4-13.7 3.5-7.8 8.1-18.2 10.1-23.2 6.1-14.5 13.3-26.3 19.7-32.2l5.6-5.2h-33.4l4 3.8zM504.3 41c9.6 4.7 9.1 2.3 9.7 49.3l.5 41.2 3.4 4.2c1.9 2.4 3.7 4.3 4.1 4.3.3 0 2-2 3.7-4.4l3.2-4.5.3-40.8c.3-36.8.5-41.1 2.1-44 .9-1.8 2.9-4 4.2-4.9 1.4-.9 2.5-2.1 2.5-2.6 0-.6-7.4-.8-19.4-.6l-19.3.3 5 2.5zM758.1 40c5.8 3.1 8.5 7.1 9.8 14.3 2.1 12.4 1.1 76.5-1.3 82.7-.5 1.1.4 2 2.6 2.9 1.8.8 3.6 1.6 4 1.8.4.3.4-1.1.1-3-.4-2.8-.1-3.7 1.8-5.1 1.3-.9 4.1-1.9 6.1-2.2l3.7-.6.3-41.4c.2-31.3.6-41.6 1.5-42.5.9-.9 5.3-1.3 15-1.2 11.9.1 14.8.5 21.1 2.6 19 6.5 27.2 20.5 27.4 46.9l.1 8.8h3.1c3.3 0 9.6 3.3 9.6 5 0 .5.5 1 1 1 .6 0 1-2.4 1-5.3.1-2.8.7-6.3 1.5-7.7 3.2-5.5.9-19.5-4.8-30.5C857.3 58.1 848 49 840 45.3c-13.1-6.2-16.3-6.6-52.5-7l-33-.3 3.6 2zM877 40.7c8.3 3.6 9 5.7 9 26v17.1l3.4 1.2c3.2 1 4.7 3 7.4 10.2.8 2 1.6 2.5 3.1 2.1 2-.5 2.1-1.2 2.1-24 0-25.6.2-26.8 6-31.6 1.6-1.4 3-2.9 3-3.2 0-.4-8.8-.5-19.5-.3l-19.4.3 4.9 2.2zM561.6 39.9l-12.9.6 3.9 2.2c5.9 3.2 8.1 6.2 9.3 12.3 1.4 7.2 2.1 56 1 71.7-.8 12.6-1.4 14.7-5.5 19.6-1.3 1.6-2.4 3.3-2.4 3.9 0 1.4 14.3.4 20.4-1.3 5.7-1.7 5.7-1.7 4.3-18.4-1.1-13.8-1.5-16.6-2.2-19.8-.6-2-.1-3.6 1.5-6l2.2-3.2h38.3l7.6-3.7c10.2-5 15.1-10.4 17.7-19.4 3.2-11.1 1.1-22-5.5-30-2.5-3-9.1-6.2-16.5-7.9-6.6-1.4-34.5-1.7-61.2-.6zm54.2 9.8c9.7 5 15 16.3 12.2 26.3-1.5 5.7-9.7 14-15.5 15.7-6.1 1.8-31 2.9-32 1.4-1-1.8-.8-43.2.3-44.3 1.7-1.7 10.6-2.7 20.1-2.3 8 .3 10.3.8 14.9 3.2z"/><path d="M886 87.4c0 .8-1.6 1.5-4.1 1.9-4.5.6-11.9 5.2-11.9 7.4 0 .7-.7 1.6-1.5 1.9-.8.3-1.7 1.5-2 2.5-.9 2.8 2.1 11.2 5 13.9 3.1 2.9 3.3 1.5.3-1.8-1.9-1.9-2.3-3.5-2.3-8.3 0-5.4.3-6.1 3.5-9.2 3.8-3.6 5.9-4.7 10.3-5.3l2.8-.4-.3 10c-.2 7.1-.7 10-1.5 10-1.7 0-2.8-4.9-1.4-6.3 1.6-1.6 1.3-3.1-.4-1.7-1.2 1-1.6.9-2-.4-.3-.9-.7-2.3-1-3.2-.3-.9-.8-1.4-1.1-1.2-.3.3.2 2.3 1 4.3.9 2.1 1.6 4.7 1.6 5.8 0 1.1.8 2.6 1.8 3.3 1.4 1.1 1.5 1.5.3 2.3-1.1.7-.9 1.1.8 2.1 3.3 1.7 2 3.4-3 4-3 .3-4.4 1-4.4 2 0 .8-.5 2.4-1.1 3.5-.6 1.1-1.4 3.2-1.8 4.6-.3 1.5-1.2 2.9-2.1 3.2-2 .8-3-5.2-1.7-10.4l1-4.1-3.8.6c-3.4.5-3.8.4-3.3-1.3.6-2.2-1.7-6.9-4.6-9.6-2.8-2.4-8.9-2.6-10.2-.2-.8 1.3-1.9 1.5-5.2 1.1-2.6-.3-5.8 0-8.6 1-5.8 2.1-9.3 2-12.4-.4-2.7-2.2-5.2-2.6-6.2-1-.3.5.4 1 1.5 1 1.2 0 3.5 1.1 5.2 2.5 3.4 2.9 5.9 3.1 11.8 1 5.8-2 9.4-2 8.6.1-.5 1.4.1 5 2.1 11.7.4 1.6.2 1.7-1.4.9-1-.6-3.2-2.4-5-4-2.7-2.6-4.1-3-11.6-3.6-10.9-.9-13.7-.2-13.7 3.2 0 1.4-.7 3.3-1.5 4.2-1.2 1.4-1.3 2.6-.5 7 1.3 6.9 1.3 7.5-.2 6.3-3-2.3-9.9-4.3-11.6-3.4-1.1.6-2.5.5-3.7-.2-2.7-1.5-15.3-1.9-18.8-.5-2.5 1-2.8 1.6-2.4 4.2.2 1.7.7 3.8 1.1 4.6.8 2-3.9 2.6-5.1.6-3.2-5.2-16.3-2.4-16.3 3.6 0 1.7-.2 1.7-2.2.4-6.1-3.8-14.1-2.3-13.5 2.6.2 2-.2 2.1-4.9 1.9-3.7-.2-5.6.3-7.4 1.7-2.2 1.8-2.3 2.3-1.3 5.5l1.1 3.5-4.7.5c-2.5.2-6.4 1.1-8.5 1.9-3.5 1.4-3.7 1.6-1.8 2.2 2.6.9 4.4 3.9 3.6 6-.5 1.2 0 1.6 2.1 1.6 1.4 0 3.5.5 4.5 1 1.6.9 1.7 1.4.8 4.1-1.6 4.6-4.9 5.7-8.7 3-2.3-1.7-2.9-1.8-2.5-.7.7 1.9-.7 2.1-2.4.4-1.6-1.6-1.5-5 .1-6.7 1-1.1.8-1.1-1-.2-3 1.5-2.9 3.2.3 7 2.1 2.5 3.3 3.1 6.6 3.1 2.1 0 4.9-.5 6-1.1 2.8-1.5 5.8 1.2 3.8 3.5-.7.9-.9 1.6-.4 1.6s-.2.7-1.4 1.6c-3.9 2.7-11.8-.1-9.8-3.5.3-.4-2.3-.7-5.7-.7-4.4 0-6.5.4-7.4 1.5-.8 1-1.2 1.1-1.3.4 0-.6.4-1.4 1-1.8.6-.4.6-1.5-.1-3.2-.5-1.5-.8-3.2-.5-4 .3-.7.1-1.3-.3-1.3-.5 0-1.1.5-1.3 1.2-.3.8-1.5.2-3.3-1.6l-2.8-2.8.6 3.7.6 3.7-5.2-.7c-2.9-.4-10.6-1-17.2-1.3l-12-.7-.3-5.2c-.4-6.3 1.1-12.1 3.9-15.7 2.6-3.4 10.7-7.1 17.3-8.1 8-1.1 9.4-2 10.6-6.6.9-3.1.9-4.9.1-6.6-.6-1.3-1.1-3.1-1.1-3.9 0-2.3-3.6-9.8-5.7-11.6-3.8-3.4-11.1-5.9-15-5.2-3.5.7-3.6.8-1.5 1.7 1.2.6 2.2 1.7 2.2 2.5 0 1.3-.3 1.3-1.8-.1-2-1.8-5.2-2.3-5.2-.8 0 .5.7 1.2 1.6 1.5.8.3 1.2 1 .9 1.6-.3.5.3 1 1.4 1 2.5 0 3.7 1.8 2.2 3.3-.7.7-1.6.6-2.9-.6-1.8-1.6-2-1.6-3.2-.1-1.1 1.2-1.1 2.4-.2 6 1.7 6.4 1.5 6.9-1.4 3.5-5-6-14.9-6.2-19.4-.3l-2 2.7.6-2.8c.3-1.5.2-2.7-.4-2.7-1.2 0-2.3 10.3-1.2 11 1.3.8 7.1 12.2 6.6 12.8-.3.2-1.9-.1-3.6-.8-3-1.3-6-5.4-6-8.4 0-1.1-.8-1.3-3.4-.9-2.8.4-3.6.1-4.5-1.6-1-1.8-.9-2.2 1.4-3.1 2.5-1 2.6-1 .9-4.2-1-1.8-1.8-2.9-2-2.3-.1.5-.5 2.2-.8 3.7-.9 3.8-2.6 3.5-2.7-.5-.2-3-.2-3-.6-.5-.5 3.3-.5 3.3-4.3 1.3-1.7-.9-3-1.1-3-.6 0 1.1 5.6 5.5 8.1 6.4.9.3 3 3 4.7 5.9 2.4 4.1 4.2 5.9 7.9 7.7l4.8 2.3-2.8 2.4c-3.6 3.1-4.5 3-3.9-.1.2-1.4.2-2.5-.1-2.5-.4 0-1.7 1.1-3.1 2.5-2.7 2.7-5.5 3.2-7.4 1.3-1.7-1.7-1.5-2.8.6-2.2.9.4.2-.4-1.6-1.5-1.9-1.2-4.8-2.4-6.5-2.7l-3.2-.5 2.8 1.6c2.3 1.4 2.7 2.1 2.2 4.4-.5 2.3-.3 2.7 1.7 2.6 3.2 0 3.9 1.9.8 2.3-1.3.2-3.3 1-4.4 1.8-1.3.9-5 1.5-9.6 1.5-7.4.2-7.4.2-2 .8 3 .3 6 .9 6.6 1.3.6.4 2.7-.4 4.7-1.7 2-1.4 5-2.5 6.7-2.5 1.6 0 3.9-.6 5-1.3 2.4-1.4 4 .2 4 4.3 0 3 1.7 1.5 2.2-2 .2-1.9 1.9-3.4 6.8-6.2 10.3-5.8 10.4-5.8 10.8 4 .4 12.1-.9 13-12.5 9.1-6.1-2.1-6.4-2.1-8.3-.4-1.1 1-2.4 3.4-3 5.4-1.8 6.5-1.9 6.4 7.3 5.6 4.5-.4 9.1-.8 10.2-.9 1.1 0 3.5-1.2 5.3-2.5l3.2-2.5v-12.7c0-12.3.1-12.7 2.3-13.3 3.6-1 3.8-.7 2.1 2.6-.9 1.8-1.9 5.9-2.1 9.3-.5 6.1 1 22.1 2.7 28.5l1 3.6 7.1-.4c4-.3 12.9.1 19.8.8 13 1.3 24.5 1.5 26.3.4.6-.4 0-1.3-1.3-2.1-2.4-1.3-2.4-1.3.6-.7 1.7.4 4.3 1.6 6 2.8 1.9 1.3 4.4 2 7 1.9 2.2 0 4.9.6 6 1.3 1.1.8 2.7 1.4 3.6 1.4.9 0 2.4.9 3.4 2 1.1 1.2 3.1 2 5.1 2 1.8 0 3.6.4 3.9 1 .4.6-.9 1-3.1 1-7.3 0-13.6 5.6-16.9 14.9-1.3 3.8-1.3 4.2 0 3.1 1.2-1 1.5-1 1.5 0 0 .7-1.8 3-4 5.2-6.5 6.1-14.2 4.7-13.5-2.5.1-1.8 0-2.4-.2-1.4-.7 2.7-2.3.9-2.3-2.6 0-3.7 2.6-5.9 5.9-5 1.7.4 2 .2 1.5-1.1-.4-1-.1-1.6.9-1.6 1.9 0 4.7 2.7 4.7 4.4 0 1.3-2.9 5.6-3 4.3 0-.4-1-.3-2.2.4-1.9 1-1.9 1.2-.5 2.1 3.8 2.1 7.7-3.2 6.3-8.7-.9-3.6-4.1-5-8.6-3.6-2.1.6-4.1 1.8-4.4 2.6-.3.8-1.5 1.5-2.6 1.5-2.7 0-7.7 2.6-8.2 4.2-.4 1-1 1-3.1-.1-3.2-1.7-5-.5-2.3 1.5 2.6 1.8 5.2 1.8 8.6-.2 3.7-2.2 5.6-1.3 6.4 2.9.4 1.9 1.9 4.7 3.4 6.2 2.2 2.3 3.3 2.6 6.5 2.2 5.2-.7 8.4-3.8 12.2-12.2 2.5-5.4 4.2-7.7 7.4-9.8 4.5-3 11.3-3.9 9.1-1.2-1.6 2-.4 8.9 2.1 11.1 1.4 1.3 1.6 2 .8 3.1-.6.7-1.8 1.3-2.6 1.3-2.6 0-8.8 3.8-14.2 8.9l-5.4 5 .6 8.8c.8 11.3 5.5 30.2 8 31.7 1.4.9 2 .7 2.8-.6.6-1 1.5-1.8 2.2-1.8 2.8 0 13.6-7.3 14.1-9.6.4-1.3 1.3-2.4 2-2.4.8 0 1.7-1.3 2.1-2.9.3-1.6 1.2-3.5 1.9-4.1 1.1-.8 1.5-.3 2 2.3.3 1.8.3 4.8 0 6.5-.5 2.4-.2 3.8 1.1 5.2 2.3 2.5 6.6 2.6 16.9.1 6.2-1.5 8.4-2.5 9.9-4.5 1-1.4 2.5-2.6 3.3-2.6 3.2 0 4.1-8.4 1.9-18.7-.8-3.8-.3-4 3.2-1.3 1.4 1.1 3.6 2 4.9 2 1.3 0 4 1.1 6.1 2.6 2.2 1.5 4.6 2.3 5.8 2 1.1-.3 2.9.2 3.9 1 2.6 1.8 6 1.8 7.6-.1.8-.9 2.1-1.3 3.5-.9 1.3.3 3.3 0 4.6-.6 1.9-1.1 2.5-1 3.9.7 1.3 1.7 2.6 1.9 9.5 1.7 4.4-.2 10-.6 12.5-.8 2.5-.3 4.8-.5 5.2-.5.4-.1 1.6-1.8 2.7-3.9 1-2 3.7-5.2 6-7.1 2.5-2.1 4.1-4.3 4.1-5.6 0-1.2.9-3 2-4 1.5-1.4 1.9-2.6 1.5-4.6-.4-1.8 0-3.7 1-5.2 1.5-2.3 1.5-2.8-.1-6.4-1-2.1-1.6-5.5-1.5-7.6.2-2.5-.3-4.5-1.4-5.7-1.5-1.7-1.5-2.1-.1-4.8.9-1.7 2.1-3.4 2.6-3.7.6-.4 3.5 1.6 6.5 4.4 2.9 2.7 7.7 6.2 10.7 7.7 5.3 2.6 5.4 2.7 6.5 8.7 1.5 7.5 1.2 7.7-8 7.7-11.9 0-15.8 4.2-10.1 10.9 2.2 2.7 3.2 3.1 7.5 3.1 4.6 0 5.1.3 6.7 3.2 2.6 4.9 4.9 6.9 6.9 6 1.6-.6 1.5-.7-.4-1-2.6-.4-4-3.2-1.5-3.3 1.5 0 1.5-.1-.1-.8-1-.3-2.3-1.8-3-3.1-1-2-2.4-2.7-7.3-3.5-10.7-1.8-12.5-5.5-3.8-8 6.3-1.8 10.4-.9 13.5 2.9 1.4 1.7 2 1.8 6.7.6 4.2-.9 5.6-1 6.7 0 .8.7 1.5 1.7 1.5 2.2 0 1.5-3.1 2.2-4 .8-.4-.6-1-.8-1.3-.3-1.2 1.8 1 3.6 3.7 2.9 2-.5 2.6-1.3 2.6-3.5 0-1.6-.7-3.4-1.5-4.1-1.7-1.4-12.6-1-13.7.5-.4.5-.8 0-.8-1.3 0-1.6-.6-2.2-2.2-2.3-2.2-.1-2.2-.1.2-.9 3.8-1.2 5.2-1.2 4.4.2-.4.7.2.4 1.4-.6 2.5-2.2 2.7-4.1.7-7.6-2.1-3.9-.5-4.8 7.1-3.8 8.1.9 11.9 3 16.1 8.8 5.8 8.1 9.3 11.8 12.7 13.4 4.1 1.9 9 2.2 8.2.3-.2-.6-1.4-4.2-2.5-7.8-2.3-7.4-5.8-11.1-14.7-16.2-2.7-1.5-7.1-4.1-9.7-5.8-3.6-2.4-6.6-3.3-12-4-8.7-1-13.4-2.5-14.7-4.8-.8-1.6 0-1.9 7.1-3 4.4-.7 9.9-.9 12.2-.6 3.1.5 5.7.1 9.7-1.4 7.7-2.9 11.4-2.6 19.9 1.4 4 1.9 7.5 3.5 7.7 3.5.2 0 .4-1.2.4-2.7 0-3.7-8.4-11.5-19-17.7-4.7-2.7-10.7-6.7-13.3-8.9-4.5-3.7-5.2-3.9-10-3.5-3.1.3-8.8 2.1-14.2 4.5-7.8 3.5-20.1 7.1-20.9 6.1-.2-.1-.8-1.2-1.5-2.3-1.1-1.9-1.2-1.9-.6.2.4 1.3.2 2.3-.4 2.3-1.6 0-2.3-1.8-2.6-7-.2-2.7-.8-5.7-1.4-6.7-1.7-3.2-5.9-23.2-5.4-25.5.3-1.3 2.1-4.3 3.9-6.7 2-2.6 3.4-5.6 3.4-7.2 0-3 1.3-4.4 3-3.4.8.5.8 1.1 0 2-.7.9-.6 2.2.4 4.6 2.2 5.2 4.5 6.8 10.1 6.9 2.8.1 5.9.1 7 .2 3.3.1 14-5.5 14.3-7.6.8-4.2-6.1-11.6-8.6-9.1-.3.3.1.5.9.5 2.1 0 7 6.6 6.3 8.5-.5 1.2-7.5 5.5-9.1 5.5-.2 0-.3-3.3-.3-7.4 0-6.5.3-7.6 2.3-9l2.2-1.7-2.2.6c-2.2.6-2.3.3-2.3-4.2 0-4.3.3-5 3.1-6.6 1.8-1 2.9-2 2.6-2.3-.3-.3-1.7.2-3.1 1.1-2.6 1.7-2.6 1.7-2.7-.9-.1-1.4-.2-3.2-.3-3.9-.1-.8 1.1-1.1 3.4-.9 2.6.3 3.2.1 2.4-.8-.6-.6-3.5-1.2-6.3-1.3-4.6-.2-5.2-.5-5.7-2.7-1.1-5-1.5-5.9-3.5-8.4-2.2-2.8-5.9-3.5-5.9-1.2zm-38 25c0 .3-.4.8-1 1.1-.5.3-1 .1-1-.4 0-.6.5-1.1 1-1.1.6 0 1 .2 1 .4zm38.6 2.3c-1 1-1.9-.5-1-1.8.6-1.1.8-1.1 1.2 0 .2.7.1 1.5-.2 1.8zm-39.6 2.9c0 .8-.4 1.2-1 .9-.5-.3-1-1-1-1.6 0-.5.5-.9 1-.9.6 0 1 .7 1 1.6zm-15.3 2.3c3.2.1 10.3 5.4 10.3 7.7 0 .5-1.3 2.3-3 3.9-1.8 1.7-3 2.3-3 1.5 0-.7-.3-1.1-.6-.8-.3.4-.4.8-.2 1.1.5.8-3.4 4.7-4.9 4.7-.7 0-1.2-.3-1.2-.8.4-2.4-.4-4.4-3.1-7.2-1.7-1.8-3.3-3.1-3.6-2.8-.2.3.9 1.8 2.5 3.4 1.8 1.8 2.9 3.7 2.7 4.9-.2 1.1.1 2.5.6 3.2 1.2 1.5-1.5 3-7 3.9-3.7.6-4.1.4-5.6-2.3-2.5-4.9-3.2-12.9-1.2-14.8.9-.9 1.6-2.5 1.6-3.5 0-2.4 1.5-2.9 7.5-2.5 2.8.2 6.4.3 8.2.4zm36.3 7c0 5.9.3 7.1 1.9 7.6 1.7.5 1.7.9.5 4.3-1.7 4.8-1.7 7.2.2 15.7.8 3.8 1.7 8.2 2 9.7.6 2.3.4 2.6-1.5 2.1-2.7-.7-2.8 1.3-.1 2.9 1.1.7 2 1.9 2 2.7 0 .8.6 2.2 1.4 3 1.9 2.3 3.7 8.1 2.5 8.1-.6 0-.6.7.1 1.9.7 1.3.7 2.2 0 2.6-.5.3-1 1.4-1 2.4 0 2.5-6.5 4.4-11 3.1-1.8-.5-3.6-.7-4.1-.4-.4.2-2 .2-3.4-.2-2-.5-2.5-1.2-2.5-3.5 0-2.9-2.3-4.9-3.8-3.5-.3.4.4 3.6 1.7 7.2 2 5.6 2.2 7 1.1 9.2-3.5 7.8-3.4 7.6-7 7.4-5.9-.4-7.8-.8-9.4-2.1-.8-.7-2-1-2.6-.6-.5.3-1.3-.1-1.6-.9-.3-.9-1.2-1.6-1.9-1.6-.6 0-2-.9-3-2-1.7-1.9-1.7-2 1.5-5 4.9-4.6 3-4.6-2.2 0-2.6 2.2-4.9 4-5.3 4-1.6 0-8.4-6.2-9.1-8.3-.4-1.2-1.4-2.7-2.2-3.3-.8-.6-1.5-2.8-1.7-4.8-.2-3.5.1-4 3.1-5.2 1.8-.8 4.6-1.4 6.2-1.4 1.5 0 3.7-.6 4.8-1.4 1.8-1.4 1.8-1.5.1-2.2-2.2-.8-12.4 3.1-15 5.8-2.8 2.9-6.2 2.2-11.6-2.5-2.7-2.3-5.2-4.9-5.5-5.7-1.5-3.4-4.2-7.5-5.1-7.8-.6-.2-1.9-.9-3-1.4-1.6-.9-1.8-.8-.7.3 1.8 2 1.5 2.8-1 2.3-1.3-.2-1.7-.2-1.1.2 1 .4 1 1.1.2 2.5-.5 1.1-1.4 1.7-2 1.4-.5-.4-.9-.1-.9.4 0 1.8-3.3 1.2-5.7-1.1-4.4-4.1-2.1-8.8 4.2-8.8 2.2 0 2.5.3 2 2-.5 1.5-.3 1.8.9 1.4.9-.3 1.6-1 1.6-1.5 0-.6 2.1-.7 5-.3 2.8.4 5 .4 5 .2 0-.3-1.8-2.4-4.1-4.7-2.2-2.4-3.8-4.8-3.6-5.4.3-.9 4.8-1.1 15.8-.9 9.1.2 18-.1 21.9-.8 3.6-.7 7.4-1.2 8.5-1.3 1.1-.1 2.6-.7 3.4-1.4 1-1.1 1.6-1.1 2.7-.2 2.2 1.8 1.7 3.8-1.1 4.5-3 .8-2.5 1.9 2.3 4.3 3.5 1.8 3.5 1.9 1.2 2.6-1.6.5-2.7.3-3.4-.7-.6-.7-2.6-1.5-4.4-1.6-1.9-.1-4.9-.9-6.8-1.7-1.9-.8-3.4-1-3.4-.4 0 .5.8 1.2 1.8 1.5.9.3 3 1.1 4.5 1.9 1.5.8 2.5 1 2.2.5-.8-1.4.5-1.2 3.4.4l2.4 1.3-2.9.6c-1.6.3-4.4-.1-6.3-.9-3-1.2-3.2-1.2-2.1.1 1.7 2.1.7 1.9-5.1-1.1-2.8-1.4-5.3-2.3-5.7-2-.3.3 1 1.3 2.9 2.1 2 .9 2.3 1.3.9.9s-4.4-.8-6.7-.9c-2.4-.2-7.3-1.7-10.9-3.4-8.5-4-9.2-3.9-2.5.4 3 1.9 7.1 3.7 9 4 2 .3 6 1.1 8.9 1.7 2.8.6 9.1 1.2 13.9 1.2 5.1.1 8.8.5 9 1.2.2.5-1.8 2-4.4 3.2-4.2 1.8-4.5 2.1-2 2.1 1.5.1 2.7-.3 2.7-.8 0-1.2 9.3-3.2 10.3-2.2s-4.8 6.1-6.9 6.1c-.8 0-1.4.4-1.4.9s-1 1.2-2.2 1.4c-1.8.3-1.7.5.7.6 2.3.1 2.7.3 1.5 1.1-3 2 .2.9 4.4-1.4 2.3-1.3 5.1-2.3 6.2-2.2 2.2.1 5.7 3 4.8 3.9-.3.3 0 .8.7 1.3.8.4 1 .3.5-.4-1.3-2.2 2.3-1.2 8.8 2.3 3.5 2 7 4.2 7.6 5 .7.8 2 1.5 2.9 1.5 2.4-.1-2.1-3.6-9.1-7.1-3.1-1.6-5.9-3.2-6.1-3.6-.9-1.5 5.3-.6 7 .9 1.8 1.6 4.3 1.4 4.3-.3 0-.5-.9-.9-1.9-.9-1.1 0-2.3-.5-2.6-1-.3-.6-.1-1 .5-1s.9-.4.6-.9c-.3-.4-3.6-1.1-7.3-1.4-9.4-.8-11.3-1.6-10.2-4.4.7-2 1.2-2.1 3.4-1.3 1.5.6 6.3 1 10.8 1l8.2-.1-2.5-2.1c-2.2-1.8-3.3-2-10-1.4-5.7.5-7.1.3-6.2-.6 2-2 12.6-2.3 16.3-.4 3.9 2 3.9 2 3.9.1 0-.9-.6-1.2-1.5-.9-1.1.5-1.5-.1-1.5-1.8 0-1.4-.3-2.8-.6-3.1-.9-.9-1.5-7.8-.8-8.9.9-1.4 1.1-10.9.2-11.4-.3-.2-.6-2.7-.4-5.6.2-4.4-.1-5.2-1.8-5.6-2-.5-2-.5 0-1.3 1.7-.7 1.7-.8.1-.8-2.7-.1-1-2.1 1.9-2.1 2.3 0 2.4.2 2.4 6.9zm14.5-4.8c1.2 1.9-.5 2.3-2.2.6-1.6-1.6-1.6-1.7-.1-1.7.9 0 2 .5 2.3 1.1zm-6.1 5.9l-1.4 4.5.6-4c.6-4 1.3-5.9 2-5.3.2.2-.3 2.4-1.2 4.8zm-12.4-1.5c0 .8-.4 1.5-1 1.5-.5 0-1-.7-1-1.5s.5-1.5 1-1.5c.6 0 1 .7 1 1.5zm-3.1 4.9c.1 1.8 0 1.8-1.8.2-1.6-1.5-1.8-2.1-.8-3.7 1.1-1.8 1.2-1.8 1.9-.1.3.9.7 2.6.7 3.6zm25.7 1.1c-.8 5.1-1.9 5.1-3.6-.1-1.2-3.6-.6-6 .9-3.5.6 1 1 .9 1.5-.5 1.2-3 1.9-.6 1.2 4.1zM664 130c0 .5-.5 1-1.1 1-.5 0-.7-.5-.4-1 .3-.6.8-1 1.1-1 .2 0 .4.4.4 1zm1.5 3c-.3.5-1 1-1.6 1-.5 0-.9-.5-.9-1 0-.6.7-1 1.6-1 .8 0 1.2.4.9 1zm193.7 2.6c5.4 9 5.5 10.4.3 8.4-3.2-1.2-7-8.7-5.3-10.8 1.5-1.7 2.9-1.1 5 2.4zM657 136c0 .5-.2 1-.4 1-.3 0-.8-.5-1.1-1-.3-.6-.1-1 .4-1 .6 0 1.1.4 1.1 1zm8.6 2.7c-1.1 1.1-1.9-.6-1.1-2.4.8-1.7.8-1.7 1.2 0 .3 1 .2 2.1-.1 2.4zm131.5-1.7c3.6 1.9 4.1 1.9 5.5.5 1.4-1.4 1.8-1.3 4.1.5 1.4 1.1 3 1.7 3.5 1.4 1-.7 4.8 2.4 4.8 3.9 0 1.6-18.9.2-24.7-1.9-7.6-2.7-7.1-5.6 1-6.3 1 0 3.6.8 5.8 1.9zm55.9.4c0 2.1 4.9 7.6 7.8 8.7 1.4.5 2.2 1.2 1.9 1.5-.3.4-2.1-.2-3.9-1.3-3.3-1.9-8.9-10.3-6.9-10.3.6 0 1.1.6 1.1 1.4zM642.5 140c-.4 1.2-.9 1.9-1.2 1.7-.3-.3-.2-1.5.2-2.7.4-1.2.9-1.9 1.2-1.7.3.3.2 1.5-.2 2.7zm13.4-.4c1.5.9 3.3 2.5 3.9 3.5 1 1.5.6 2.1-2.2 3.8-1.8 1.2-3.8 2.1-4.5 2.1-.6 0-1.1.3-1.1.7 0 .5 4.4.7 9.7.6l9.8-.2-5 2.3c-5.2 2.4-8 2.5-4.8 0 1-.7 1.3-1.4.7-1.4-.6 0-2.8 1.3-5 3-6 4.5-8 4.1-11-2.5-2.6-6.1-3.1-10.4-1.2-12.3 1.7-1.7 7.5-1.5 10.7.4zm194.1-.5c0 .6 2.6 3.6 5.7 6.6l5.8 5.5-3.3 2.9c-2.2 2-4.3 2.9-6.7 2.9-1.8 0-3.7.4-4 1-.3.5-1.1 1-1.7 1-.6 0-.3-.9.7-2 1.5-1.7 1.5-2 .3-2.5-.8-.3-1.5-1.2-1.5-2s.4-1.2.8-.9c.4.2 1 0 1.3-.5.3-.5-.3-1.1-1.3-1.4-1.5-.3-2 .2-2.5 2.4-.3 1.8-1.2 2.9-2.2 2.9-1 0-1.5-.3-1.1-.6.3-.3-.5-2.4-1.9-4.5-2.7-4.3-2.9-5.2-1.2-4.7.7.3 2.1-.4 3.2-1.4 2.9-2.7 4.9-2.3 4.4.7-.6 2.9-.2 3.1 1.9 1 1.2-1.2 1.3-1.9.3-3-1-1.2-1-1.8 0-3 1.5-1.8 3-2 3-.4zm-86 3.6c0 1-3.2 4.3-4.2 4.3-1.3 0-.9-3.8.5-4.3 1.8-.8 3.7-.8 3.7 0zM643 145c0 .5-.4 1-1 1-.5 0-1-.5-1-1 0-.6.5-1 1-1 .6 0 1 .4 1 1zm114.7 2.2c-.3.8-.6.5-.6-.6-.1-1.1.2-1.7.5-1.3.3.3.4 1.2.1 1.9zm-5.7.8c1.2.8 1 1.4-1.7 3.6-1.8 1.4-3.3 3.2-3.3 3.9 0 1-.6 1.2-1.7.8-1.5-.6-1.6-.4-.5.9.7.9 2.3 1.9 3.6 2.2 3 .7 4.1 5.5 1.8 7.3-2 1.5-9.8 1.7-10.7.3-.3-.6-1.6-1-2.7-1-2 0-2 .1-.5 1.8 2.2 2.4 2.3 5.6.2 4.8-.8-.3-1.5 0-1.5.7s-.4 1.8-.9 2.6c-1.4 2.1-4.1-.4-4.1-3.6 0-2.3.3-2.5 3.3-1.9l3.2.6-2.2-1.9c-1.2-1-2-2.1-1.6-2.4.3-.4-.9-1.8-2.6-3.2-3-2.6-4.3-7.6-2.2-8.9.4-.3.8 1.1.7 3.1-.1 2.1.4 3.8 1.2 4 .6.3 1.2-.3 1.2-1.2 0-.9-.4-1.3-1-1-2.3 1.4-.8-3.6 1.5-5.1 2.4-1.6 5.4-1.5 9.9.2 1.6.6 1.7.4.7-1.4-1.3-2.5-1.4-3.5-.2-2.8.5.3 2-.3 3.2-1.4 2.7-2.2 4.7-2.5 6.9-1zm-117 5.2c1 1.8 1.7 3.4 1.5 3.7-.6.6-6.5-5-6.5-6.1 0-2 3.2-.5 5 2.4zm9.5-2.2c.3.5.1 1-.4 1-.6 0-1.1-.5-1.1-1 0-.6.2-1 .4-1 .3 0 .8.4 1.1 1zm134.9 3.2c2.2 2.4 2.5 3.2 1.5 3.9-2 1.2-6.7 1.1-7.4-.2-.4-.6-1.7.3-3.1 2.3-3.1 4.1-4.3 4.1-6.4.3-2.5-4.3-1-6.8 3.6-6.3 1.9.2 3.4 0 3.4-.4s-.6-.8-1.2-.8c-.8 0-.4-.7.6-1.5 2.6-2 5.4-1.1 9 2.7zm2.4-2.1c1.9 3.1.9 3.3-1.8.4-1.6-1.7-1.9-2.5-.9-2.5.8 0 2 .9 2.7 2.1zm-16.1.1c-1.1.5-2.9.8-4.2.6-1.8-.4-2.1-.1-1.7 1.4.2 1 .8 1.5 1.3 1.2 1.2-.7 1.1.3-.1 2.6-.8 1.6-.4 2.4 2.4 4.7 2.9 2.2 3.3 3 2.3 4.2-1 1.2-.9 1.4.7.8 1.9-.7 5.6 1.6 5.6 3.5 0 .5 1.6 2.5 3.6 4.3 2.5 2.4 3.5 4.1 3.1 5.4-.4 1.7.2 2.1 3.9 2.7 4.3.6 8 .3 11.7-1.1 1.9-.8 2.3 1 .8 3.4-.8 1.3-1.2 1.3-2.7 0-1.6-1.3-1.7-1.2-1 1.3.5 2.1.3 2.8-.9 2.9-3 .3-3.4.4-4.6 1.6-2 2-4.1 1.5-7.7-1.8-2.2-1.9-3.1-3.6-2.8-4.7.5-1.5 0-1.7-3.4-1.4-5.4.5-9-1.8-9-5.8 0-2.7.4-3 4-3.6 4.5-.7 5.5-2.7 1.3-2.4-4.9.3-5.6.1-5-1.9.4-1.7 0-1.8-3.3-1.4-3.6.5-3.8.4-4.5-2.7-.5-2.4-1-2.9-1.6-1.9-.7 1.1-.9.9-.9-.7 0-1.2-.6-3.4-1.4-4.9-.8-1.5-1.2-3.4-.9-4.3.5-1.1.2-1.3-.8-.8-.8.4-.6.1.4-.7 1.2-1 4.3-1.5 9.5-1.5 5.8-.1 7.3.2 5.9 1zm71.8.8c.3.5.2 1-.4 1-.5 0-1.3-.5-1.6-1-.3-.6-.2-1 .4-1 .5 0 1.3.4 1.6 1zm-50 6c.3.5.2 1-.4 1-.5 0-1.3-.5-1.6-1-.3-.6-.2-1 .4-1 .5 0 1.3.4 1.6 1zm-59.6 10.9c-.7 2.8-1.8 5.1-2.3 5.1-3.1-.1-5.6-1.4-5.6-3 0-1-.6-2-1.2-2.3-1-.3-1-.7.1-2 1.5-1.9.1-2.3-1.7-.5-.9.9-1.2.9-1.2 0 0-1.7 4.9-3.4 8.3-2.9 1.5.2 2.7-.1 2.7-.7s.4-.6 1.1.1c.8.8.8 2.5-.2 6.2zm148.1.2c0 .5-.4.9-1 .9-.5 0-1-.7-1-1.6 0-.8.5-1.2 1-.9.6.3 1 1 1 1.6zm-124.3.2c-.3.8 1.2 2 3.7 3 3.1 1.3 4.5 2.6 5.8 5.7 1.5 3.7 2.6 4.6 8.3 6.5 1.5.6 1.7.8.5 1.2-.8.2-2.5.9-3.6 1.5-1.5.7-2.8.7-4.3-.1-1.4-.8-2.1-.8-2.1-.1 0 .5.8 1.1 1.8 1.2 5.6.4 8.8.3 10-.5.8-.7 1.2-.4 1.2 1.1 0 1.2.5 2.4 1 2.7 1.7 1 .1 2.5-2.6 2.5-1.4 0-2.2.4-1.9 1 .4.6-.7 1-2.7.9-1.8-.1-2.5-.3-1.6-.6 1.5-.4 1.6-.8.7-2.5-1-1.9-.9-2 1.5-1.6 1.7.4 2.5.1 2.3-.6-.2-.6-2-1-4.3-.8-2.9.2-4.7-.3-6.7-1.8-3.1-2.5-3.4-4.5-1-7.4 1.4-1.6 1.2-1.6-.9.3-3 2.6-2.8 4.2 1 8.3 2.9 3.2 2.4 5.8-1.2 5.8-3 0-9.2-3.5-10-5.6-.8-2 1.1-5.4 2.9-5.4 2.1 0 1.9-.8-1.5-4.7-1.6-1.8-3-4.1-3-5.1 0-1.3.2-1.4.9-.4.7 1.1 1 1 1.5-.3 1.1-2.9.7-3.5-1.9-2.3-2.4 1.1-2.4 1.2-.9 4.7.9 2 1.8 4.2 2.1 4.9.4 1-.5 1.3-3.7 1-3.3-.2-4.8-.9-6.3-3-1.7-2.2-1.8-3-.7-4.3.7-.8 2.1-1.5 3.2-1.5 1.5 0 1.7-.3.8-1.9-.5-1.1-1-2.1-1-2.3 0-.2 3-.5 6.6-.6 5-.1 6.5.2 6.1 1.1zm36.3-.3c1.2.8.9 1-1.2 1-1.5 0-3-.5-3.3-1-.8-1.3 2.5-1.3 4.5 0zm-28.6.6c1.4.5 2.4 3.4 1.2 3.4-1.6 0-5.6-2.1-5.6-3 0-1.1 2-1.3 4.4-.4zm20.5 2.3c-1.9 1.5-2.7 1.7-3.8.8-1.1-1-.9-1.3 1-1.8 4.3-1.2 5.2-.9 2.8 1zm76.4-.2c-.7.2-2.1.2-3 0-1-.3-.4-.5 1.2-.5 1.7 0 2.4.2 1.8.5zm68.2 2.3c6.5 3.4 9.5 5.7 9.5 7.4 0 .7 1.9 1.7 4.3 2.3 4.5 1.2 15.7 8.7 15.7 10.5 0 .6-1.1.3-2.5-.6-4.8-3.1-13.1-5.9-18.5-6.1-3-.1-7.2-.6-9.2-1-2.3-.4-3.8-.3-3.8.3 0 .5 3.7 1.4 8.3 1.9 6.6.8 7.3 1 3.5 1.2-7.8.2-19.8 3.2-19.8 4.9 0 1-.7 1.2-2.2.8-1.3-.4-3.6-.9-5.3-1.3-2.8-.6-2.9-.5-1.5 1.2s1.3 1.8-1 1.2c-1.4-.4-3.6-.7-5-.7s-3.2-1.1-4.2-2.4l-1.6-2.3h7.1c6.7 0 12.6-1.7 14-4 .3-.5-5.5-.7-12.8-.5-11.1.3-13.3.1-13.8-1.2-.4-1 .4-1.8 3-2.7 2-.6 5.1-2 6.9-3.1 2.5-1.5 14.4-5.7 16.2-5.8.1 0 .2 1 .2 2.3 0 2-.4 2.3-2.9 1.9-1.6-.2-4.1.3-5.7 1.3-2.6 1.5-1.7 1.4 2.1-.1.9-.4 1.5-.1 1.5.8 0 1 .8 1.3 2.8 1 1.6-.2 5.2.3 8 1.2 4.9 1.4 5.2 1.4 5.2-.3 0-.9.5-2.2 1.2-2.9.8-.8.8-1.5-.2-2.7-1.7-2.1-3.7-1.9-5.2.5-.7 1.1-1.8 2-2.5 2-1.5 0-2.8-4.3-1.9-6.5.8-2.2 3.4-1.8 10.1 1.5zm-139-1c-.3.6.4 1 1.7 1 1.3 0 3 .5 3.8 1.1 1.1.8.4.9-2.8.5-2.9-.4-4.1-.3-3.7.4.3.5 2.6 1 5.1 1 2.4 0 4.4.4 4.4 1 0 .5-1.3.7-3.2.3-2.7-.5-3-.4-2.5 1.1.4 1 .1 1.9-.9 2.3-4.1 1.6-10.1-5-7.4-8.2 1.4-1.6 6.5-2.1 5.5-.5zm-51.2 6.3c5.1 5.7-2.3 8.3-7.7 2.7-2.7-2.9-2.8-3.2-1.1-5 1.4-1.6 2.1-1.7 4.3-.8 1.5.6 3.5 2 4.5 3.1zM638 180c3 1.1 4.6 1.9 3.5 1.9-1.7 0-10.9-3.7-9.5-3.8.3 0 3 .8 6 1.9zm-4 2.2c0 1.3-2.3.5-2.8-1-.2-.7.2-1 1.2-.6.9.3 1.6 1.1 1.6 1.6zm13.9 2.4c-1 1.2-2.4 1.5-5.6 1-2.5-.3-4.3-.2-4.3.4 0 .6-2.1 1-4.7 1-10.5 0 .6-3.4 12.6-3.9 3-.1 3.2.1 2 1.5zm33.4-.2c8.3 1.1 11.1 1.8 12.2 3.2 1.9 2.5 1.8 3.4-.2 5.6-2.3 2.6-9.6 2.5-12.3-.2-1.1-1.1-3.2-2-4.7-1.9-1.6 0-2.2.3-1.5.6.6.2 1 .8.7 1.3-.6.9-6-.4-7.9-1.9-.6-.5-2.6-1.1-4.5-1.3-5.5-.5-5.1-2.8.6-2.9 2.6-.1 3.7-.3 2.3-.6-5.3-.8-7-1.4-7-2.3 0-1.4 9.5-1.2 22.3.4zm60.2.4c1.2.8 1.7 4.1.9 6.1-.3 1.1-.8 1-2.4-.4-2.4-2.2-2.6-3.5-.5-3.5 1.8 0 2-1.6.3-2.3-.7-.3-.8-.6-.3-.6.6 0 1.5.3 2 .7zm140.5 3.1c0 1.2 1.7 2.9 4.8 4.7 3.1 1.9 4.2 2.9 3 3.2-2.2.4-8.8-2.4-8.8-3.8 0-.6-.4-.8-1-.5-.6.4-1-.7-1-2.4 0-2.1.5-3.1 1.5-3.1.8 0 1.5.9 1.5 1.9zm-84.7.8c-.7.2-1.9.2-2.5 0-.7-.3-.2-.5 1.2-.5s1.9.2 1.3.5zm-84.9 2.5c.9 1.2 1.3 2.4 1 2.7-.3.3-.9-.1-1.4-.9-.5-.8-1.5-1.5-2.2-1.6-.7 0-2.4-.2-3.8-.3l-2.5-.3 2.5-.8c4-1.3 4.8-1.1 6.4 1.2zm65.2.5c-.7.7-2.6-.7-2.6-1.9 0-.6.6-.6 1.5.2.9.7 1.3 1.5 1.1 1.7zm-40.5-.1c1.2 1.5 1.1 1.6-1 .9-1.5-.5-2.6-.3-3.1.5s-1.5 1-2.6.6c-1.6-.7-1.3-1 1.6-2.1 1.9-.7 3.6-1.3 3.6-1.4.1 0 .8.6 1.5 1.5zm70.9-.6c0 .5-.2 1-.4 1-.3 0-.8-.5-1.1-1-.3-.6-.1-1 .4-1 .6 0 1.1.4 1.1 1zm-13.3.7c1.6.6 1.5.8-.7 1.4-2.3.6-2.3.7.8.8 1.7.1 3.2.6 3.2 1.2 0 .7-1.5.9-4.2.4-3.1-.4-3.9-.3-2.8.4 1.2.9 1 1.1-1.1 1.1-1.6 0-2.9-.7-3.3-1.6-.8-2-.7-2 2.4-3.3 3.1-1.2 3.4-1.3 5.7-.4zm132.7.9c2.3.9 2 2.4-.4 2.4-1.1 0-2-.7-2-1.5 0-1.7.2-1.8 2.4-.9zm-227.1 3.8c-1.6.8-1.5 1 .2 1.7 1.1.4 3.3.8 5 .8 2.2.1 2.6.4 1.7 1.3-2.5 2.5-13.6-3.2-11.8-6 .4-.7 1.7-.6 3.6.1 2.6 1 2.7 1.3 1.3 2.1zm159-.1c3.5 2.2 3.4 6-.1 6.2-1.6.1-2.4-.5-2.7-2.2-1.4-6.5-1.5-7.7-.8-6.8.4.6 2.1 1.9 3.6 2.8zm63.7-1.8c-1.4 1.6-5 2.1-5 .6 0-.9 2-1.7 4.9-2 1.1-.1 1.1.2.1 1.4zm23.3-.8c-.7.2-2.1.2-3 0-1-.3-.4-.5 1.2-.5 1.7 0 2.4.2 1.8.5zm-202.7 4.8c-1 4.2-3.6 7.1-3.6 4 0-.8-.4-1.5-1-1.5-.5 0-1 .4-1 1 0 .5-.7 1-1.6 1-.8 0-1.3-.4-.9-.9.3-.5-.5-1.2-1.7-1.4-1.7-.3-1.4-.5 1-.6 1.7 0 3.2-.6 3.2-1.2 0-.5-.6-.7-1.2-.4-.7.4-.4 0 .7-.9 1.1-.8 2.5-2 3-2.5.6-.6 1.7-1 2.6-1.1 1.3 0 1.4.6.5 4.5zm41.2-.8c.3 2.7 0 3.3-1.7 3.3-1.1 0-2.3.4-2.6 1-.9 1.5-5.1 1.2-6.5-.5-2.8-3.4 1.6-7.8 7.5-7.3 2.6.3 3 .7 3.3 3.5zm92.2-3.1c0 1.1-7 3.4-10.3 3.4-1.9 0-4-.7-4.7-1.5-1-1.2-.1-1.5 6.2-1.8 4-.1 7.6-.4 8.1-.5.4-.1.7 0 .7.4zm-68.2 1.9c1 1-.3 1.2-4 .7-2.1-.2-3.8-.9-3.8-1.4 0-1.1 6.7-.5 7.8.7zm-81.3 2c0 1.6-.6 1.9-2.5 1.7-1.4-.2-3.2-.8-4-1.3-1.2-.6-1-.8.8-.9 1.4 0 2.1-.4 1.6-1.1-.4-.7.2-.9 1.7-.7 1.6.2 2.4 1 2.4 2.3zm26 0c.6-.1 2-.4 3.2-.9 1.3-.4 3.1-.3 4 .3 1.6.9 1.4 1-1 1.1-1.5 0-3.7.6-4.8 1.2-1.7 1-2.3 1-2.6 0-.3-.6-.9-1.2-1.4-1.2-.4 0-.6.7-.3 1.5.4.8 1.4 1.5 2.4 1.5s2 .7 2.4 1.5c.4 1.1-.1 1.5-1.8 1.5-1.3 0-2.6-.7-3-1.5-.3-.8-1.2-1.5-2-1.5-1.8 0-4-3.6-3.1-5 .4-.6 1.8-.5 3.8.3 1.8.7 3.7 1.2 4.2 1.2zm-71.7-.8c-1.6.2-4 .2-5.5 0-1.6-.2-.3-.4 2.7-.4s4.3.2 2.8.4zm113.9-.1c-.3.3-1.2.4-1.9.1-.8-.3-.5-.6.6-.6 1.1-.1 1.7.2 1.3.5zm18.5 1.2c.7-.3 1.9 0 2.5.8 1 1 .5 1.7-2.3 3.5-3.8 2.3-5.3 1.7-5.4-2.2 0-2.2 2.2-4.2 3.1-2.7.4.6 1.3.9 2.1.6zm64.8-.8c0 .5-1.7 1-3.7 1-2.8 0-3.4-.3-2.3-1 2-1.3 6-1.3 6 0zm-106.7 2.9c1.7 2.9 1.7 2.9-.9 3.5-1.4.4-3.5.4-4.6 0-1.4-.4-1.8-.2-1.4.5.4.6 1.9 1.2 3.4 1.2 1.9.1 2.1.3.9.6-1.1.3-3.4.2-5.3-.2-2.7-.5-3.4-1.1-3.4-2.9 0-2.6 1.4-4.1 4.5-4.9 4.1-1 5.1-.6 6.8 2.2zm26.2-.8c.5.5-.1.9-1.5.9s-3.6.3-4.9.7c-1.6.4-2.2.3-1.7-.5.3-.6-.2-1.6-1.1-2.2-1.4-.8-.6-.9 3.2-.4 2.8.3 5.4 1 6 1.5zm67.5-.7c0 .3-.4.8-1 1.1-.5.3-1 .1-1-.4 0-.6.5-1.1 1-1.1.6 0 1 .2 1 .4zm13 1.1c0 1.3-3.1 6.5-3.9 6.5-1.2 0-6.1-4-6.1-5 0-.5.8-1.1 1.8-1.3 2.5-.7 8.2-.8 8.2-.2zm1.5 4.4c-.8 1.7-2 3.1-2.5 3.1-.6 0-.1-1.9 1.1-4.3 1.2-2.3 2.4-3.7 2.6-3 .2.6-.3 2.5-1.2 4.2zm-72.8-1.2c-.3.3-1.1.2-1.7-.2-.9-.6-.9-1 .1-1.6 1.4-.8 2.7.7 1.6 1.8zm93.5.8c5.1 4.3 9 5.8 15.6 6 5.2.2 7.2.8 11.5 3.6 2.9 1.8 7.9 4.7 11.2 6.5 8.3 4.5 10.7 7.4 12.6 15 1.3 5.3 1.3 6.4.2 6.4-4.7 0-11.8-7.1-12.9-12.8-.4-1.8-1-3.2-1.4-3.2-.4 0-1.2-1.1-1.8-2.5-.6-1.4-1.8-2.5-2.6-2.5s-1.9-.6-2.3-1.3c-1.1-1.7-6.9-3.6-12-3.9-3.5-.1-4.8.3-7.4 2.8-2.7 2.5-3 2.6-2.8.9.4-2.6-1.8-6.5-3.6-6.5-.8 0-1.5-.6-1.5-1.3 0-.8-.3-.7-1 .3-.8 1.2-1 1.2-1.6-.3-.3-.9-1.2-1.7-2-1.7s-1.4-.7-1.4-1.6c0-.8-.4-1.3-1-.9-.5.3-2.6-1.1-4.7-3.1l-3.8-3.6 4.8.6c3.1.4 6 1.5 7.9 3.1zm-174.5-1.9c-.3.3-1.2.4-1.9.1-.8-.3-.5-.6.6-.6 1.1-.1 1.7.2 1.3.5zm74.3.4c0 .5-.9 1-2 1s-2-.5-2-1c0-.6.9-1 2-1s2 .4 2 1zm67.4.6c.3.9.6 2.9.6 4.6 0 4.3-2.9 3.3-4.6-1.7-.7-2.2-1.4-4.1-1.4-4.3-.1-1.1 4.9.2 5.4 1.4zm-121.6 1.3c.9.5 2.6 1.3 3.7 1.6 2 .7 1.9.7-.2 1.7-1.7.8-2.7.6-4.7-.9-3.2-2.6-2.4-4.3 1.2-2.4zm81.7.1c-.3.5-1.2 1-1.8 1-.7 0-.6-.4.3-1 1.9-1.2 2.3-1.2 1.5 0zm33.6 0c2.5 1.4 2.4 4.6-.1 5.3-1.3.3-2.4-.1-3.1-1.4-.9-1.7-1.2-1.8-2.4-.5-1.9 1.8-1.9 2.6-.1 2.6 2 0 3.1 1.9 1.8 3.2-.6.6-3.1 1.1-5.6 1.3-2.6.2-5.2.8-5.9 1.3-.8.7-1.8.7-2.7.2-2-1.3-5.3-1.3-4.5 0 .3.5 1.3.6 2.2.3 1.1-.4 1.4-.2 1.1.8-.7 2.2-3.5 2.2-6.7 0-1.6-1.2-3.4-2.1-4-2.1-.6 0-1.1-1.1-1.1-2.5 0-2.4.2-2.6 3.8-1.9 2 .4 3.8 1 4 1.5.2.4 2.4 0 5-.8 3-1.1 4.7-1.3 4.9-.6.5 1.5 5.3-.8 5.3-2.5 0-4.4 3.9-6.4 8.1-4.2zm-67.8 1.2c1.4 1.1 1.6 2.2 1.1 6l-.7 4.7-4.6-.1c-2.5-.1-5.4-.5-6.4-1s-5.8-1.1-10.7-1.4c-9.4-.4-15.2.8-13.2 2.8.8.8 1.5.8 2.7-.2 2.9-2.4 10.4-1.2 15 2.3 2.2 1.7 3.2 2.2 2.3 1.1-1.9-2.2-2.4-3.9-.9-3 .5.4 1.1.1 1.3-.5.2-.5 1.5.2 2.8 1.8 2.2 2.4 2.2 2.5.2.9-1.2-1.1-2.5-1.7-2.8-1.4-.6.6 4.4 4.8 5.7 4.8.5 0 .9-.7.9-1.5 0-.9 1.1-2.1 2.5-2.7 3.4-1.5 6.9.1 8.6 4.1.8 1.7 1.7 3.1 2.1 3.1.3 0 1.4.7 2.2 1.6 1.4 1.4 1.4 1.8.1 3.7-.8 1.2-1.5 3.6-1.5 5.3 0 4.2-2.3 6.1-5.8 4.8-1.6-.6-2.6-1.7-2.6-2.7.1-.9-.2-1.7-.8-1.7-.5 0-.6-.5-.3-1.1.4-.6 2-.8 3.8-.4 2.2.4 2.8.3 1.8-.3-.7-.5-1.1-1.4-.8-1.9.3-.5.2-1.5-.4-2.3-.7-1.2-.9-1.1-1 .5 0 1.8-.1 1.8-1.2-.4-1-2-.8-2.6 1.2-4.2l2.3-1.9h-4c-2.3 0-4.3-.4-4.6-.9-.3-.5-1.5-.7-2.5-.4-1 .3-2.2 0-2.5-.6-.4-.6-1.2-1.1-1.7-1.1-.6 0-.7.5-.4 1 .4.6-1.6-.2-4.3-1.7-5-2.8-8.3-2.6-4.6.2 2.5 1.9 1 1.9-5.5-.1-2.9-.8-5.6-1.3-5.9-.9-.3.3.4.8 1.6 1.2 2.9.7 2.8 1.9-.4 3.6l-2.7 1.4 2.7.5c1.9.4 2.6.1 2.6-1 0-1.2.3-1.2 1.5-.2 1.1.9 1.5.9 1.5.1 0-.7.5-.9 1.2-.5.9.6.9.9 0 1.2-.7.2-1 .7-.7 1.2.3.5-1.2.7-3.2.5-2.2-.1-4.6.4-5.8 1.2-1.9 1.4-1.8 1.5 1.3 1.1 1.8-.3 3.5-.1 3.8.4.3.5.2.7-.3.6-.4-.1-1.8.4-3.1 1.1-2.5 1.4-5.7.8-4.7-.9.3-.5-.2-1-1.2-1-2.5 0-6.3-2.8-6.3-4.6 0-.8.7-1.4 1.5-1.4 1.2 0 1.4-.4.7-1.6-1.3-2.3-.3-5.4 1.4-4.7.8.3 1.4 0 1.4-.6s1-1.1 2.3-1.2c1.2 0 1.6-.3 1-.6-.7-.2-1.3-.8-1.3-1.2 0-1.3 6.9-4.3 8.6-3.7.9.4 3.6-.3 5.9-1.4 3.3-1.6 4.8-1.8 6.8-1.1 2.9 1.1 7.4.1 10.9-2.3 2.7-1.9 3.9-2 6.1-.4zm27.3-.2c.8 0 1.4 1 1.4 2.4 0 3.6-3.4 4.3-6.5 1.4-3.5-3.3-3.3-5.2.6-4.4 1.7.3 3.8.6 4.5.6zm-65.1 2.1c-.4.5.6.9 2.1.9 2 0 2.5.3 1.7 1.1-1.3 1.3-6.3.1-6.3-1.5 0-.7.3-1.6.6-1.9 1-.9 2.5.3 1.9 1.4zm47.7 1.8c-.3 3.2-.8 4-2.8 4.4-1.9.3-2.4 0-2.4-1.7-.1-2.1-.1-2.1-1.5-.2-1.6 2.1-2 1-.9-1.9.6-1.4 5.4-4.3 7.4-4.5.3 0 .4 1.8.2 3.9zm8.2-2.3c2.2 2.1 2 4.4-.3 4.4-1.1 0-2.3.4-2.6 1-.9 1.5-3.5 1.2-3.5-.5 0-2.4 2.2-6.5 3.6-6.5.7 0 2 .7 2.8 1.6zm21.2-.2c1.8 1.9 1.8 3-.1 2.2-1.9-.7-4.7.3-3.9 1.5.8 1.3-3 1.1-4.4-.3-1.9-1.9-1.4-3.6 1.1-4.1 4.3-.8 5.9-.7 7.3.7zm-88.1 1.7c-.7 1-3.5.1-3.5-1.1 0-.5.9-.6 2-.3s1.7.9 1.5 1.4zm128.3-.9c.7.7 1.2 2.4 1.2 3.9 0 2.2-.4 2.6-2 2.2-1.2-.3-1.8-.8-1.5-1.1.2-.3 0-1.1-.5-1.7-1-1.3-.4-4.5.9-4.5.4 0 1.2.5 1.9 1.2zM768 209c-2 1.3-3.3 1.3-2.5 0 .3-.6 1.4-1 2.3-1 1.5 0 1.5.2.2 1zm-13 3c1.1.7.7 1-1.7 1-1.8 0-3.3-.5-3.3-1 0-1.3 3-1.3 5 0zm125.6 1.5c1.8 2.7 1.2 4.5-1.6 4.5-2.5 0-3.2-1.3-2.4-4.5.8-3.2 1.9-3.2 4 0zm-51.5 1.1c1.6 2 0 3.6-3.2 3.2-2.3-.4-2.6-.2-1.8.9.8.9.8 1.3 0 1.3-.6 0-1.4-.7-1.8-1.6-.5-1.3-.7-1.3-1.4-.2-.6.9-.9.4-.9-1.5 0-4.3 6.1-5.7 9.1-2.1zm38.9-1.2c.6.8 2.1 1.6 3.3 1.8 1.8.2 2.2 1 2.2 4.3 0 3-.4 4.1-1.7 4.3-1.4.3-1.8-.3-1.8-2.2 0-1.4-.5-2.6-1.1-2.6-.5 0-.7-.5-.3-1.1.4-.8 0-.9-1.5-.4-1.2.4-2.1.2-2.1-.4 0-.6-1.2-1.1-2.7-1.2l-2.8-.1 2.5-.8c1.7-.5 1.9-.8.8-.9-1-.1-1.8-.6-1.8-1.1 0-1.5 5.6-1.2 7 .4zm-116.1 1.5c.8.5-1 .8-5 .7-7.1-.1-12.6 2.4-14.7 6.6-.7 1.6-1.1 1.8-1.1.7-.3-5.3 15.5-11.4 20.8-8zm65.9.4c2.2 1.7 1.3 4.4-1.9 5.7-3.5 1.5-4.4.8-5.2-3.6-.6-2.9-.4-3.1 2.6-3.1 1.8 0 3.8.4 4.5 1zm-10.2 2.2c.9 1.4 1.5 2.7 1.3 2.8-5.5 3.9-9.8 4.5-8.5 1.2.3-.8.1-1.5-.4-1.5-2 0-.9-1.9 1.8-3.3 3.8-2 3.9-2 5.8.8zm-9.4.7c-.7.7-1.2.8-1.2.2 0-1.4 1.2-2.6 1.9-1.9.2.3-.1 1.1-.7 1.7zm66.4 3c5 4 5.4 4.5 4.8 7.5-.6 3-.4 3.3 2 3.3 2.2 0 2.6.4 2.6 3.1 0 2.4-.3 3-1.6 2.5-.9-.3-2-.6-2.5-.6-.6 0-.7-.5-.4-1 .3-.6 0-1-.7-1-.9 0-1.4-1.2-1.4-3.6 0-2.7-.7-4.3-2.5-5.8-1.4-1.2-2.3-2.8-2.1-3.6.4-1 0-1-1.2.3-2.1 2.1-3.7 2.2-3 .2.4-1 0-1.5-1.6-1.5-1.7 0-2 .4-1.5 2 .9 2.9-1.3 2.5-2.7-.4-3.1-6.9 3.7-7.6 11.8-1.4zm-29.7-.3c2.1 2.1 4.3 1.9 9-.5 2.1-1.1 2.9-1.1 4.6 0 3 2 2.6 5.9-.7 6.8-1.6.5-4 1.1-5.5 1.6-1.5.4-2.9 1.5-3.1 2.5-.3 1.3.3 1.7 2.7 1.7 1.6 0 3.3.4 3.6 1 .3.5 1.2 1 1.8 1 .7-.1.2-.9-1.1-2-3-2.5-1.3-3.3 3.1-1.5 4.9 2 4.1 5.3-1.4 6.1-3.7.6-4.6 2.4-1.2 2.4.9 0 2.2.8 2.9 1.7.8 1.1 1.3 1.3 1.4.5 0-.6.6-1.2 1.4-1.2 1 0 1.2-.7.8-2.2-.5-2.1-.5-2.1 2-.2 1.9 1.4 2.2 2 1.1 2.2-1.2.3-1.1.6.4 1.7 1.4 1 1.5 1.6.6 2.5-.9 1-1.6.9-3.3-.3-1.2-.9-2.9-1.3-3.6-1-.8.3-1.4 0-1.4-.6 0-.7-.8-.6-2.3.4-2.2 1.4-2.3 1.3-3.3-1.4-1.4-3.5.4-6.4 3.2-5.5 1.7.5 1.7.4-.1-.7-1.1-.7-3.6-1.2-5.6-1-2.3.1-4-.3-4.9-1.4-1.2-1.4-1.4-1.3-2.7.5-1.7 2.4-7.4 2.7-9.3.5-1-1.2-1-2.1-.2-4.1l1.2-2.5 4 2.1c3.9 2 4.7 1.9 9-.8.2-.2-.2-.7-1-1.2-1.2-.8-1.1-1 .5-1s1.7-.2.5-1c-1-.6-2.2-.4-3.7.5-4.6 3-8.3 1.5-8.3-3.4 0-4.2 5.6-5.5 8.9-2.2zm44.5.7c1.9 4.9-2 10.3-6.4 8.9-3-1-2.4-2.5 1-2.5 3.1 0 3.7-.9 1.9-2.7-1.4-1.4-.2-5.3 1.6-5.3.7 0 1.6.7 1.9 1.6zm-67.1 2.4c2.5 2 2.5 2 3 0 .6-2.3 4-2.6 7.6-.6l2.4 1.3-2.2 2.2c-2.2 2.2-6.5 2.8-7.6 1-.5-.6-1.3-.3-2.2 1-.8 1.2-2.2 2.1-3.1 2.1-1.5 0-1.5.2-.2 1 1.2.8 1.1 1-.7 1-1.3 0-2.3.6-2.3 1.4 0 .8-.6 1.7-1.2 1.9-.7.3 0 .6 1.7.6 2.2.1 2.6.4 1.7 1.3-1.7 1.7-6.2-.6-6.2-3.2 0-2.5 3.4-6 5.8-6 1.4 0 1.4-.2.3-.9-.9-.6-2.2-.6-3.3 0-2.5 1.4-2.3-.4.5-3.5 2.7-3.1 2.8-3.1 6-.6zm71.1 1.1c-1 1.6-2.4.9-2.4-1.2 0-1.8.2-1.9 1.5-.9.8.7 1.2 1.6.9 2.1zM772 225c0 .5-.2 1-.4 1-.3 0-.8-.5-1.1-1-.3-.6-.1-1 .4-1 .6 0 1.1.4 1.1 1zm140 2.3c0 1.8-.2 1.9-1 .7-1.3-2-1.3-4.3 0-3.5.6.3 1 1.6 1 2.8zm-47.4.2c2.9 2.9 2.8 4.4-.4 5.6-1.8.7-2.2.5-2.2-1.1 0-1.1-.7-2-1.5-2-2.1 0-3.1-3-1.4-4.1 2.1-1.3 2.8-1.1 5.5 1.6zm-88 1.2c-.7.7-2.6-.7-2.6-1.9 0-.6.6-.6 1.5.2.9.7 1.3 1.5 1.1 1.7zm14.7 1c.2 2.1.1 4.2-.4 4.7-1 1.1-5.4 0-7.3-2-1.4-1.4-1.3-1.7 1.1-4 3.9-3.6 6-3.2 6.6 1.3zm63.3-.2c-.6 1.8-5.2 2-6.2.3-.5-.8-.2-.9.9-.5 1 .3 1.7.2 1.7-.3 0-.6.7-1 1.5-1s1.5-.6 1.6-1.3c0-.9.2-.9.6.1.3.7.2 1.9-.1 2.7zm29.2-.8c-.2 1-1.3 1.9-2.6 2.1-2.4.4-2.9-.7-1-2.6 1.8-1.8 4-1.5 3.6.5zM772 231c0 .5-.2 1-.4 1-.3 0-.8-.5-1.1-1-.3-.6-.1-1 .4-1 .6 0 1.1.4 1.1 1zm9.8 1.1c.7 1.2 1.2 2.2 1 2.3-4.4 2.9-6 3.6-6.8 3.1-.6-.4-.8-1.1-.4-1.6.3-.5 0-1.6-.6-2.4-1.6-2-.4-3.5 2.8-3.5 1.7 0 3.2.8 4 2.1zm40.2 1c0 1.5-.5 1.9-1.6 1.5-.8-.3-1.2-.2-.9.4.8 1.3-1.1 1.3-3.6 0-3.4-1.9-2.3-4 2.1-4 3.4 0 4 .3 4 2.1zm58.7.9c-.1 2.1-.6 2.4-3.1 1.4s-1.9-3.4.8-3.4c1.9 0 2.4.5 2.3 2zm12-.4c-.3.3-1.2.4-1.9.1-.8-.3-.5-.6.6-.6 1.1-.1 1.7.2 1.3.5zm-135.3 4.6c-.5.8.2 1 4 1.2 1.1.1 2.1.7 2.3 1.4.4 1-2.1 1.1-4.7.2-.3-.1-1-.3-1.6-.4-1.6-.2-6.3-4.9-5.8-5.8.3-.5 1.8-.1 3.4.9 1.6.9 2.7 2 2.4 2.5zM811 235c0 .5-.4 1-1 1-.5 0-1-.5-1-1 0-.6.5-1 1-1 .6 0 1 .4 1 1zm50.8 2.9c-.5 2.4-2.3 2.3-5.1-.3-1.5-1.4-2.7-2.7-2.7-2.9 0-.2 1.8.1 4 .7 2.7.7 4 1.5 3.8 2.5zm-71.8-.1c0 .4-.7 1.8-1.6 3-2.2 3.2-6.9 2.7-6.8-.7.1-2.3 0-2.3-1.3-.5-1.4 1.9-1.5 1.8-1.1-.1.6-3.6 10.8-5.2 10.8-1.7zm50.7-1.2c-.3.3-1.2.4-1.9.1-.8-.3-.5-.6.6-.6 1.1-.1 1.7.2 1.3.5zm42.2 1.1c.3.2-.1.9-.8 1.6-.8.8-1.4.9-1.9.1-.8-1.3-4.2-1.5-4.2-.2 0 .4-.7.8-1.7.8-1.5 0-1.4-.2.2-2 1.3-1.4 2.5-1.8 4.9-1.3 1.7.3 3.3.8 3.5 1zm-136.8 1c.1 1 .1 2.2 0 2.7s.4 1.3 1.1 1.7c2.1 1.3.1 2.1-2.2.9-1.6-.8-2.5-.9-3.3-.1-.7.7-.5 1.2.9 1.7 5.6 1.8 5.9 2.3 1.4 2.4-2.5.1-3.9.4-3.2.7.6.2 1 .9.6 1.4-.3.5.6.9 2 .9 1.3 0 2.6-.4 2.8-.8.2-.5 1.9-.5 3.8.1 2.9.7 3.2 1 1.7 1.8-1 .6-2.6.7-3.7.4-1.5-.5-1.8-.3-1.4.9.4.9.1 1.6-.6 1.6-1.6 0-7.6-5.1-7.2-6.2.1-.4-.6-.8-1.7-.8-2.3 0-5.1-2.9-3-3.1.8-.1 1.8-.1 2.2 0 .4.1 1-.6 1.3-1.4.4-.8 1.2-1.5 2-1.5.7 0 1.1-.6.9-1.3-.3-.6.5-1.7 1.7-2.3 3.3-1.7 3.8-1.6 3.9.3zm85.3-.2c-.4.9 0 1.5 1 1.5s1.3-.6 1-1.5c-.4-.8-.1-1.5.5-1.5s1 1.1.9 2.5c-.2 1.8-.8 2.5-2.4 2.5-2.5 0-4.1-3-2.2-4.2 1.8-1.1 1.8-1 1.2.7zm35.6.1c3.7 2.2 3.8 6 .2 6.9-3.8.9-6.2-2.7-4.6-6.9.8-2 .9-2 4.4 0zM754 240c2.1 2.1 2.6 4 1.1 4-.6 0-1.3-.5-1.6-1-.4-.6-1.5-.8-2.5-.5-2.2.7-3.3-.7-2.4-2.9.8-2.2 3-2 5.4.4zm73.5 0c0 .8-1 1.6-2.2 1.8-2.5.4-2.6.2-1.7-2.3.8-1.9 3.9-1.6 3.9.5zm-5.5 1.4c0 3.3-1 5.6-2.4 5.6-1.4-.1-5.6-3.5-5.6-4.7 0-1.8 2.4-3.3 5.2-3.3 2.3 0 2.8.4 2.8 2.4zm-38.7 3.3c3.7 1.1 3.8 1.2.9.9-1.8-.1-3.5.1-3.8.6-.3.4-2 .8-3.8.8-3.1 0-3.3-.2-2.8-2.8.7-3.5 2.4-4.6 4-2.4.7.9 3.2 2.3 5.5 2.9zM813 241c0 .5-.7 1-1.5 1s-1.5-.5-1.5-1c0-.6.7-1 1.5-1s1.5.4 1.5 1zm-12.5 2.6c-1.9 1.5-1.9 1.5.8.9 1.7-.5 2.7-.3 2.7.4 0 .6-.5 1.1-1.1 1.1-.5 0-.7.4-.4 1 1 1.5-3.7 1.1-5.9-.5-2.2-1.7-2.2-1.7 1.9-3.8 3.5-1.8 4.9-1.2 2 .9zM841 242c0 .5-.5 1-1.1 1-.5 0-.7-.5-.4-1 .3-.6.8-1 1.1-1 .2 0 .4.4.4 1zm-31.5 1c1.8.8 1.7.9-.7.9-1.6.1-2.8-.4-2.8-.9 0-1.2.8-1.2 3.5 0zm-16.8 3c.3 1.7 1 3.3 1.4 3.6 1.3.7.1 2.4-1.6 2.4-2.3 0-4.9-5.8-3.4-7.6 1.8-2.2 2.9-1.7 3.6 1.6zm85.2-2.1c1.4.9.7 3.1-1 3.1-.6 0-.7-.5-.3-1.2.5-.8.2-.9-.9-.5-2.1.8-4.9-.2-4.1-1.4.7-1.1 4.5-1.1 6.3 0zm-14 5.5c-.7.8-6.9-.1-6.9-1.2 0-.3.7-1.4 1.6-2.4 1.6-1.7 1.8-1.7 3.9.5 1.2 1.2 1.8 2.6 1.4 3.1zm-107.8-3.3c1.1.5 1.7 1.4 1.4 2-.7 1.1-4.5-.7-4.5-2.1 0-1.3.7-1.3 3.1.1zm-4.1.9c.8.5 1.1 1.2.8 1.6-1 .9-3.8-.3-3.8-1.6 0-1.2 1-1.3 3 0zm87.3.5c.1.5-1 1.1-2.5 1.3-1.6.2-2.8-.1-2.8-.7 0-2 4.9-2.6 5.3-.6zm-101.7 4.4c.6 1.2 1.4 2.2 1.8 2.2 2.6-.3 3.7.2 4.7 2 .6 1.2.7 1.9.2 1.6-.5-.3-1.5-.2-2.3.3-.8.5-2.2.4-3.3-.2-1.6-.8-1.9-.7-1.4.5.9 2.4-5.2 4.3-7.2 2.2-1.4-1.3-1.4-1.5.1-1.5 2.6 0 3.2-2 1.2-3.5-2.6-2-.9-1.9 2.1.1 3.6 2.3 3.1.2-.6-2.5-2.4-1.8-2.8-2.5-1.9-3.6 1.5-1.8 5.1-.5 6.6 2.4zm47.8-3.3c.9.3 1.6 1 1.6 1.6 0 1.4-4.3.5-4.8-1-.4-1.3.7-1.5 3.2-.6zm28.1.3c-.6.6-3 1.3-5.4 1.7-4.1.7-4.3.6-3-.9.8-1 3-1.6 5.4-1.7 2.4 0 3.5.4 3 .9zm10.9.8c.8 2 0 2.8-3.5 3.7-2 .4-2.9.1-3.3-1.1-.4-.9-.5-1.7-.4-1.7 1-.6 5.4-2.5 5.9-2.5.4-.1 1 .7 1.3 1.6zm34.1 4.3c2 0 1.9 1.2-.3 3.8-1.7 1.9-2.1 2-3.8.7-1.4-1.1-1.5-1.4-.3-.9 1.1.3 1.8-.2 2.1-1.4.5-1.6-.1-2.1-2.9-2.5-3.5-.6-6.3-2.3-6.3-3.8 0-.4 1.7-.9 3.8-1.1 3.2-.3 3.9.1 4.9 2.4.7 1.6 1.9 2.8 2.8 2.8zm10.5-4.5c-.7.9-1.5 1.3-1.7 1.1-.7-.7.7-2.6 1.9-2.6.6 0 .6.6-.2 1.5zm-37.2 1.4c.3.9 0 1.2-1 .8-.9-.3-2.1 0-2.7.6-.8.8-1.1.5-1.1-1.2s.5-2.2 2.2-1.9c1.2.2 2.4.9 2.6 1.7zm14.2 1.6c0 4-1 4.5-2.6 1.2-1.2-2.8-.8-4.7 1.2-4.7.9 0 1.4 1.1 1.4 3.5zm27-1.5c-1.2 2.1-2.5 2.6-3.5 1.1-.3-.6.3-1.4 1.2-2 2.7-1.6 3.5-1.3 2.3.9zm-108.6.6c.8 2 .8 2.4-.1 2.4-1.7 0-3.5-1.9-2.9-2.9 1-1.6 2.3-1.4 3 .5zm96.6-.6c1.3.8 1.3 1-.2 1-.9 0-2-.5-2.3-1-.8-1.3.5-1.3 2.5 0zm-102.4 3.2c-.3 1.8-1.1 3.7-1.6 4.2-1.4 1.4-4.4-1.8-3.7-3.8.7-1.8 2.7-2.2 2.7-.6 0 .5.4 1 .9 1s.7-.9.4-2c-.3-1.2 0-2 .7-2 .9 0 1.1 1 .6 3.2zm57.7 1.8c-.2.2-.7 0-1.1-.5-.4-.6-1.8-1-3.1-1-3.5 0-3.8-2.3-.4-2.7 2-.2 3.1.3 3.9 1.7.6 1.1.9 2.2.7 2.5zm-47.3-2.7c0 .2-1.1 1.7-2.4 3.2-2.1 2.4-2.7 2.7-4 1.6-.9-.8-1.6-1.9-1.6-2.5 0-.7.3-.6.9.2.6 1 1.3.8 3.2-.7 2.2-1.9 3.9-2.6 3.9-1.8zm71 1.7c0 2.1-1.5 2.7-2.5 1-.4-.6-1.1-.8-1.6-.5-.5.4-.9.2-.9-.4 0-.5.6-1.2 1.3-1.4 2.5-1.1 3.7-.6 3.7 1.3zm-68-.4c0 .3-.7 1.2-1.5 2-1.6 1.7-1.8 1.4-.9-1 .6-1.5 2.4-2.3 2.4-1zm90.5.4c.3.5.1 1-.4 1-.6 0-1.1-.5-1.1-1 0-.6.2-1 .4-1 .3 0 .8.4 1.1 1zm-111.9 1.5c.8 2-2.4 5.1-3.7 3.8-.7-.7-.6-1.7.3-3.2 1.5-2.5 2.6-2.7 3.4-.6zM869 256c0 .5-.7 1-1.5 1s-1.5-.5-1.5-1c0-.6.7-1 1.5-1s1.5.4 1.5 1zm-45.3.6c-.3.3-1.2.4-1.9.1-.8-.3-.5-.6.6-.6 1.1-.1 1.7.2 1.3.5zm25.3.8c0 2.1-2 3-3.3 1.7-.9-.9-.8-1.4.3-2.1 2.1-1.4 3-1.2 3 .4zm-73.8 2.8c-1.2 1.2-4.2.4-4.2-1.1 0-1.2 4.4-1.9 4.9-.8.2.5-.1 1.3-.7 1.9zm-19.8-.3c1.7 1.8 1.7 2-.1 3-1.6.9-1.6 1.2-.3 2.1.9.6 1 1 .3 1-1.9 0-2.5-1.8-1.2-4.1.8-1.5.8-1.9 0-1.5-1.4.9-3.3-.2-2.6-1.5.9-1.4 2-1.1 3.9 1zm111.1-.9c-.3.5-1.4 1-2.3.9-1.4 0-1.3-.2.3-.9 2.7-1.1 2.7-1.1 2 0zM744 260c0 .5-.4 1-1 1-.5 0-1-.5-1-1 0-.6.5-1 1-1 .6 0 1 .4 1 1zm17.4.5c-.4.8-1 1.5-1.4 1.5-.4 0-.8.6-.7 1.2.1 3.4-.5 5.5-2.3 7.6-1.6 1.9-2.3 2.1-4 1.2-1.1-.6-2-1.5-2-2.1 0-.6.5-.7 1-.4 1.4.9 1.3-.8-.2-2.3-.8-.8-.8-1.2-.1-1.2.6 0 1.6.7 2.3 1.5 1.1 1.3 1.4 1.3 2.5-.2.7-1 1.1-2.1.9-2.5-.6-.9 2.5-5.8 3.7-5.8.5 0 .6.7.3 1.5zm20.6.9c0 .8-.6 1.7-1.2 1.9-1 .4-.9.8.2 1.6.8.5 1.1 1.3.7 1.7-.8.9-3.7-1.4-3.7-3 0-1.4 2-3.6 3.2-3.6.4 0 .8.6.8 1.4zm-32.4 2.8c.5.8 0 .9-1.5.5-1.8-.4-2-.3-1.1.8.7.8.9 1.9.5 2.4-.3.7 0 .8.9.5 1.8-.7 2 .4.6 2.6-.6 1-.3 2.1 1.1 3.6l1.9 2.1-3-.2c-1.6-.1-3.8-.9-4.8-1.8s-2.3-1.3-3-.8c-1 .6-.5 1.5 1.9 3.5s2.9 3 2 3.9c-.8.8-1.1.7-1.1-.6 0-.9-.4-1.7-1-1.7-.5 0-3.3-2.2-6.2-5-2.9-2.7-4.8-5-4.1-5 .6 0 1.5.5 1.8 1.1.4.5 1.5-.6 2.6-2.6s1.7-4 1.4-4.5c-.4-.6.5-1 1.9-1 4 0 3.3 3-1.4 6.4-1.6 1.2-1.8 1.6-.7 1.2 1-.3 2.5-.6 3.2-.6.8 0 2-1.8 2.6-4 1-3.3 1.5-3.8 3-3 1 .6 2.1 1.5 2.5 2.2zm1.9-2.2c.3.5-.1 1-.9 1-.9 0-1.6-.5-1.6-1 0-.6.4-1 .9-1 .6 0 1.3.4 1.6 1zm18.7 1.7c-.6.3-.9.9-.6 1.5.3.5 1.4.2 2.5-.8 1-.9 1.9-1.2 1.9-.6s-.4 1.4-1 1.7c-.5.3-1 1.1-1 1.7 0 .6.9.3 2-.7 1.5-1.4 2-1.5 2-.4-.1 4.3-4 4.8-7.5.9-1.8-2-1.8-2.1.1-3.4 1-.8 2.1-1.2 2.4-.9.3.3-.1.8-.8 1zm-33.9 1.4c-.6 2.2-1.4 2.4-3.2.6-1.1-1-1.2-.9-.6.2.5.9.3 1.2-.6.9-.8-.3-1.5-1.2-1.7-2-.2-1.2.5-1.6 3.1-1.6 2.9 0 3.4.3 3 1.9zm42.7 2.8c0 .5-.7 1.4-1.5 2.1-1.2 1-1.5 1-1.5-.2 0-.8.3-1.8.7-2.1.9-1 2.3-.9 2.3.2zm6.6 2.7c-.9.6-1.3 1.5-.8 1.8 1.4.9.2 5.8-1.4 5.2-.7-.3-1.5 0-1.8.7-.2.7-.5-.3-.5-2.2-.1-3.4 3.4-8.2 5.3-7.3.5.3.1 1.1-.8 1.8zm-5.9.9c-.7 1.3-1.4 2-1.5 1.4-.5-1.4.6-3.9 1.7-3.9.5 0 .4 1.1-.2 2.5zm-6.7 0c1 1.2 1 1.5 0 1.5-.9 0-.9.4.1 1.7 1.2 1.5 1.2 1.6-.5 1-1.4-.6-1.6-.5-.8.5.7.9.6 1.7-.4 2.6-1.2 1.1-1.4.9-1.4-1 0-1.3.4-3 1-3.8.5-.9.5-1.9-.2-2.7-.7-.8-.7-1.3 0-1.3.5 0 1.5.7 2.2 1.5zm16.7 1.1c-.9.9-2.8-.6-2.1-1.8.4-.6 1-.6 1.7.1.6.6.8 1.3.4 1.7zm-36.2 1.4c.3.5.2 1-.4 1-.5 0-1.3-.5-1.6-1-.3-.6-.2-1 .4-1 .5 0 1.3.4 1.6 1zm23.5-.6c0 .3-.4.8-1 1.1-.5.3-1 .1-1-.4 0-.6.5-1.1 1-1.1.6 0 1 .2 1 .4zm11.8 2.5c.3.8-.1 1.2-.9.9-.7-.2-1.5-1-1.7-1.7-.3-.8.1-1.2.9-.9.7.2 1.5 1 1.7 1.7zm-9.8-.2c-.1 2-1.6 3.1-3 2.2-1.3-.8-1.3-1 0-1.9 1.8-1.2 3-1.3 3-.3zm-4 4.3c-.8.5-1.9 1-2.5 1-.5 0-.3-.5.5-1s2-1 2.5-1c.6 0 .3.5-.5 1z"/><path d="M817.5 126c.3.5 1.1 1 1.6 1 .6 0 .7-.5.4-1-.3-.6-1.1-1-1.6-1-.6 0-.7.4-.4 1zM804.2 154.6c.4 2.3 2.7 3.1 2.4.8-.2-1-.8-2-1.5-2.2-.8-.3-1.2.3-.9 1.4zM771.5 164c-.3.6.1.7.9.4 1.8-.7 2.1-1.4.7-1.4-.6 0-1.3.4-1.6 1zM799 165.6c0 1.2.6 1.5 2.3 1 1.2-.3 3.1-.6 4.2-.6 1.7 0 1.7-.2.5-1-2.5-1.6-7-1.2-7 .6zM813.7 169.7c-2.6 1.1-3.5 1.8-2.6 2.4 1.4.8 6.9-1.6 6.9-3.1 0-1.2.4-1.3-4.3.7zM793.5 170c.4.6 1.1.8 1.6.5 1.4-.9 1.1-1.5-.7-1.5-.8 0-1.2.5-.9 1zM842.4 175.6c-1.8 1.5-1.8 1.5 0 1 1.6-.5 1.7-.4.7.8-.7.9-2.2 1.8-3.3 2.2-1.5.5-1.7.8-.8 1.4.9.6-.1 1.2-3 2-3.2.9-4 1.4-2.9 2.1 1 .6.6.9-1.5.9-2.4 0-2.7.3-1.8 1.2 1 1 .8 1.6-1 3-1.9 1.4-2 1.8-.6 1.8.9 0 2.6-1.4 3.8-3 1.2-1.7 3.1-3 4.3-3.1 2-.1 2-.2-.3-.9-1.5-.5-1.8-.8-.8-.9.9-.1 2.3.2 3.2.5 2.1.8 1.1 5-1.9 8.4-1.2 1.4-2.5 4.3-2.8 6.5-.6 3.9-.6 4 .6 1 2-5 3.8-7.6 4.7-7 .5.3 1.2-2.7 1.6-6.6.5-5.8 1-7.3 2.5-7.6 1.2-.3 1.9-1.4 1.9-2.9 0-2.8-.1-2.9-2.6-.8zM827 176c0 .5.7 1 1.6 1 .8 0 1.2-.5.9-1-.3-.6-1-1-1.6-1-.5 0-.9.4-.9 1zM827 179c-1.3.8-1.2 1 .3 1 .9 0 1.7-.5 1.7-1 0-1.2-.1-1.2-2 0zM859 182.9c0 .6.4 1.3 1 1.6.6.3.7-.1.4-.9-.7-1.8-1.4-2.1-1.4-.7zM844.1 189.6c-1.2 1.5-2.1 3.1-2.1 3.7 0 .6 1.1-.4 2.5-2.3s2.5-3.5 2.5-3.7c0-.9-1.1 0-2.9 2.3zM843.6 195.6c-.4.9-.4 1.9-.1 2.2.2.3.7-.3 1.1-1.2.4-.9.4-1.9.1-2.2-.2-.3-.7.3-1.1 1.2zM846.7 196.4c-.4.9-.2 1.8.3 2.1.6.4 1 2.1 1.1 3.8l.1 3.2.8-2.8c1-3.1-1.3-9.1-2.3-6.3zM844.6 200.5c-.9 2.6-.7 3.2.5 1.2.6-1 .9-2.1.6-2.3-.2-.3-.7.2-1.1 1.1zM849.4 146.5c-1 .8-1.4 1.5-.8 1.5.6 0 1.7-.7 2.4-1.5 1.6-1.9.9-1.9-1.6 0zM848.5 153.1c-1 1.5.3 2.5 1.6 1.2.7-.7.7-1.3.1-1.7-.6-.3-1.4-.1-1.7.5zM737.6 159.9c-1 1.1-1.6 2.6-1.3 3.3.4 1 .6 1 .6 0 .1-.7 1.6-2.1 3.4-3.2 2.6-1.7 2.8-2 1.1-2-1.1 0-2.9.9-3.8 1.9zM739 163.5c0 .8.2 1.5.4 1.5s.6-.7 1-1.5c.3-.8.1-1.5-.4-1.5-.6 0-1 .7-1 1.5zM754.5 159c-.8 1.3.5 1.3 2.5 0 1.3-.8 1.3-1-.2-1-.9 0-2 .4-2.3 1zM765.5 181c1 1.1 2.5 2 3.3 2 .9 0 .6-.7-1.1-2-1.4-1.1-2.9-2-3.3-2-.4 0 .1.9 1.1 2zM780 189.4c0 .2.7.7 1.6 1 .8.3 1.2.2.9-.4-.6-1-2.5-1.4-2.5-.6zM747.5 178c.3.5 1.4 1 2.3 1 1.5 0 1.5-.2.2-1-2-1.3-3.3-1.3-2.5 0zM750.7 192.1c.7.7 1.5 1 1.8.7.3-.3-.2-.9-1.2-1.2-1.4-.6-1.5-.5-.6.5zM675.4 186.8c.4.7 1.7 1.2 3 1.2s3.1.9 4.1 2c2.1 2.4 7.5 2.7 7.5.5 0-2.1-3-3.4-9.6-4.1-4.2-.5-5.5-.4-5 .4zM778.8 198.7c.7.3 1.6.2 1.9-.1.4-.3-.2-.6-1.3-.5-1.1 0-1.4.3-.6.6zM775.7 200.1c.7.7 1.5 1 1.8.7.3-.3-.2-.9-1.2-1.2-1.4-.6-1.5-.5-.6.5zM812.3 200.7c.9.2 2.3.2 3 0 .6-.3-.1-.5-1.8-.5-1.6 0-2.2.2-1.2.5zM942.2 226.9c-2.2 1.4-.3 5.9 4.1 9.6 2.2 1.9 4.4 3.5 4.8 3.5 1.1 0-2.2-10.3-3.9-12.3-1.7-1.9-3-2.1-5-.8zM790.3 219.7c-1.8.7-1.6 4.3.2 4.3s2-2 .3-2c-.8 0-.5-.7.6-1.5 1.9-1.5 1.4-1.9-1.1-.8zM877.8 216.7c.7.3 1.6.2 1.9-.1.4-.3-.2-.6-1.3-.5-1.1 0-1.4.3-.6.6zM828.2 224.7c.2 1 1.1 1.9 2.1 2.1 2.4.5 2.1-1.5-.4-2.8-1.8-1-2-.9-1.7.7zM840.5 225.1c-.4.6-.4 1.3-.1 1.6.3.4.6.1.6-.6 0-.8.5-.9 1.9-.1 1.1.5 2.6 1 3.3 1 .7 0 0-.7-1.6-1.5-3.4-1.8-3.3-1.8-4.1-.4zM818 226c0 .5.5 1 1.1 1 .5 0 .7-.5.4-1-.3-.6-.8-1-1.1-1-.2 0-.4.4-.4 1zM784.3 231.4c.5 1.6 2.7 1.9 2.7.3 0-.7-.7-1.4-1.5-1.4-.9 0-1.4.5-1.2 1.1zM743 269.9c-.8.6-1.7.8-2.1.5-.4-.2-1 0-1.3.5-.3.5.1 1.1.9 1.5.8.3 1.5 0 1.5-.6s.7-.5 1.8.5c1.6 1.4 1.7 1.4 1.8-.9.2-2.6-.3-2.9-2.6-1.5zM911.3 106.3c.4 2.7 0 4.2-1.9 6.8-3 4.2-2 5.4 1.2 1.4 1.4-1.8 2.4-4.3 2.4-6.3 0-1.7 0-3.5.1-3.9 0-.4-.5-.9-1.2-1.2-.9-.3-1 .6-.6 3.2zM355.8 108.5c-.6 1.4-1.4 2.5-1.8 2.5-1.3 0-3 5.1-3 9 0 3.2-.4 4-1.8 4-1 0-2.3-.5-3-1.2-.9-.9-1.9-.7-4.2 1.1-2.7 2-3.4 2.1-6.5 1-4.5-1.7-17.7.4-16.8 2.7.3.9-.2 1.4-1.5 1.4-1.1 0-4.9.9-8.3 2-5.5 1.7-6.5 1.7-7.2.5-2.1-3.8-11.4-5.8-15.9-3.4-1.6.9-2.4.7-4.1-.9-1.2-1.1-4.1-2.5-6.5-3.2-4.1-1-4.5-.9-10.2 2.6-8.6 5.3-9.7 6.7-8.1 10.7.7 1.8 1.6 4.5 1.9 6.2.4 2.8.4 2.9-1.4 1.5-3.7-3.1-9-4.2-13.4-2.9-4.8 1.5-6.4 3.1-5.5 5.7.5 1.8.8 1.8 3.5-.9 1.6-1.7 3.9-2.9 5.4-2.9 4.3 0 3.9 1.9-.8 4-2.5 1-4.6 2.1-4.6 2.3 0 .2 3.8.2 8.5.1 4.7-.2 8.5.1 8.5.5 0 1.6-3.3 2.1-6.6 1.1-4.2-1.4-5.4-.7-5.4 3.1 0 1.6-.5 2.9-1.1 2.9-.7 0-.9 1-.5 2.4.5 1.9 0 2.9-1.6 4-2.5 1.8-8.5 2.1-10.8.5-1.1-.7-.5-.8 2.2-.3 4.6.8 6.6-.3 4.1-2.1-1.3-.9-2.2-1-3-.3-1 .8-1.3.6-1.3-.6 0-1.1-.4-1.4-1.2-.9-3.2 2-5.4.9-7.3-3.5-2.3-5.6-1.3-7.5 4.1-8.2 3.7-.5 3.8-.6 1.7-1.8-2.8-1.6-4.8-1.5-8.2.3-3.9 2-4.4 4-2.1 8.5 1.1 2.2 2 4.4 2 5 0 3.1-10.4-1.1-14-5.7-2.4-3-2.4-8.1 0-9.4.8-.5 4.2-1.9 7.5-3.1 5-1.9 6-2.7 6.3-5 .4-3.5-2.9-5.8-7.3-5.1-4.3.7-5.3-1.2-2.4-4.3 1.2-1.3 1.8-2.4 1.2-2.4-1.7 0-6.5 6.2-5.6 7.1.4.4 3.3.9 6.3 1.1 5.1.3 5.5.5 5.8 3 .4 3-1.2 4.1-6.8 5.2-7.1 1.4-9 2.6-9 5.8 0 3.9 2.2 8 6.1 11.2 5.1 4.3 2.8 3.9-5.4-1-10.6-6.3-13.5-6-19.6 2-2.4 3.2-5.8 6.4-7.5 7.2-2.9 1.2-2.9 1.3-.7 1.4 1.7 0 4.3-1.9 8.7-6.5 4.2-4.4 7-6.5 8.6-6.5 1.3 0 5.7 2.1 9.8 4.6 7.9 4.8 8.5 4.9 19.5 2.9 4.5-.8 9.4 3.7 10.2 9.2.5 4 .7 4.1 4.9 4.8 2.5.3 4.2 1 3.9 1.6-.9 1.4-18.4 1-24.5-.6-6.3-1.7-13-2-13-.5 0 .5 1.1 1 2.4 1 1.3 0 5.3.7 8.7 1.6 3.8 1 8 1.4 10.8 1 5.1-.6 11.7.6 13.5 2.4.8 1-1.7 1.1-11.4.6l-12.5-.6 9 2.5c5 1.4 10.6 2.7 12.5 3l3.5.5-3.7-1.3c-6.5-2.2-5.5-3 3.2-2.4 9.1.5 14.4 1.8 17.5 4.1 1.9 1.4 1.9 1.5-.5 1.9-1.4.3-5.7 1.2-9.6 2.1-8.7 1.9-8.9 2-7.5.2 1-1.2.3-1.7-4-3.1-3-1-6.5-1.5-8.5-1.2-2 .4-3.2.2-2.9-.4.6-.9-1.8-1.2-9.6-.9-3.1.1-5-.4-5.8-1.4-1.5-1.7-11.8-2.2-15.6-.7l-2 .8 2 .6c1.1.3 4.1.8 6.6 1.2 5.5.7 8.2 2.4 7 4.3-.7 1.1-3.2 1.2-14.3.2-13.5-1.3-34.4-.6-31.8 1 2.5 1.5.5 2.7-3 1.7-1.9-.5-2.9-1.2-2.2-1.4 1.9-.7.3-2.3-2.3-2.3-1.7 0-2.9.9-3.9 2.9-1.4 2.6-1.9 2.8-6 2.4-2.5-.3-8.4-.2-13.3.2-8.4.8-8.6.9-4.8 1.7 2.2.6 10.3.8 18 .5 15.2-.5 19.7 0 17.3 2-.9.8-2.6.9-5.3.3-5.3-1.2-25.5-.1-25.2 1.4.1.6-1 1.2-2.5 1.4-2.2.3-2.8-.1-2.8-1.6s-1.1-2.2-4.4-3.1c-5.5-1.3-6.6-2.8-2.9-3.6 1.5-.3 5.5-1.2 8.8-2 3.3-.8 8-1.6 10.5-1.8 2.5-.2.2-.4-5-.5-5.9-.1-9 .2-8.1.7 1 .6-.4 1.1-4.3 1.6-7 .9-8.2 2.8-4 6.2 5.6 4.7 10.3 6.3 18.9 6.2 14 0 27.2-2.3 35-6l7-3.4 23.5.1c18.4 0 24.3.3 27.3 1.5l3.8 1.5-4.9 3.2c-4.2 2.7-5.9 3.2-11 3.2-5.2 0-6.2.3-6.7 2-.7 2.2-2.1 2.6-2.7.8-.6-1.8-6.8 4.6-6.8 6.9.1 1.7.1 1.7 1.5-.1 2-2.6 2.9-1.5 1.4 1.8-1.1 2.3-1 2.8.6 4 1.2.8 1.4 1.5.7 2-.6.3-1.8-.4-2.6-1.6-.9-1.2-1.6-1.8-1.6-1.2 0 1.9 4.1 5.5 7.1 6.1 1.6.3 2.6.9 2.4 1.4-1 1.5-9.3 2.1-13 .9-6.6-2.2-16.5-12.8-16.5-17.6 0-2.4 2.6-4.4 5.6-4.4 1.3 0 1.4.3.5 1.4-1 1.1-.6 2.7 1.8 7.3l3 5.8-.6-5c-.8-7.4-2.3-9.9-5.8-10.3-2.5-.2-3.6.5-6.8 4.2-4.9 5.9-4.8 8.3.2 5.7 1.4-.8 2.1-.4 3.4 2.2.9 1.8 2.4 4.2 3.3 5.4 1.5 2.1 1.5 2.3 0 2.3-3.1 0-.7 1.7 3.2 2.4 2.2.3 5.1 1.5 6.6 2.7 2 1.6 3.6 2 6.1 1.6 7.6-1.2 11.4-4.2 21.8-17 5.7-7 7.9-5.9 6.1 3.1-.5 2.4-1.5 3.4-4.4 4.6-8.6 3.4-17 13.9-17 21.1 0 2.2.7 5.1 1.6 6.3 1.8 2.6 6.5 5.2 9.3 5.2 1.1 0 3.2 1.1 4.7 2.5 3.7 3.4 14.8 9.5 17.4 9.5 1.5 0 2.4-.9 3.2-3.1.8-2.2 1.5-2.8 2.7-2.3 3.4 1.4 6.1 1.6 9.5.4 3-1 3.6-1.6 3.6-4.1 0-3.3.5-3.4 4-1.4 3.3 1.9 6.2 1.8 12.3-.3 3.7-1.2 5.1-1.4 5.4-.5 1.9 5.5 8.4 8.3 19.2 8.3 6.9 0 9.1.6 9.1 2.7 0 .8 1.3 2.8 2.9 4.4 4 3.9 10 4.1 13.8.3 2.2-2.2 2.4-3.1 1.9-6.6-.8-4.7.5-6.8 4.1-6.8 4.5 0 9.2-2.7 9.8-5.7 1.6-7.5 1.9-7.6 9.6-6.9 4.7.4 6.8.3 6.4-.4-.4-.6.6-1 2.4-1 2.7 0 3.3-.6 5.7-6 1.5-3.4 3.5-6.5 4.4-7 2.6-1.4 8.7.6 9.3 3 .4 1.4 1.4 2 3.4 2 4.2 0 5.3 1.7 5.3 7.8 0 4.8.2 5.3 1.8 4.7 2.1-.9 10.2-1.7 8.5-.9-2.3 1-1.4 2.5 1.2 1.8 1.4-.3 3.2-.3 4.1 0 1.4.5 1.2 1.2-1.1 5.2-3 5.1-2.5 7.1.8 3.3l2.2-2.6 3.5 1.9c1.9 1 2.8 1.8 2 1.8-1.1 0-1.2.2-.3.8 2.8 1.7-3.1 5.2-8.8 5.2-1.6 0-4.3-1-5.9-2.2-2.6-1.9-3-2.8-3-6.9 0-2.6-.4-5.1-1-5.4-1.7-1-2.3 4.5-1.4 12.4l.9 7.6h5.5c4.2 0 6.1-.5 8-2.2 11.2-9.7 12.3-10.3 14.2-8.6 1 .9 2.8 3.2 3.9 5 3 4.9 5.2 5.7 9.5 3.7 5.8-2.8 14.1-11 17-17 2.6-5.4 2.9-10.7.9-15.7-.5-1.3-.2-1.7 1.3-1.7 5.6 0 9.9-8.9 8.1-16.8-.5-2-.9-4-.9-4.3 0-.7 7-2.9 9.2-2.9.8 0 2.3.6 3.4 1.4 1.9 1.4 1.9 1.5-.2 3.8-5.8 6.3-5.7 9.4.7 16.4 4.4 4.8 5 6 4.7 9.2-.2 2.8-1 4.1-3.6 5.8-1.8 1.3-3.3 2.6-3.4 3.1 0 .4-.9 1.4-1.9 2.1-4.9 3.4-.1 11.3 5.8 9.6l2.8-.8-2.5-.4c-3.2-.5-5-2-5-4.2 0-1.8 6.1-7.9 9.9-10 1.6-.8 2.1-2 2.1-5.5 0-2.4-.4-4.6-.9-4.9-.5-.4-.7.4-.4 1.6.4 2.2.3 2.2-1.1-.2-.8-1.4-1-2.7-.5-2.8.5-.2-1.1-2.6-3.6-5.4-4.6-5.2-5.5-7.7-3.2-9.7 1.6-1.3 2.7-.5 2.7 1.9 0 1 2.3 3.9 5.1 6.6 5.9 5.7 7.4 8.3 8.4 14.4.8 5.2 4.7 10 8.2 10 2.3 0 11.3 4 11.3 5 0 .3-1.1 2.1-2.5 4-6.5 8.8 0 14.5 13.7 12 6.3-1.2 13.8-4.6 13.8-6.3 0-.4.9-.5 2-.2 2 .6 2.8-.9 1-2-.5-.3-1-2.8-1-5.5s-.4-5.1-.9-5.4c-1.4-.9-1.9 1.4-1.4 6.4.3 2.9 0 5.1-.9 6.1-1.6 2-18.7 6.2-21.3 5.3-3.1-1.1-5.5-3.5-5.5-5.5 0-1 1.8-3.3 4-5 2.2-1.8 4-3.8 4-4.5 0-.6-.9-3.1-1.9-5.5-2.1-4.7-2-5.9.8-5.9 1 0 2.6-.9 3.7-2.1 1.8-2 1.8-2-.9-1.4-2.7.7-3.2.2-2.8-3.5.5-3.8 1.1-3.9 6.2-.5 5.3 3.6 6.5 4 8.6 2.7.9-.6.1-1.4-2.5-2.5-2-.9-5-3.3-6.5-5.2-2.6-3.3-2.8-3.9-1.7-6.6 1.5-3.5 3.7-4.9 7.9-4.9 1.7 0 3.1-.5 3.1-1.1 0-.8-1.3-.9-4.1-.5-5.9.9-7.6 2.1-10 6.8l-2.1 4.1-4.1-4.1-4.1-4.2 2-2.7c1.2-1.6 3.5-3.6 5.2-4.6 4-2.4 12.9-3.3 17.4-1.8 4.1 1.4 8 5.1 6.1 5.8-1.6.6-1.7 2.3-.2 2.3.6 0 2.7 1.4 4.6 3 2.9 2.6 3.7 2.9 5.5 1.9 1.8-.9 2.4-.8 3.5.7.7 1 1.3 3 1.3 4.6 0 2.1.5 2.8 2 2.8 1.9 0 1.9 0 0-4.6-1.1-2.5-2-5.8-1.9-7.2 0-2.3.2-2.1 1.3 1.3 3.2 10.2 9.3 17.8 17.5 21.9 8.2 4.2 15 4.6 18.5 1 1.1-1.1 2.5-1.4 4.6-.9 3.9.8 3.8 2-.1 3.4-4.9 1.7-15.1 1.3-22.1-.9-7.4-2.3-6.8-2.2-6.8-1.2 0 1.5 4.9 3.2 10.8 3.8 3.1.3 6.7.7 8 1l2.3.5-2.8 3.5c-3.5 4.7-4.5 14.1-1.8 19 2.3 4.4 7.4 6.8 12.5 5.9 4.8-.8 11.4-5.4 14-9.8 2.2-3.5 2.6-9.7 1-12.8-1.8-3.2-2.8-2.1-2.3 2.1.5 3.2.2 4.4-1.3 5.5-1.5 1.1-1.6 1.5-.4 1.5 1.2 0 1.1.3-.3 1.1-2.6 1.5-3.1.5-1.8-3.2.6-1.8 1.1-5.3 1.2-7.8 0-2.5.3-4 .6-3.3.2.6.9.9 1.4.6.6-.4.6-1.1-.1-1.9-.9-1.1.3-2.1 6-5 7-3.5 31.6-13.5 33.4-13.5.4 0 .6 1.4.4 3-.4 2.7-.2 3 2.4 3 2.7 0 2.8-.2 2.8-4.8 0-5.3 3-11.2 5.6-11.2 1 0 1.4.5 1 1.5-.8 2.3 2.4 8.4 4.7 8.7 2.4.3 3.6 2.8 1.4 2.8-.8 0-3.4 1.3-5.8 3-2.4 1.6-5.4 3-6.6 3-1.9 0-2.3.6-2.3 3.2v3.1l1.9-2.2c1.8-2.1 2.3-2.2 5.5-1.1 3 1 3.8.9 5.1-.4.9-.8 2.2-1.3 3-1 .8.4 2.3.3 3.3-.1 3.2-1.2-1.1-2.6-4.9-1.5-5.1 1.5-5.8-.5-1.1-2.9 4.9-2.5 5.6-2.6 4.8-.6-.4 1.1.1 1.5 1.9 1.5 1.8 0 2.5.5 2.5 1.9s1 2.1 3.7 2.6c2 .3 4.9 1.9 6.5 3.5 1.8 1.9 2.8 2.3 2.8 1.4 0-1.9-4.5-6.1-7.4-7-2.8-.9-7.6-4.3-7.6-5.5 0-.5 2.3-.9 5-.9 6.4 0 12.5-2.4 11.6-4.5-.3-.9-1.5-4.7-2.7-8.6-1.3-4.2-2.8-7.3-4-8-1-.5-1.9-1.8-1.9-2.9 0-1.7-.9-1.9-6.7-2.2l-6.8-.3-.4-4c-.2-3.2-.5-3.6-1.1-2-.6 1.4-.9.2-.9-3.8-.1-3.6-.6-5.9-1.3-6.2-.9-.4-1.2-2.2-1-5.5.2-2.8.2-5 0-5-1.4 0-6.8 3.3-6.8 4.1 0 .5 1.1.9 2.5.9 3.5 0 3.1 1.6-.6 2.4-5 1-7.1.7-8.4-1-1.1-1.6-1.7-1.6-8.5 0-8.8 2-9 2-9 .2 0-.8-1.6-2-3.5-2.6-4.1-1.4-4.5-2.5-1-3.4 2.4-.6 3.6-2.6 1.6-2.6-.5 0-1.1-1-1.3-2.3-.3-1.8-1-1-3.4 3.8-1.9 3.8-4 6.5-5.9 7.5-1.7.9-4.4 4-6.1 7.1-2.1 3.7-3.6 5.3-4.9 5.2-1-.1-2.4.5-3.2 1.3-2.4 2.4-6.3 2.8-9.9 1.1-1.9-.9-3.4-2.4-3.4-3.2 0-.9.4-1.4.9-1 .5.3 1.3 0 1.7-.6.3-.6.2-1.4-.4-1.8-1.6-1 1.2-8.8 4.8-13.2 2.1-2.7 2.6-3.9 1.8-4.7-1.5-1.5-1-1.9 2.7-2.6 2.6-.6 2.7-.5.8.3-3.2 1.4-2.8 2.1 1.2 2.1 2.8 0 3.5-.4 3.5-2 0-1.5.7-2 2.5-2 1.4 0 2.5-.5 2.5-1 0-1.3-3.4-1.3-8.2.2-2.9.8-4.2.8-5 0-.8-.8-1.9-.5-4 1.3-3.2 2.7-4.8 3.2-4.8 1.4 0-.5-.4-.8-.9-.5-2.5 1.6-15.3-9-17.8-14.5-1.6-3.8-2.7-4.7-3.6-3.2-.3.5.8 3.6 2.3 7 2.1 4.6 3.6 6.6 5.7 7.4 5.1 2 5.8 2.6 6.1 4.9.3 2 .1 2.2-2.5 1.6-1.5-.4-9.1-1.4-16.8-2.2-19.1-2.1-18.2-1.9-19-5.6-.4-1.8-1.7-5.8-3-8.8-1.2-3-2.5-6.8-2.9-8.3l-.7-2.8 4.8.6c6.8.9 12.9-1.2 16.2-5.4l2.6-3.5-2.4.7c-1.4.3-3.1.1-3.8-.5-1.8-1.5-1.6-7.3.3-8.9 1.4-1.1 1.9-.9 3.5 1.1 1.3 1.8 1.9 2 1.9 1 0-2-2-4-3.9-4-.9 0-2.7 1.2-4 2.5-1.8 2-2.1 2.8-1.2 3.9.9 1.1.9 1.9 0 3.4-1 1.7-1.7 1.8-4.1 1-3.3-1.2-3.3-1.1-1.2-4.4.9-1.3 1.5-2.6 1.3-2.7-2.5-1.8-6.3-2.6-7.9-1.7-2.6 1.4-3 1.3-3-.8 0-1.8 2.9-5.2 4.3-5.2.4 0 .8 1 .8 2.2.1 1.7.2 1.9.6.5.4-1.4 1.6-1.7 6.5-1.7 7.8 0 6.7-1.2-2-2.1-7.9-.8-11.7.8-15.2 6.9l-2.2 3.6-4.1-4.4c-11-11.8-25.7-14.5-34.7-6.3-8.9 7.9-7.7 22.3 2.3 29.1 5.2 3.6 5.8 4.7 4.8 9.3-.6 3.1-1 3.4-3.9 3.1-2.3-.3-3.2.1-3.2 1.2 0 .8 1 1.6 2.3 1.8 1.7.2 2.3 1.1 2.5 3.7.5 5.2-.5 7.8-5.1 12.8-4.2 4.6-11.3 10.3-12.8 10.3-.4 0 .3-1.1 1.6-2.5 2.2-2.1 3.5-6.5 1.9-6.5-1.3 0-4.4 2.2-4.4 3.1 0 .6.5.7 1 .4.6-.3 1-.3 1 .2-.1 1.6-8.8 6.3-11.6 6.3-3.6 0-2.2-1.5 3.1-3.3 2.1-.8 4.1-1.9 4.3-2.6.3-1 0-1-1.6-.2-1.1.6-2.7 1.1-3.4 1.1-.7 0 1.6-1.6 5.2-3.5s8.5-5.3 11-7.6l4.5-4-6 3.7c-10 6.3-14.6 8.7-15.2 8-.7-.6 2.9-3.9 9.7-8.9 2.9-2.1 4.6-4.2 4.8-5.7.2-2.3.1-2.4-1.1-.8-2 2.5-2.4 2.2-1.9-1.1.7-4.9-1.7-17.3-4.7-23.6-3.6-7.8-7.1-11.9-12.6-14.5-2.7-1.3-4.5-2.9-4.5-3.9 0-2-2.9-6.3-3-4.4 0 2.3-2 1.3-2-1 0-2.9 1.5-5.1 2.9-4.3.7.5.9-.2.5-2.1-.3-1.8.1-3.5 1.1-4.8 1.5-1.9 1.5-1.5.9 5-.5 5.5-.4 6.8.6 5.8 1.3-1.2 1.7-16.3.5-18.3-.3-.5-2.4-1-4.6-1-2.2 0-5.2-.6-6.7-1.4-1.5-.7-4.3-1.6-6.3-1.9-3-.4-4.1-.1-5.7 1.6-4.8 5.1-5.4 12.5-1.7 19.9 1.4 2.8 2.4 5.2 2.3 5.3-7.8 5.3-10 8.2-11.2 14.7-.4 2.1-1.2 3.8-1.9 3.8-2 0-8.6-10.5-9.7-15.5-1.2-5.5-2.9-9.1-3-6.4-.1 6 6.6 19.3 12.5 24.9l2.5 2.3v-2.8c0-5.5 2.4-11 6.8-15.3 2.4-2.4 4.6-4.2 4.9-3.9.3.3-1.1 2.2-3.1 4.1-3.7 3.8-6.6 11.3-6.6 17.3 0 3.3.6 3.8 3.4 2.7 2.3-.9 2-2.6-.4-1.9-2.4.8-2.6-1.6-.9-8 1.1-3.8 6.6-10.5 8.7-10.5.6 0 2.1 1.8 3.3 4 1.3 2.2 2.5 4 2.8 4 .4 0 1.4-2.3 2.4-5 2.2-6 3.5-6.3 12.2-2.1 9 4.2 14.9 12.4 17.4 23.9 1.2 5.8 1.5 15.1.5 17.7-.8 1.9-5.5 4.5-8.5 4.5-1.6 0-1.9-.4-1.4-1.8 2-4.9 2.4-7.8 1.5-11.2-1.2-4.3-3.4-6.6-7.3-7.6-1.7-.4-3.3-1.7-4-3.3-3.1-7.4-7.9-8.9-13.3-4.2-2.7 2.4-4.1 2.9-8 2.8-3.7 0-5.1.5-6.5 2.1-2.1 2.7-2.9 2.7-11.2.1-7.7-2.4-10-1.7-12.2 3.5-.8 1.7-3.6 5.3-6.4 8-4.5 4.1-5.6 4.7-8.9 4.4-2.4-.2-3.7-.8-3.8-1.8-.2-3.3-.7-3.3-1.3 0-.5 2.9-1.4 3.9-5.1 5.7-2.4 1.3-3.8 2.3-3.1 2.3.7 0-1.2 2.9-4.2 6.3-3.1 3.5-5.9 7.5-6.2 8.8-.4 1.7-1.3 2.4-3 2.4-1.4 0-2.5-.6-2.5-1.3 0-.6-.9-1.2-2-1.2-1 0-2.5-.7-3.2-1.6-.7-.9-3.2-3.7-5.5-6.3-2.4-2.7-4.3-5.8-4.3-7 0-1.2-.9-3.1-2-4.3-1.6-1.8-2.7-2-7.5-1.5-3 .3-5.5.4-5.5.2s1.1-1.5 2.5-2.9 2.5-3.6 2.5-5 .5-2.8 1-3.1c.6-.4 1 1 1 3.4 0 4 1.4 6.1 3.1 4.4.5-.5.5-2.2 0-4-1.1-3.8-.3-4.6 5.5-6.2 4.5-1.2 9.3-5.4 7.4-6.6-.6-.4-4.5-.4-8.5 0-5.5.5-7.5 1.1-8 2.3-.3.9-.1 1.8.4 2 .6.2 1.1.8 1.1 1.3 0 1.1-5 1.2-6.9 0-1.1-.7-.9-1 .8-1.6 3.2-1 2.5-2.5-.9-1.9-2.6.6-3 .4-3-1.5 0-1.4-.6-2.1-1.9-2.1-2 0-8.5-6.6-9.5-9.7-.3-1-1.9-2.7-3.6-3.6-1.6-1-2.7-2.3-2.4-3 .2-.7-.7-2.8-2.1-4.7-1.4-1.9-2.5-3.9-2.5-4.5 0-.9 6.7-3.2 15.5-5.2 1.7-.3 3.5-1.2 4-2 1.5-2 10.8-2.8 14.5-1.3 2.5 1 3 1.8 3 4.6 0 2.7-.3 3.2-1.7 2.7-1.5-.5-1.6-.3-.5.8 1.7 1.8 1.5 4.6-.4 5.3-2.5.9-3.1.8-6.3-2-1.7-1.4-3.1-2.2-3.1-1.6 0 1.3 3.1 3.9 6.3 5.1 3.5 1.4 3.4 2.4-.5 5.5-1.8 1.4-3 2.8-2.6 3.1.3.3 2.6.7 5.1.8 2.5.1 4.3.5 4.1.9-.2.3.2.8.8 1.1 1 .4 1.1.7.1 1.8-1 .9-1.3 1-1.3.1 0-.7-.9-1.2-2-1.2-2.3 0-2.6 1-.8 2.8.8.8 4.5 1.2 10 1.2 6.5 0 8.9.4 9.5 1.4.9 1.5 12.5 4.6 17.4 4.6 2.6 0 2.9.3 2.9 3.4 0 4 .8 6.6 2.1 6.6.5 0 .9-.6.9-1.4 0-.8 1.2-1.7 2.6-2 1.4-.4 4.7-2.2 7.4-4 2.7-1.9 6.5-3.7 8.4-4 1.9-.4 3.8-1.1 4.1-1.5.8-1.4-7.8 0-10 1.5-1.1.8-3.5 2.6-5.4 3.9-2 1.5-4.7 2.5-6.5 2.4-2.9-.1-3-.1-.6-.8 2.4-.7 2.4-.7.5-1.8-3.3-1.9-.5-3.7 3.8-2.5 2.8.8 3.9.7 4.8-.4.9-1.2.5-1.4-2.8-1.4-2.1 0-4.9-.7-6.2-1.6-2.2-1.6-2.3-1.6-1.6.6.5 1.6.4 2.1-.6 1.8-.8-.3-1.5-2.2-1.7-4.2-.4-4.1 1.8-7.5 4.7-7.7.9 0 .3-.7-1.4-1.4l-3-1.3 2.5-.5c2.3-.4 2.3-.4.3-.6-1.3 0-2.3-.4-2.3-.7 0-.3 2.1-2.5 4.8-4.9 5.1-4.7 5.3-6.6.3-4.1-3.5 1.9-5.3 4.4-7.1 9.8-1.2 4.1-2.5 4.8-3.4 2-.3-.9-.3 0 0 2 .5 4.2 0 4.6-3.6 2.1l-2.4-1.7 2.4-.7c2.3-.6 2.4-.7.5-1.3-10-3.7-11.6-5.3-13-13.5-.6-3.8-.5-4.3.9-3.8 2.1.8 2.2-2.6.1-4.3-2-1.6-1.8-7.4.3-13 2-5.1 4.3-6.1 7.5-3.2 1.2 1.1 4.5 3.1 7.4 4.6 2.8 1.4 5.5 3.1 6 3.8.4.7 1 4.4 1.4 8.1.8 8.7 2.9 11.4 2.9 3.8 0-9.4-1.7-13.7-6.7-17.1-2.4-1.7-5.3-3-6.3-3-1.1 0-3.5-1.4-5.3-3-4.2-3.7-5.4-3.7-6.9-.5zm88.3 5.6c1.5.7 1.9 1.4 1.1 1.7-.6.2-1 .8-.7 1.3.7 1-1.2 4.9-2.4 4.9-.7 0-6.1-9.1-6.1-10.3 0-.7 5.1.8 8.1 2.4zm-165.8 13.2c1.8.8 3.8 2.1 4.6 3 1.4 1.8 1.8 7.2.7 9.7-.3.9-.1 2.4.7 3.3 1.2 1.7 1.4 1.7 3.2-.4l2-2.2-2.2.7c-1.7.5-2.3.3-2.3-.8 0-.8.5-1.8 1-2.1.6-.4.8-1 .5-1.5-1.5-2.4 7.6-2.3 13 .2 2.7 1.2 4.1 6.8 1.8 6.8-.8 0-2.2.7-3 1.6-1.2 1.1-2.7 1.4-5.2 1-2-.3-5.5-.6-7.8-.6h-4.2l.6-3.4c.5-3.1.3-3.4-1.5-2.9-1.3.3-1.8 1-1.5 1.9.3.8-.1 1.4-1 1.4-1.5 0-2.7-2.4-3.3-6-.1-.8-.5-3.6-.9-6.3-.9-5.2-.4-5.5 4.8-3.4zm19.2 3.4c2.6 1.5 2 1.9-4.2 2.7-3.4.4-5.3.3-5.3-.4 0-.5.5-1 1-1 .6 0 1-.5 1-1.1 0-.6-1-.8-2.2-.5-1.5.4-1.3.1.6-.8 3-1.4 5.5-1.1 9.1 1.1zm201.2-1c-.4.3 2.4 2.1 6.1 3.9 7.6 3.8 7.5 3.8 6.7 2.4-.3-.6-.2-1 .4-1 1.2 0 1.2 3.7-.2 7.3-1 2.7-1.3 2.8-5.4 2.2-5.5-.8-8.2.1-9.3 3-1 2.7-.2 9.7 1.1 8.9.5-.3.9-.1.9.4s-2 1-4.5 1c-3.6.2-5-.3-7.6-2.6-1.7-1.5-3.4-4.3-3.9-6.2l-.8-3.5-.1 3.2c-.2 4.7.6 5.9 6.2 9.5 3.6 2.3 4.6 3.4 3.4 3.6-2.7.5-7.8-3-9.8-6.8-2.9-5.3-2.4-14.5.7-13.3.9.3 1.4-.1 1.4-1.2 0-2.7 6.4-8.5 9.4-8.5 1.5 0 2.9-.7 3.2-1.5.4-.8 1.1-1.5 1.7-1.5.6 0 .7.3.4.7zm7.3 1.9c0 .2-.7.4-1.5.4s-1.5-.4-1.5-1c0-.5.7-.7 1.5-.4.8.4 1.5.8 1.5 1zm-20 2.9c-1.3 1.4-2.6 2.2-2.9 1.9-.3-.3.5-1.4 1.8-2.5 3.3-2.7 3.9-2.4 1.1.6zm-37.3 3.1c.2.7-.6 1-2.1.7-1.4-.3-2.3-1-2-1.5.8-1.2 3.6-.6 4.1.8zm89.8 4.4c.7 1.1-1.2 5-2.4 5-.5 0-1.9-.9-3.2-1.9l-2.4-2 2.5-1c3.3-1.3 4.7-1.3 5.5-.1zm-32.1 4.3c1.7 1.2 1.7 1.4.2 2-.9.4-1.6 1.4-1.6 2.3 0 1-.5 1.4-1.5 1.1-.8-.4-1.7-.1-2.1.5-.9 1.4-2.4-1-2.4-3.9 0-1.9 1.3-2.8 4.6-3.2.5 0 1.8.5 2.8 1.2zm-265.4.1c0 .3-.4.8-1 1.1-.5.3-1 .1-1-.4 0-.6.5-1.1 1-1.1.6 0 1 .2 1 .4zm54.8 3.2c2.5 1.8 2.9 4.4.6 4.4-.8 0-1.2.5-.9 1.1.4.6-.1 1.7-1.1 2.4-1.8 1.4-1.8 1.4.4 1.5 1.2 0 2.2.4 2.2 1 0 .5-.7 1-1.5 1s-1.5.4-1.5.9c0 .9-4.4 2.1-9 2.4-1.4.1-3.3 1.1-4.2 2.2-1.6 1.9-1.5 2.2 1.4 5.2l3.1 3.2-3.5.6c-3.8.7-8.3-1-10.9-4.1-1.3-1.6-1.2-1.7.9-1.1 1.8.4 2.2.2 1.8-1-.3-.8-.6-2.1-.6-2.9 0-.8-.6-1.1-1.5-.8-2.3.9-1.9-3.2.6-5.7 1.3-1.3 2.7-1.8 4-1.4 1.6.5 1.9.1 1.9-2.9 0-4.2 1.2-5 6.2-4.7 3.8.2 5.3-1.4 2.1-2.2-1-.3.2-.5 2.7-.6 2.7-.1 5.5.5 6.8 1.5zm-71 1.1c-.9 1-1.8 2.5-2.1 3.3-.4 1.2-.6 1.2-.6-.2-.2-2.7 1-4.8 2.7-4.8 1.4 0 1.4.2 0 1.7zm77.2-.7c0 .5-.2 1-.4 1-.3 0-.8-.5-1.1-1-.3-.6-.1-1 .4-1 .6 0 1.1.4 1.1 1zm-35.6 3c.5 0 .6-.7.2-1.5-.8-2.2 1.1-1.8 3.5.6 1.4 1.4 2.9 1.9 4.5 1.6 1.3-.2 2.1 0 1.8.4-.3.5-2.6.9-5.2.9-4.7 0-9.2-2.1-9.2-4.2 0-.6.8-.4 1.8.5 1 1 2.2 1.7 2.6 1.7zm39.6-2c0 .5-.7 1-1.6 1-.8 0-1.2-.5-.9-1 .3-.6 1-1 1.6-1 .5 0 .9.4.9 1zm71 0c0 .5-.7 1-1.5 1s-1.5-.5-1.5-1c0-.6.7-1 1.5-1s1.5.4 1.5 1zm-17.4 2.5c2 1.4 5 2.5 6.5 2.5 1.8 0 2.9.5 2.9 1.4 0 .7.7 1.9 1.5 2.6.8.7 1.5 1.7 1.5 2.2 0 1.5-4.2-.2-9.1-3.8-4.6-3.4-7.9-4.3-7.9-2.4s-3 1-6.2-2l-3.3-2.9 5.2-.1c3.9 0 6.1.6 8.9 2.5zm3.9-1.4c1.2 1.9-.5 2.3-2.2.6-1.6-1.6-1.6-1.7-.1-1.7.9 0 2 .5 2.3 1.1zm146.5.4c0 .8-.7 1.5-1.5 1.5-1.6 0-2-1.2-.8-2.3 1.1-1.2 2.3-.8 2.3.8zm11.8 1c2.1 1.8 4 5.4 6.7 12.7 2.1 5.6 3.8 11.2 3.8 12.5 0 1.7.5 2.3 2.1 2.3 1.1 0 4.3.7 7 1.5 2.8.9 8.8 1.5 14.1 1.5 11 0 15.5.8 15.5 2.6 0 .9 1.1 1.4 3 1.4 2 0 3 .5 3 1.5 0 1.8.2 1.8-8 0-3.6-.8-8.3-1.4-10.5-1.3l-4 .1 4.2.6c5.4.9 6.7 2.1 2.2 2.1-2.6 0-3 .3-1.9 1 .8.5 3 1 4.8 1 1.7 0 3.2.4 3.2.8 0 .5-1.4.6-3.1.4-2.2-.3-3-.1-2.5.7.4.6 1.7 1.1 2.9 1.1s2.9.5 3.7 1.1c1.5 1-24.2.6-32-.6-3.1-.5-3.2-.4-1.1.5 3.3 1.4 2 2.3-2.3 1.5-2-.4-3.6-1.3-3.6-2.1 0-1-1.2-1.2-4.7-.8-2.7.4-6.4.2-8.3-.4-3.1-.8-3.3-1-1.5-1.8 1.1-.4 2.5-1.4 3.1-2.3.9-1.1 4.6-1.7 15.5-2.3 19.9-1.1 23-1.7 7-1.3-7.4.1-14.4-.1-15.6-.7-1.5-.7-3.5-.4-7.3 1.1-6.8 2.7-8.3 2.6-5-.4 1.5-1.3 5.3-2.9 8.5-3.7l5.8-1.3-5.5-.7c-3-.3-7.9-.6-10.8-.7-4.6-.1-5.4-.4-6.1-2.5-.9-2.2-2.9-3.6-5.4-3.6-.6 0 0 1.1 1.2 2.4 3 3.2 2.4 5.7-1.9 7.8-1.9 1-4.5 3-5.7 4.5l-2.2 2.7.4-4c1.5-14.1 1.8-15.9 2.5-13.4l.6 2.5.7-2.5c.4-1.4.7-3.9.7-5.6 0-3.2 2.8-5.4 6.9-5.4 1 0 3.7-2.8 6.5-6.5 5.5-7.5 8.3-8.3 13.4-4zm18.1-1.3c1.1 1 1.4 1 1.8 0 .6-1.7 6.3-1.6 6.3.1 0 1.7-4.2 3.7-7.6 3.7-1.3 0-4.9-.9-7.8-1.9l-5.4-1.9 1.5 3.5c.8 1.9 1.3 4.5 1.1 5.7-.3 1.8-.7 1.5-2.5-1.9-4.4-8.5-4.4-8.5 3.9-8.5 4.6 0 7.9.5 8.7 1.2zm-232.1 3c.9 1.1 2.5 2.9 3.5 4 .9 1 1.3 1.8.7 1.8-.5 0-1 .4-1 1 0 .5.9 1 2.1 1 1.1 0 1.7.4 1.4 1-1 1.6-4.2 1.2-8.5-1-2.2-1.1-4.5-2-5.1-2-.7 0-.5.8.6 2 1 1.1 1.4 2 .8 2-1.9 0-4.4-3.7-3.7-5.6.7-1.9 5.3-6.4 6.7-6.4.4 0 1.5 1 2.5 2.2zm-48.8 2.7c0 .5-.8 1.5-1.7 2-1.7 1-1.7 1 0 1.1.9 0 1.7.4 1.7 1 0 .5-.7 1-1.6 1-1 0-1.4.6-1 1.5.7 2-1.5 1.9-5.8-.3-4.4-2.1-5-3.5-2.8-6.2 3.2-4 11.2-4.1 11.2-.1zm5.4-2c.9 1 2 3.2 2.5 4.8.7 2.4.5 3.2-1 4.1-1.5 1-2.1.8-3.4-1-1.6-2.4-2.1-9.8-.7-9.8.5 0 1.6.8 2.6 1.9zm243-.1c.7 1.2-4.3 5.8-7.1 6.7-3.3.9-2.8 0 1.3-2.5 3.7-2.3 4.1-4 .5-2-2.6 1.3-2.9-.4-.3-1.9 2.1-1.3 4.9-1.4 5.6-.3zM447 162c1.9 1.9 2.4 3.6 2.1 7.1-.1 1.1.6 1.4 3.2 1.1 2.5-.3 3.9.2 5.9 2.3 4.8 4.7 4.9 11.2.2 13.3-4 1.9-5.7 1.4-8.3-2.3-2.7-4.1-1.9-6.2.9-2.5 2.3 2.9 2.5 2.3.8-1.7-1.7-3.7-4.8-6.4-6.7-5.8-1.9.5-4.1-3.5-4.1-7.4 0-2.1-.2-2.3-1-1.1-.8 1.2-1 1.1-1-.6 0-4.4 4.6-5.8 8-2.4zm-125.6.9c.8 1.3-.3 1.9-2.4 1.4-1.1-.3-1.7-.9-1.4-1.4.7-1.1 3.1-1.2 3.8 0zm-26.9 2.1c-.3.5-1.1 1-1.6 1-.6 0-.7-.5-.4-1 .3-.6 1.1-1 1.6-1 .6 0 .7.4.4 1zm46.2 1.7c.2.6-.5 1.3-1.7 1.6-1.2.3-2 0-2-.7 0-2.6 2.9-3.3 3.7-.9zm96.1.5c1.1 1.3 2.5 3.5 3.1 5 1 2.7.9 2.8-2.4 2.8-1.8 0-3.7-.5-4.1-1.2-.5-.8-1-.6-1.5.8-.7 1.9-.7 1.9-1.5-.1-.4-1.1-1.2-2.3-1.7-2.6-.5-.4-.6-2.1-.2-3.8.5-2.5 1.1-3.1 3.4-3.1 1.6 0 3.7 1 4.9 2.2zm-188.1.7c.3 1.2 1.7 2.1 3.9 2.6 1.9.3 3.2 1 2.9 1.6-.4.5-1.7.6-3.1.3-1.6-.4-3.1-.1-4.3 1-2.2 2-11.1 1.2-11.1-1.1 0-4.7 10.6-8.7 11.7-4.4zm165.6 1.3l3.2 3.2-3.3.8c-2.3.6-3.8.5-4.8-.3-1.3-1.1-1.4-.8-.8 1.6.6 2.3.4 2.6-.7 1.9-.8-.5-2.5-.9-3.9-.9-2.1 0-2.5-.4-2.3-2.9.5-6.9 7.3-8.8 12.6-3.4zM257.5 168c.3.5-.1 1-.9 1-.9 0-1.6-.5-1.6-1 0-.6.4-1 .9-1 .6 0 1.3.4 1.6 1zm44.5.5c.7.8.9 1.5.4 1.5-.4 0 .3 1.1 1.6 2.5 2.4 2.6 2.6 2.4-2.5 4-.9.2-3.4-.1-5.5-.9-3.6-1.2-4-1.2-4 .3 0 .9.3 2.1.8 2.7.4.5-.1.1-1-.9-2.3-2.4-2.3-6.5-.1-8.9 2-2.2 8.5-2.4 10.3-.3zm22.8.6c1.6.5 3.2 1.9 3.5 2.9 1.1 4.3-6.8 9.9-11.5 8.1-2.2-.9-2.2-1 .5-1 1.5-.1 3.7-1 4.9-2l2-2-3.6.2c-3.3.2-5.2 1.6-2.3 1.8.9 0 .8.2-.1.6-.8.3-2.7-.7-4.3-2.3l-2.9-2.8 2.2-2.3c2.4-2.5 6.5-3 11.6-1.2zm101 2.9c-.3 4-1.4 5.2-2.4 2.7-.5-1.4 1.1-6.7 2.1-6.7.3 0 .4 1.8.3 4zm-5.1-1.5c0 .8-.4 1.2-.9.9-.4-.3-.8-.9-.8-1.5 0-.5.4-.9.8-.9.5 0 .9.7.9 1.5zm-153.5 1.3c-2 1.6-2.2 2-.9 3 .8.7 1.7 2.6 1.9 4.2.4 2.7.2 2.8-2.5 2.5-1.7-.2-3.5-.9-4-1.4-1.6-1.6-3.1-1.3-1.8.3.8.9.8 1.6.2 2-1.1.7-4.1-3.1-4.1-5.4 0-1.3-.2-1.3-1 0-.5.9-.5 1.9.2 2.7 1.1 1.4.8 1.6-1.5.7-1.8-.6-1.2-3.7 1.1-5.7 1.7-1.5 10.2-4.4 13.2-4.6 1 0 .7.6-.8 1.7zm41.8 3.6c0 .3-.4.8-1 1.1-.5.3-1 .1-1-.4 0-.6.5-1.1 1-1.1.6 0 1 .2 1 .4zm96.6 5.4c2.4 3.7 1.2 4.5-2.6 1.7-2.6-1.9-4.2-2.4-6.2-1.9-3.4.7-3.5-.2-.7-3.3 2.1-2.2 2.3-2.2 5.1-.5 1.6.9 3.6 2.7 4.4 4zm16.4-4.3c3.5 1.8 6.2 6.5 5 8.5-.4.7-.6 1.8-.4 2.5.3.7-.7 1-3.1.7-2.1-.3-3.5 0-3.5.7 0 .6 1.5 1.1 3.3 1.1 4 0 4.6.5 4 3.1-.8 2.9-2.2 2.3-7.5-3.1-2.6-2.7-4.8-4.5-4.8-3.8 0 .7 1.1 2.4 2.5 3.8l2.5 2.6-3.6.1c-3 .1-3.9-.4-5.5-3-2.2-3.6-2.5-9.6-.6-11.9 2.4-3.1 7.3-3.6 11.7-1.3zm-131.9 2.2c1.1 1.3 1.1 1.7.2 2-.7.3-1.3 1.4-1.3 2.5 0 1.6.5 1.9 2.5 1.6 2.8-.6 3.4.6.9 1.6-3.3 1.3-7.8.6-10.1-1.6-2.3-2.1-3.4-1.3-1.1 1 1.3 1.3.5 2.7-1.1 1.7-.6-.3-1.1-1.7-1.1-3.1 0-1.4-.4-2.2-1-1.9-1.8 1.1-1 3.7 2.1 6.6 1.7 1.6 2.6 2.9 1.9 2.9-.6 0-.8.5-.3 1.2 1.2 2 1.2 3.7.1 4.4-.6.4-1.3.2-1.7-.3-.3-.5-2.2-1.4-4.1-2l-3.5-1 3.7-.8c3.6-.7 3.7-.8 1.8-2.4-6.1-5.1-.7-13.5 9.1-14 .9-.1 2.3.6 3 1.6zm154.7 1.9l3.6 3.6-2.3 1.9c-2.6 2.1-4.7 2.4-5.6.9-.3-.5-1.6-1.5-2.8-2.2-2.1-1.1-2.1-1-.6 1.3.9 1.3 3 2.9 4.7 3.6 2.8 1.1 3.3 1.1 5.1-.8l1.9-2.1.7 2.3c1.5 4.5-6.4 6.6-12.6 3.3-3-1.5-5.9-6.5-5.9-10 0-3 3.1-5.4 6.8-5.4 2.6 0 4.3.9 7 3.6zm-38.9 6c1.2 1.5 2.1 4 2.1 5.6v3l-3.5-2.2c-3.4-2.1-4.7-1.6-2.3.8.9.9.9 1.2 0 1.2-.7 0-2.1-1.5-3.2-3.3-2-3.3-2.8-2.1-1 1.4 1.5 2.8-.5 2.5-3.5-.6-4.2-4.1-2.9-7.7 3.2-9.4 3.3-1 5.4-.1 8.2 3.5zM515 183c0 .5-.4 1-1 1-.5 0-1-.5-1-1 0-.6.5-1 1-1 .6 0 1 .4 1 1zm-203.5 1c1 1.7-4.2 4.1-8.2 3.8-2.8-.2-3.9-.8-4.1-2.2-.4-1.7 0-1.8 3.4-1.3 2.2.4 4.6.2 5.4-.3 1.9-1.2 2.7-1.2 3.5 0zm80.2-.4c-.3.3-1.2.4-1.9.1-.8-.3-.5-.6.6-.6 1.1-.1 1.7.2 1.3.5zm118.1.6c-.3.7-2.2 2.3-4.4 3.5-2.1 1.3-3.2 2.3-2.3 2.3.8 0 2.4-.7 3.5-1.5 2.6-2 3.3-1.9 2.7.5-.4 1.6 0 2 1.8 2.1l2.4.1-2.5.8c-3.8 1.2-14.3 6.1-15.8 7.3-2.6 2.1 1.4 2.7 21 2.7 12.5 0 20.6.4 22.2 1.1 1.6.8 3.2 3 4.6 6.5 1.2 2.9 2.8 5.8 3.6 6.5 1.7 1.4 1.7 1.9-.1 4.3-1.4 1.8-1.6 1.7-6.7-2.1-7.8-6-11.3-7.4-17.5-7.4-7.2 0-20.3 5.8-20.3 9.1 0 1.5-.6 2-2.5 2-2.7 0-3-.9-1.6-5.8.8-2.8.5-4.2-2.4-10-3.5-6.8-4.3-10.2-2.5-10.2.6 0 .8-1 .4-2.4-.7-3 1.1-6.6 3.4-6.6.9 0 3.1-.9 4.7-2 3.4-2.2 8.9-2.7 8.3-.8zm81.2-.2c0 .5-.2 1-.4 1-.3 0-.8-.5-1.1-1-.3-.6-.1-1 .4-1 .6 0 1.1.4 1.1 1zm-266 2.4c-4.2 1.1-4.3 1.3-2 2 3.9 1.2 0 1.9-4.2.7-2.9-.8-3-.9-.8-1 2.4-.2 2.4-.2.6-1.6-1.8-1.4-1.4-1.5 4.5-1.4l6.4.1-4.5 1.2zm64.6-.6c1.1.7 1.7 7.2.7 7.2-.4 0-1.5-.7-2.5-1.7-1.1-.9-1.8-1.1-1.8-.5 0 .7-1.5 1.2-3.5 1.2-3.7 0-4.2-.7-2.2-3.2 2.5-3.2 6.9-4.6 9.3-3zm-89.6 4.4c0 .6-.7.5-1.5-.2s-1.5-1.7-1.5-2.2c0-.6.7-.5 1.5.2s1.5 1.7 1.5 2.2zm10.6-.6c-1.1.8-3.1 1.4-4.5 1.4-2.3 0-2.1-.3 1.4-1.9 4.4-2 6.1-1.7 3.1.5zm275.9-1.6c.4.6-.6 1-2.2.9-2.5 0-2.6-.1-.8-.9 1.1-.5 2.1-.9 2.2-.9.1-.1.5.3.8.9zm-294.5.5c0 .2-1.3 1.1-3 2-1.6.9-3 1.2-3 .7s1-1.4 2.3-2c2.5-1.2 3.7-1.4 3.7-.7zm168.1 1.9c1.2 2.6.5 7.6-1.1 7.6-.5 0-1.9-1.9-3.1-4.1-1.7-3.4-1.8-4.3-.7-5 2.3-1.5 3.8-1 4.9 1.5zm-8.4.8c-.3.8-.6.5-.6-.6-.1-1.1.2-1.7.5-1.3.3.3.4 1.2.1 1.9zm-225 0c1.8.7 3.3 1.5 3.3 1.9 0 1.1-5.8 1.9-9 1.2-2.9-.5-3-.7-1.4-2.4 2-2.2 2.7-2.3 7.1-.7zm206.2 3.6c.2-2.5 5.6-.8 5.6 1.8 0 1.5-.7 1.9-3.7 1.9-3.2 0-3.5.2-2.3 1.5 3.7 4 6 15 3.5 16.5-.6.4-3.6-1.5-6.7-4.2-4.9-4.2-5.5-4.5-4.9-2.3l.7 2.5-2-2.4c-4-4.5-2-13.1 3-13.1 1.2 0 2.5-1.3 3.6-3.8l1.6-3.7.7 3.5c.4 1.9.8 2.8.9 1.8zM315 192c0 .5-.7 1-1.6 1-.8 0-1.2-.5-.9-1 .3-.6 1-1 1.6-1 .5 0 .9.4.9 1zm10.5 0c-2.8 1.2-6.5 1.2-6.5 0 0-.6 1.9-1 4.3-.9 3.2 0 3.7.2 2.2.9zm-89.4 1.3c-.1.4-.1 1.4-.1 2.2 0 .8-.4 1.5-.9 1.5s-.8-1.1-.7-2.5c0-1.4.5-2.4.9-2.2.5.1.8.6.8 1zm342.6-.7c-.3.3-1.2.4-1.9.1-.8-.3-.5-.6.6-.6 1.1-.1 1.7.2 1.3.5zm-167 2.9c-.4.8-1.1 1.5-1.7 1.5-.7 0-.7-.6 0-2.1 1.3-2.3 2.6-1.9 1.7.6zm-197-.9c-.3.3-1.2.4-1.9.1-.8-.3-.5-.6.6-.6 1.1-.1 1.7.2 1.3.5zm52.1.3c1 .6.8 1-.9 1.4-2.9.8-10.9-.3-10.9-1.4 0-1.1 10.1-1.1 11.8 0zm56.4.8c2.7 2.4 2.2 4-1.4 4.6-1.8.3-4.1.8-5 1.2-1.4.6-1.8.2-1.8-1.5s.4-2.1 2-1.7c2.5.6 3.8-1.1 1.5-2-1-.3-3 .2-4.6 1.1-3.1 1.8-3.9.7-1.3-1.8 2-2.1 8.3-2 10.6.1zm14.8-.7c0 .6-1.6.8-4.2.4-5.9-.9-6-1.4-.5-1.4 2.6 0 4.7.5 4.7 1zm48.8.7l2.1 1.8-2.3 4.2c-1.7 3.2-2.6 3.9-3.4 3.1-.9-.9-1.2-.8-1.2.3-.1 1-.5.9-1.5-.5-1.1-1.5-1.5-1.6-1.5-.5 0 .8.5 2 1.2 2.7.9.9.9 1.2-.3 1.2-.8 0-2-.9-2.7-2.1-.7-1.2-1.6-1.8-1.9-1.5-.3.3 0 1.2.7 2.1.9 1 .9 1.5.1 1.5-1.9 0-3.4-4.6-2.7-8.4.5-2.5 1.4-3.7 3.4-4.4 4.2-1.6 7.8-1.4 10 .5zm68.2.3c2.3 2.3 2.7 8.2.7 9.9-1.6 1.3-2.8.5-2-1.5.4-1-.3-1.4-2.1-1.4s-3 .7-3.6 2.2c-.8 2.1-.9 2.1-1 .3-.1-1.9-.1-1.9-1.5-.1-2.3 3.1-3.5 1.5-2-2.9 1.5-4.2 5.6-8.5 8.1-8.5.8 0 2.3.9 3.4 2zm33.6-.1c2.2-1.8 1.8 1.4-.3 3.3-2.2 1.9-7.3 3.2-7.3 1.9 0-.5 1.2-2.4 2.7-4.2 2.3-2.7 2.9-2.9 3.1-1.5.3 1.3.7 1.5 1.8.5zm84.4-1c0 .5-.9.7-2 .4-1.1-.3-2-.7-2-.9 0-.2.9-.4 2-.4s2 .4 2 .9zm-393.7.8c-.7.2-1.9.2-2.5 0-.7-.3-.2-.5 1.2-.5s1.9.2 1.3.5zm53.7-.3c0 .9-4 1.3-4.6.5-.3-.5.6-.9 2-.9s2.6.2 2.6.4zm94.5.6c.3.5.1 1-.4 1-.6 0-1.1-.5-1.1-1 0-.6.2-1 .4-1 .3 0 .8.4 1.1 1zm89.6 1.3c-1.3 1.3-2.6.3-1.6-1.2.3-.6 1.1-.8 1.7-.5.6.4.6 1-.1 1.7zm225.4-1.3c.3.5.1 1-.4 1-.6 0-1.1-.5-1.1-1 0-.6.2-1 .4-1 .3 0 .8.4 1.1 1zM444 198.5c-.7.9-1.5 1.3-1.8 1-.3-.2.1-1.1.8-2 .7-.9 1.5-1.3 1.8-1 .3.2-.1 1.1-.8 2zm-200.5-.5c1.7.7 1.5.9-1.2.9-1.8.1-3.3-.4-3.3-.9 0-1.2 1.7-1.2 4.5 0zm396.5 0c0 1.5-4.5 4-8.4 4.7-4.6.7-4.8-1-.3-3.7 3.3-2.1 8.7-2.7 8.7-1zm-239.3 1.4c.1.1-.3 2.2-.9 4.6-1.1 4.4-2.8 7.6-2.8 5.2 0-1.9-5.8-1.4-6.9.5-1.6 2.8-3-.2-2.1-4.4 1.3-5.6 3.7-7.5 8.5-6.7 2.2.3 4.1.7 4.2.8zm13.3-.4c0 .5-.4 1-1 1-.5 0-1-.5-1-1 0-.6.5-1 1-1 .6 0 1 .4 1 1zm127 0c0 .5-.4 1-.9 1-.6 0-1.3-.5-1.6-1-.3-.6.1-1 .9-1 .9 0 1.6.4 1.6 1zm-211.3.6c-.3.3-1.2.4-1.9.1-.8-.3-.5-.6.6-.6 1.1-.1 1.7.2 1.3.5zm80.8.8c3.7 1.6 7.5 6.7 7.5 10.2 0 2.5-1.8 4.4-4.4 4.4-1.9 0-1.9-.1-.1-1.3 1.7-1.3 1.6-1.5-1.3-2.5-1.8-.6-3.2-1.6-3.2-2.1 0-.6-.5-1.1-1.1-1.1-.6 0-.8.9-.4 2 .5 1.5.2 2-1.1 2-1.7 0-1.7.1-.1 1.7 1.5 1.6 1.9 1.6 2.7.3.5-.8 1.2-1.1 1.6-.8.3.4-.1 1.4-1 2.3-1.2 1.2-2 1.3-3.5.6-2.3-1.3-3.5-4.2-2-5.1.6-.5.3-.9-1-1.3-2.8-.7-2.8-6-.1-8.7 2.4-2.4 3-2.4 7.5-.6zm157 .2c.8-.3 1.7-.1 2 .4.4.6 1.7 1 3.1 1 1.3 0 2.4.5 2.4 1 0 1.7-12.3.8-13.7-1-2-2.4-1.5-3 1.7-1.8 1.7.5 3.7.8 4.5.4zm46.3-.4c-.2.7.7 1.4 2 1.6 1.2.2 2.2.8 2.2 1.3s3.6.9 8 .9c8.1 0 9.3.6 6.4 3.4-2.2 2.3-6.3 3.1-9.5 1.9-2.6-1-2.8-.9-3.3 2.2-.7 3.5.7 8.5 2.3 8.5.6 0 1.4-.7 1.9-1.7.6-1 1.6-1.4 2.6-1 2.4.9 2 2.7-.6 2.8-2.1.1-2.1.2-.3.6 1.1.3 2.4.9 3 1.4 1.4 1.4 2.2 1.1 2.8-1.1.6-2.5 3.5-2.6 5.3-.3 1.2 1.7 1.4 1.6 3.8-.6 1.5-1.4 3.8-4.5 5.2-7 3.2-5.6 8.3-11.1 10.2-11.1 1.5 0 1.4 1.3-.4 9.9-.5 2.5-.4 3.2.4 2.7 3.4-2.1-.4 6-5.9 12.6-3.1 3.7-3.9 5.5-3.9 8.7 0 2.2-.5 4.3-1.1 4.7-.9.5-1-.6-.5-4.1.7-4.4.6-4.7-1.1-4.1-1 .4.5-1.6 3.2-4.5 4.3-4.4 4.6-4.9 2-3.6-1.6.8-4.1 2.7-5.5 4.2-1.4 1.5-3.8 3.6-5.5 4.7l-3 2 3-.7c2.3-.5 2.7-.4 1.9.5-1.4 1.4-8.1 3-8.7 2.1-.2-.3-.2 0 0 .7.3 1.3-8.4 5.8-9.4 4.8-.3-.2 1.2-1.3 3.3-2.2 2.6-1.1 3.3-1.8 2.3-2.1-.9-.2-4.2.8-7.4 2.2-10.8 4.7-12.5 3.4-12.5-10.1 0-11.1 1.5-15.8 6.5-21.1l4.1-4.2-2.8-1c-1.8-.7-2.8-1.7-2.8-3 0-1.2.5-2.1 1-2.1.6 0 .9.6.8 1.2zm31 2.8c-.1 1.6-.5 3-1 3s-.6-.5-.3-1c.9-1.5-.7-1.2-4.8 1-4.4 2.4-4.8 1-.8-3.1 4-3.9 7-3.9 6.9.1zm8.2-1c-3.1 2.4-4.4 2.5-6.1.4-1.2-1.5-1-1.6 1.8-1 1.8.4 3.4.3 3.8-.3.3-.6 1.2-1.1 1.8-1.1.7 0 .1.9-1.3 2zm-371.5.6c2.2.3 4.4.9 5 1.2.5.3 2.6.5 4.5.3 4-.3 5.4.9 6.4 5.1.4 1.9.2 2.8-.6 2.9-3.7.5-5.4.3-6-.6-.5-.6-1.2-.5-1.7.5-1.3 1.9-2.1 1-2.4-2.9-.2-3.3-.7-3.7-2.4-2-.9.9-1.9.6-3.9-1-1.5-1.1-3.8-2.1-5.3-2.1-2.5 0-2.5.1.8 1.8 1.9.9 4.3 2.9 5.4 4.4 1.8 2.4 1.8 3 .7 5.8-1.3 3.1-1.3 3.1-3.4 1.2-1.2-1.1-2.7-1.7-3.3-1.5-.8.3-1.3-.4-1.3-1.6 0-1.4-.6-2.1-1.9-2.1-2.4 0-4.5-2.5-3.7-4.6.4-1.1.2-1.5-.8-1.1-.7.3-3.5.9-6.2 1.3-2.7.3-6.6 1.5-8.7 2.6-3.1 1.5-5 1.8-9.3 1.2-3.7-.4-5.4-1.1-5.4-2.1 0-2 4.9-6.2 7.9-6.9 1.4-.3 3.1-.7 3.6-.9 1.5-.5 27.4.4 32 1.1zM496 210c.7 2.7.8 4.6.1 5.8-1 1.6-1 1.5-1.1-.3 0-1.1-1.1-4.4-2.5-7.3-1.4-3-2.5-5.9-2.5-6.5.1-2.4 5 4.5 6 8.3zm-188.2-6.6c4.5 2.3 6.4 5.1 6 8.8-.3 2.9-.7 3.3-3.3 3.5-1.6.1-2.4 0-1.7-.3 2.5-1.1 1.1-3.4-2.8-4.4-2.7-.7-4.5-1.9-5.2-3.5-2.2-4.9 1.3-7 7-4.1zm20.6 0c3.8 1.6 5.2 4.5 3.7 7.4-.6 1.1-.7 2.3-.3 2.7.4.5-.2.5-1.3 0-1.1-.4-3.5-1-5.2-1.3-2.7-.3-3.3-.9-3.4-3.1-.1-1.7-.3-2-.6-.9-.5 1.9-2.3 2.5-2.3.7 0-.6.5-2 1.2-3.2 1-2 1-2.1-.6-.8-.9.8-2 1.1-2.4.7-1-1.1 2.8-3.6 5.5-3.6 1.3 0 3.9.6 5.7 1.4zm15.9.8c.7 2.6-1.6 7.4-4.2 8.8-3.5 1.8-4.8 1.2-5.4-2.8-.3-2-.8-4.5-1.2-5.4-.7-1.7-.8-1.7 8.6-2.6 1-.1 1.9.7 2.2 2zm27.1 2.6c-.1 5.2-1.9 7.5-3.8 4.9-.7-.9-1.6-1.7-2-1.7-.3 0-.6.8-.6 1.7-.1 1.7-.1 1.7-1.1.1-1.3-2.4-.1-6.5 2.5-8.3 3.5-2.5 5.1-1.5 5 3.3zm113.1-3.3c-1.1.8-2.5 1.9-3.1 2.4-.8.6-1.6.5-2.3-.2-.9-.9-.4-1.5 2.1-2.4 4.5-1.6 5.7-1.5 3.3.2zm-249.3.7c-1.5 1.5-1.6 3.2-.2 2.3 1.2-.7 1.3 1.5.2 3.3-.7.9-1.3.8-2.6-.7-1.5-1.6-2.3-1.8-4-1-1.4.7-1 0 1.2-2 1.8-1.7 4-3.1 4.9-3.1 1.3 0 1.4.3.5 1.2zM560 206c5.2 1.1 12.3 2 15.7 2 5.9 0 9.3 1.5 9.3 4.1 0 1.4 3.2 1.1 10.2-1.1 8.2-2.5 9.4-1.6 7.2 5.5-1.2 3.9-1.4 7.3-.9 15.2l.7 10.3-3 3c-3.5 3.5-6.4 3.8-9.2 1-1.5-1.5-1.9-2.7-1.3-4.8 1.3-4.9-.5-17.8-2.8-19.3-5.8-4-12.1-5.2-13.3-2.7-.5 1-.7 1-1.2 0-1-2.2-2.3-1.3-2.7 2l-.3 3.3-1.3-3.1-1.2-3.1-3 2.8c-2.9 2.7-2.9 2.9-2 8.6 1.7 10.4 5.2 16.3 9.7 16.3 2.3 0 4.1 1.6 3 2.7-1.4 1.5-6.6-1.4-11.4-6.3-6.2-6.3-8.9-11.9-10.3-20.7-.6-3.4-2.3-8.6-4-11.4-3.7-6.6-3.7-7.7-.1-6.9 1.5.3 7 1.5 12.2 2.6zm-205.5 0c.4 1.4 1.5 2 3.4 2 2.4 0 3 .6 3.9 3.9 1.5 4.8 1.5 5.1-.1 5.1-1.7 0-7.3 5.8-6.4 6.6.3.4.2 1.6-.4 2.6-.9 1.6-.8 1.9.3 1.6.7-.2 2.2-2.1 3.3-4.1 2.7-5 4.3-5.3 7.7-1.5 4.9 5.7 5.2 6.7 1.9 6.6-1.5-.1-3.3.2-4 .6-.6.4-1.1.1-1.1-.7 0-1.1-.8-1.3-3-.8-3.4.7-4 2.1-1.6 3.6 1 .6 2.6.6 4.6-.2 1.6-.6 3-.7 3-.2 0 .5 1.2.9 2.7.9h2.6l-2 2.2c-1.1 1.3-2.8 3.7-3.8 5.5-2.4 4.2-6.2 5.7-11.9 4.9-8.4-1.3-11.3-7.6-8.2-17.9 1.7-5.8.4-5.2-2 .8-3.2 8.5-.3 17.5 5.7 17.5 1.5 0 3.1.5 3.5 1.2 1.2 1.9-6.7.1-9.6-2.2-1.4-1.1-3.5-2.5-4.7-3-2.9-1.2-3.2-4.4-.3-3.5 1.7.5 2 .2 2-2.6 0-3.1 0-3.2-2-1.4-3.3 3-3.3 1 0-2.5 3.4-3.6 6.5-8.9 5.7-9.7-.3-.2-1.5 0-2.6.7-2.6 1.3-4.1.6-4.1-2 0-2.2 3.7-3.6 6.9-2.5 1.8.5 2.1.2 2.1-2.4 0-1.7.5-3.1 1.1-3.1.7 0 .9 1.2.5 3.5-.4 2-.3 3.5.2 3.5s1.2-2.7 1.4-5.9c.5-7.7 3.8-12 5.3-7.1zm135.6.2c2.2 4.1 2.7 8.3 1.2 9.7-1.1 1-2 .6-4.8-2.2-4-4-4.2-5-1.5-7.7 2.6-2.6 3.7-2.5 5.1.2zm-346.4-.6c-.3.3-1.2.4-1.9.1-.8-.3-.5-.6.6-.6 1.1-.1 1.7.2 1.3.5zm332.8.4c.3.5-.1 1-.9 1-.9 0-1.6-.5-1.6-1 0-.6.4-1 .9-1 .6 0 1.3.4 1.6 1zm136.9.4c-.3.8-1.5 1.4-2.7 1.3-1.2 0-3 .3-3.9.7-1.3.6-1.8.4-1.8-.7 0-1.5 2-2.3 6.7-2.6 1.5-.1 2.1.3 1.7 1.3zm-140.7 1.8c-.2.7-1 1.2-1.6 1-.7-.1-3.4.7-6.1 1.9-5.1 2.2-8 2-8-.5 0-2.3 2-2.9 3.9-1.2 1.6 1.4 2 1.4 5.2-.4 3.9-2.2 7.3-2.6 6.6-.8zm-29 2.3c.8 1.9.8 2.5-.1 2.5-1.8 0-3.5-2.1-2.9-3.6.8-2 1.7-1.7 3 1.1zm200.3 3.1c-1.8 2-2.5 1.7-2.8-1.1-.2-3.1 3.1-5.4 3.6-2.4.2 1.1-.2 2.7-.8 3.5zM263.5 210c.3.6 0 1.3-.8 1.6-.8.3-2.9 3.2-4.7 6.5-1.7 3.2-3.3 5.9-3.6 5.9-.3 0-.2-1.7.1-3.8l.6-3.7-2.6 4.8c-2.3 4.2-2.8 4.7-5.3 4.1l-2.7-.6 2.5 2.1c2 1.6 2.3 2.3 1.4 3.8-2 3.2-6.1 2.8-9.9-1-3-3-3.5-4.2-3.5-8.2 0-2.6-.4-4.4-.9-4-.5.3-.7 2.2-.5 4.3.4 2.8.3 3.3-.5 2.2-1.2-1.7-1.4-6.3-.5-9.8.6-2.2.7-2.2 2.6-.6 1 1 3.4 1.8 5.3 1.8 4.3.1 4 1.5-.8 4.1-4 2.2-4.3 3.8-.8 4.3 1.7.3 2.1 0 1.5-.9-.5-.9-.2-1.1.9-.6 1.1.4 2.2-.5 3.6-2.9 1.1-1.9 3.2-3.9 4.6-4.4 3.6-1.4 6.6-2.9 9.5-4.5 3-1.7 3.7-1.8 4.5-.5zm158.5 4c.4 8 .3 8.3-3.5 7.8-1.9-.2-3.5 0-3.5.4s.6.8 1.3.9c.6.1.1.5-1.3.9-1.6.5-1.9.8-.8.9 2.4.1 3.3 2.1.9 2.1-1.1 0-2.7-.7-3.5-1.6-.9-.8-1.6-1.1-1.6-.5 0 .5.5 1.3 1 1.6.6.3 1 1.1 1 1.7 0 .6-1.1.1-2.5-1.2-1.5-1.4-2.5-3.5-2.5-5.1 0-3.4-1.3-4.4-3-2.4-1.7 2-2.8 1.9-2.6-.3.2-2.7 1.6-3.1 6-1.5 7 2.4 13.6-.1 12.1-4.6-.7-2.4.3-4.7 1.5-3.4.5.4.9 2.4 1 4.3zm216-4c0-.6.5-1 1-1 .6 0 .6.7-.1 1.9-.8 1.2-1.9 1.6-3.2 1.3-1.3-.3-1.8-.1-1.3.6.3.6-.6 1.3-2.5 1.7-3.5.8-4.4.3-3.5-2 .8-2.2 4.7-3.4 7.4-2.4 1.3.5 2.2.5 2.2-.1zm-251.6 1.6c1.1 2.9.6 7.2-.8 7.7-1 .4-1.3.1-1-.7.4-1-.8-1.5-4.3-1.8-2.6-.2-5.5-.6-6.3-.9-.9-.2-1.6.4-1.8 1.8-.2 1.3-.8 2.3-1.3 2.3-1.6 0-1-3.3 1.4-6.7 2-3.1 2.6-3.3 7.8-3.3 4.3 0 5.8.4 6.3 1.6zm98.1 2.6c2.7 2.4 6.7 6 8.8 8 2.1 2.1 4.2 3.7 4.5 3.6 1.1-.3 6.6 2.9 8.4 4.8 2.7 3.1 2.4 5.6-1.3 12.1-2.6 4.7-3.8 6-4.7 5.1-.8-.8-.9-.5-.5 1.1.9 3.5-3.3 2.7-5.6-1-1.6-2.6-2-2.8-2.3-1.3-.2 1.1-.4-.6-.4-3.7 0-6.2-2.3-10.9-5.3-10.9-1 0-2.5-.8-3.2-1.7-1.2-1.5-1.2-1.6.5-1 1.3.5.9-.4-1.4-3-3.6-4-2.8-5.3 1.8-2.9 3.6 1.9 4.1 2.5 9.6 12.1 5.2 9.1 6.2 8 1.5-1.5-3.3-6.5-7.9-11.6-16.7-18.5-5.4-4.2-5.7-5.5-1.4-5.5 1.8 0 4.5 1.5 7.7 4.2zm-263-1c-1.4 4.6-4.2 8.4-7.6 10.2-4.7 2.5-6.9 1.6-6.9-2.7 0-5.1 5.6-9.5 12.3-9.6 2.5-.1 2.8.2 2.2 2.1zm384.7 3.8c-1.7 6.3-3.6 8.4-2.5 2.7.6-3.1 3-8.7 3.7-8.7.2 0-.3 2.7-1.2 6zm20.8-4.7c0 1.8-2.1 3.7-4.1 3.7-2.6 0-3.2-1.6-1.3-3.4 1.9-1.9 5.4-2.1 5.4-.3zm-403.9 4.3c-2.5 3.2-2.8 1.4-.4-2.3.9-1.4 1.9-2.1 2.1-1.4.2.6-.6 2.3-1.7 3.7zm176.8 0c-1.2 2.8-1.3 2.8-1.7.6-.2-1.3.2-3 .9-3.9 1.8-2.1 2.2-.2.8 3.3zm-129.2-1.7c1.7 1.1 3.4 2.9 3.8 4.1 1 3.1-.3 7-2.3 7.1-1 0-1.2.3-.4.6 1.3.5.7 2.3-.9 2.3-1.5 0-1-3.7.6-4.4 2.5-.9 1.7-2.6-1.3-2.4-1.5.1-3.3-.1-4-.6-1.6-.9-1.6.6 0 2.2 2.5 2.5-.7 1.1-3.4-1.5-2.2-2.1-2.8-2.3-2.8-1 0 .8.5 1.9 1 2.2.6.3 1 1.1 1 1.7 0 .7-.6.6-1.5-.2-2.6-2.1-1.8-6.5 1.6-9.4 3.7-3.1 4.5-3.2 8.6-.7zm30-.8c.6.6.9 1.8.6 2.5-.3.8 0 2.1.7 2.9 2.5 3-1.5 4.8-4.4 1.9-1.5-1.4-1.6-1.4-1.6 0 0 2-1.4 2-3 .1-2.3-2.7 1.5-7.9 6.1-8.4.3-.1 1 .4 1.6 1zm124.6 1.5c-.4 1-.9 1.2-1.5.6-1.2-1.2-.1-3.5 1.2-2.7.5.3.6 1.3.3 2.1zm25.3.1c2 2.6 1.7 6.7-.7 9.7-1.8 2.3-6.8 3.9-5.5 1.7.3-.5-.2-1.5-1.1-2.2-1.5-1.2-1.6-1.2-1 .4.5 1.3.3 1.7-.5 1.5-1.8-.6-2.1-5.8-.5-8.8 1-1.9 1.9-2.4 4-2.2 1.5.2 2.7-.1 2.7-.7 0-1.6 1.1-1.3 2.6.6zm6.4-.2c0 .8-.4 1.5-.9 1.5s-1.1-.7-1.5-1.5c-.3-.9 0-1.5.9-1.5.8 0 1.5.7 1.5 1.5zm-126.1.9c2.6 1.4 5.1 5.3 5.1 8 0 2.6-4.1 6.6-6.7 6.6-4 0-8.7-6.9-6.8-9.9.3-.6.1-1.1-.4-1.1-.6 0-1.1.9-1.1 2s-.4 2-1 2c-1.6 0-1.1-5.2.7-7.2 1.9-2.2 6.4-2.3 10.2-.4zm7.4-.7c-.7.2-1.9.2-2.5 0-.7-.3-.2-.5 1.2-.5s1.9.2 1.3.5zm298.2 1.2c-.3.6-1.1.8-1.7.5-.6-.4-.5-.9.3-1.5 1.6-1 2.3-.4 1.4 1zm34.5-1.1c0 1.8-2.6 3.2-5.9 3.2h-3.5l2.7 2.8c5.3 5.5 2.2 9.3-3.7 4.5-3.8-3-4.6-6.2-2.1-8.3 2.6-2.2 12.5-3.9 12.5-2.2zm-491 .6c0 .3-.4.8-1 1.1-.5.3-1 .1-1-.4 0-.6.5-1.1 1-1.1.6 0 1 .2 1 .4zm216.7 1.6c.3 1.1.9 2 1.4 2 2 0 .7 3.1-1.6 4.2-2.5 1.1-3.4 2.8-1.5 2.8.6 0 1 .4 1 1 0 1.6-3.6 1.2-5.9-.8-2.5-2-3.1-7.3-1.1-9.7 1.9-2.3 7.1-2 7.7.5zm36.8.1c-.4.5-1.3.9-2.1.9-2.2 0-1.7 2.8.6 3.5 1.2.4 2.8.1 3.6-.6 2.1-1.7 2.7-.5 2 3.6-.7 3.5-.8 3.6-4.9 3.3l-4.2-.3.1-4.8c0-3.4.5-5.1 2-6.1 2-1.5 3.9-1.2 2.9.5zm107.9 3.1c.9 1.2 1.6 3 1.6 4 0 2.9-2.7 1-6-4.3l-3-5 2.9 1.6c1.7.8 3.7 2.5 4.5 3.7zM290 219c1.1 1.1 2 3.1 2 4.4 0 1.7.9 2.7 3 3.6l3.1 1.3-3.5 2.3c-1.9 1.3-4.3 2.4-5.3 2.4-1.2 0-.7-.7 1.6-2.1 1.8-1.1 3.2-2.1 3-2.3-.2-.2-2.1-.6-4.1-.9-3.1-.5-3.6-.3-3.1 1 .5 1.2.3 1.4-.7.8-.7-.4-2.2-.8-3.4-.9-4.8-.2-2-11.6 2.9-11.6 1.4 0 3.4.9 4.5 2zm25.6 2.5c2.1 5.1 1.8 7.4-1 8.1-4.9 1.2-10.6-2.2-10.6-6.2 0-2.8 3.5-5.4 7.3-5.4 2.3 0 3.1.7 4.3 3.5zm59.8 1.7c-.9 1.4-2.4-.2-2.4-2.5.1-2.1.1-2.1 1.5-.3.8 1 1.2 2.3.9 2.8zm300-2.1c1.4 1.1 2.6 2.5 2.6 3 0 1.4-3.8 1.1-7.3-.7-4.3-2.2-4.4-2.4-2.7-3.4 2.3-1.5 4.5-1.2 7.4 1.1zm-170.4-.7c0 .3-.4.8-1 1.1-.5.3-1 .1-1-.4 0-.6.5-1.1 1-1.1.6 0 1 .2 1 .4zm74.2 2.4c1.4 1.1 2.1 1.2 3.2.3 1.1-.9 1.6-.5 2.6 2 1.1 2.6 1.1 3.2-.1 3.9-1.1.7-1 1.2.3 2.7 3.1 3.4 3.2 6.7.4 10-1.4 1.7-2.6 4-2.6 5.2 0 1.7-.6 2.1-3.2 2-3 0-3.1-.1-1-.9 3-1.3 2.8-2.5-.7-4-4-1.6-7.1-4.7-7.1-7 0-1.7.3-1.8 2.8-.9 1.5.5 4.4 2.4 6.6 4.1 3.7 2.9 3.8 3 3 .7-.5-1.3-.9-4.3-.9-6.6 0-3.6-.6-4.8-4.3-8.6-5.3-5.4-4.5-7.6 1-2.9zM381 222c0 .5-1 1-2.2 1-1.9 0-2-.2-.8-1 1.9-1.3 3-1.3 3 0zm185 2.5c.7.9 1 1.8.7 2.1-1 1.1-3.7-.5-3.7-2.1 0-1.9 1.4-1.9 3 0zM379 226c-.7.4-2.1.5-3.2.2-1.3-.3-1.6-.7-.8-1.2.7-.4 2.1-.5 3.2-.2 1.3.3 1.6.7.8 1.2zm197.5.7c4.5 2.8 5 3.8 3.9 8-.6 2.2-.7 2.2-3.5.6-1.6-1-2.9-2.1-2.9-2.5 0-.4-.9-1.7-2.1-2.9-1.3-1.3-1.8-2.7-1.4-4 .8-2.4.5-2.4 6 .8zm-361-.7c-.3.5-1.6 1-2.8 1-1.8 0-1.9-.2-.7-1 2-1.3 4.3-1.3 3.5 0zm88 1.1c.5.5.1.9-1.2.9-2.9 0-5.3-1-5.3-2.2 0-1.2 5-.2 6.5 1.3zm369.7-.4c2.3 2 2.3 4.9.1 5.7-2.1.8-4.3-1.8-4.3-5.1 0-2.7 1.6-3 4.2-.6zm-442.8-.1c.9.3 1.6 1.2 1.6 2s-.6 1.1-1.5.8c-4.4-1.7-12.9 6.1-10.7 9.7.9 1.4.9 2 0 2.5-.8.5-.5 1 .8 1.4 1.7.6 1.5.9-1.4 2.4l-3.2 1.7v-2.8c0-1.9-.3-2.4-1.1-1.6-1.4 1.4-1.5 7.1-.1 8.5.9.9 1.2.7 1.2-1 0-1.9.3-2.1 2-1.2 1.2.6 1.7 1.6 1.3 2.6-.4 1 .2 1.7 1.6 2.1 2.5.6 2.7 1.8.6 2.7-2.5.9-6.4-1.2-8.5-4.6-4.5-7.3 1.3-20 11-24.2 4.1-1.8 4.3-1.8 6.4-1zm427.7 3.1c.1 2.4.3 3 .6 1.5.5-2.6 2.3-2 2.3.9 0 2.5-2.6 2.5-4 0-1.3-2.5-1.3-6.1 0-6.1.6 0 1.1 1.7 1.1 3.7zm-395.6-1.5c4.2 1.9 2.3 9.8-2.3 9.8-1.2 0-1.2-.3.4-1.5 1.8-1.4 1.7-1.5-1.1-.9-1.6.3-4.2.9-5.6 1.4-4.1 1.3-5.4-.1-3.5-3.8 2.9-5.6 7-7.3 12.1-5zm74.2 2.5c-1.4 1.5-3 2.3-3.4 1.9-.4-.4.5-1.9 2.1-3.2 3.7-3.2 4.8-2.1 1.3 1.3zm123.1-2c-.2 1-1.3 1.9-2.5 2.1-1.1.2-2.3 1.2-2.6 2.3-.4 1.4-1.4 1.9-3.6 1.9-2.6 0-3.1-.4-3.1-2.4 0-3.1 2.4-5 5.4-4.2 1.4.3 2.8.2 3.1-.4 1.1-1.7 3.7-1.1 3.3.7zm219-.5c.7.7 1.2 1.8 1.2 2.5 0 2.2-2.6 1.4-3.8-1.2-.9-2-.9-2.5.1-2.5.7 0 1.8.5 2.5 1.2zm-303.4.4c2.3.9 2 2.4-.4 2.4-1.1 0-2-.7-2-1.5 0-1.7.2-1.8 2.4-.9zm27.6 2.5c0 1 .9 2.5 2.1 3.3 4 2.7-.7 5-5.3 2.5-1.5-.8-1.8-1.7-1.4-3.5.4-1.5.2-2.4-.5-2.4-.9 0-.8-.4 0-1.4 1.6-1.9 5.1-.8 5.1 1.5zm22-2.7c0 .9-6.5 4.4-7.2 4-1.4-.9-.8-2.6.7-2 .8.3 2.1-.1 2.7-.9 1.2-1.3 3.8-2.1 3.8-1.1zm4.1 1.2c1.2 1.4 1.1 1.6-.5 1.3-1.1-.2-2.1-1-2.4-1.7-.5-1.7 1.3-1.5 2.9.4zm12.3 1c.7 1.9-.2 3.7-1.5 2.9-1.2-.8-1.2-4.5 0-4.5.5 0 1.2.7 1.5 1.6zm127.8 4.4c.4 3 .5 6.3.2 7.2-.5 1.6-.6 1.6-2.3 0-1-.9-1.4-2.1-1-2.6.5-.5-.1-2.2-1.2-3.7-1.6-2.3-1.8-3.3-.9-4.9 2.1-3.9 4.4-2 5.2 4zM274 232c0 1.3-.5 1.8-1.5 1.4-.9-.4-1.5 0-1.5.9 0 1.6-4.5 5.7-6.3 5.7-.6 0 .2-1.4 1.8-3 1.6-1.7 2.3-3 1.7-3-.7 0-1.2-.6-1.2-1.4 0-.9 1.3-1.6 3.3-1.9 1.7-.2 3.3-.5 3.5-.5.1-.1.2.7.2 1.8zm139.6 1.6c-.3.8.6 1.4 2.7 1.6 2.7.2 3.2.7 3.2 2.8 0 1.8-.6 2.6-2.2 2.8-2.7.4-3 1.9-.5 2.5 1.6.4 1.5.5-.2 1.2-4.1 1.8-8.2-7.1-6-12.9.5-1.3.9-1.4 2.1-.5.7.7 1.2 1.8.9 2.5zM667 231c0 1.3-1.1 1.3-3 0-1.2-.8-1.1-1 .8-1 1.2 0 2.2.4 2.2 1zm-427 3.7c0 .7.9 1.3 1.9 1.3 1.9 0 10.1 8.5 10.1 10.5 0 .5-1.8 2.6-4 4.6-3.2 3-4 3.3-4 1.8 0-1 .9-3.6 2.1-5.8 1.1-2.2 1.8-4.5 1.4-5.1-1.1-1.7-4.4-1.1-5.5 1-1.2 2.2-1 16.9.3 17.7.7.4 1.1 7.3.4 7.3-1.3 0-12.7-6.2-12.7-6.9 0-.5-1-1.1-2.2-1.4-1.7-.5-1.9-.9-.9-2.1.9-1.1.9-1.5-.1-1.9-.8-.3-.6-.6.6-.6 2.6-.1.4-2.7-3-3.5-1.8-.5-2.3-1-1.6-1.9.5-.7 1.5-2.9 2.2-5 .6-2 1.5-3.5 2-3.2.5.3 1 0 1.2-.7.7-1.9 3.8-.1 3.8 2.2 0 1.7-.3 1.9-1.9 1.1-1.8-1-1.8-.9-.5 3.6 1.7 5.7 2.8 7 2.2 2.5-.5-3.8-.2-3.9 3.6-.6 2.2 1.9 2.6 2.8 1.6 3.4-.7.4-.9 1.3-.5 1.9.5.9 1 .9 2.1 0 2-1.7 1.8-2.9-1.3-6.2-1.6-1.7-2.2-2.6-1.4-2.2 1.7.9 1-.3-2.6-5.1-2.3-3.1-2.3-3.3-.7-6.7 1.5-3.2 1.8-3.4 4.5-2.3 1.6.5 2.9 1.6 2.9 2.3zm59.5-.4c.4-.5.5 0 .2.9-.8 2.3-.2 2.3 3.2-.3 2.2-1.6 3.6-1.9 6-1.4 3.8.8 5.7 3.6 6.4 9.3.4 3.6.2 4.5-2 6.2-3.5 2.7-13.8 2.9-14 .2-.6-8-2.2-11.8-3.8-9.2-1.2 1.9-2.2 1-2.9-2.2-.8-4.2 1.8-6.7 4.4-4.3.9.8 2 1.2 2.5.8zM430 233c.8.5 1.5 1.9 1.5 3.2 0 1.3.6 2.3 1.4 2.3.8 0 1.6.6 1.9 1.2.6 2.1-4.3 1.5-7.2-.8-4.7-3.7-2.6-9.1 2.4-5.9zm-146.6 1.5c.4 1 1.4 1.3 3.6.9 2.3-.5 3-.3 3 .9 0 .8-.6 1.7-1.2 2-.7.2-1.3 1.9-1.3 3.8 0 2.8-.3 3.4-2 3.1-4.5-.6-8.9-.9-7.2-.5.9.2 1.7.9 1.7 1.4 0 1.1-.3 1.1-3.2 0-3.7-1.4-3.4-5.4.7-9.6 3.9-3.9 5-4.2 5.9-2zm48.4.1c1.4 1 2.2 2.6 2.2 4.4 0 1.8-.8 3.4-2.2 4.4-1.2.9-1.8 1.6-1.2 1.6.6 0 1.9-.7 3-1.5 2.6-2 4-1.9 6.4.5 3.4 3.4 2.2 13-1.7 13-1.3 0-1.3-.3-.3-1.5.7-.8.8-1.5.2-1.5-.5 0-1.5.7-2.2 1.5-.7.8-1.6 1.5-2.1 1.5-1.7 0-.9-2.1 1.6-4.4 1.7-1.6 2.5-3.4 2.5-5.7 0-3.1-.1-3.2-1.5-1.3-1.3 1.6-1.4 1.6-.9.1.8-2.3-.1-2.2-4 .8-1.8 1.4-3.8 2.5-4.4 2.5-.6 0 0 1.1 1.3 2.5 2.7 2.6 3.1 4.6 1.5 7.6-2.5 4.6-14.8-.3-15-6 0-1.9 3-4 5.9-4.1 2.3 0 2.2-.1-.8-2.9-1.7-1.6-3.1-3.7-3.1-4.8.1-1.7.1-1.7 1.2.2 1.7 3.3 4 4.5 7.7 4.4 2.8-.1 3-.3 1.1-.6-3.5-.6-8-5.2-8-8 0-4 8.4-5.8 12.8-2.7zm334.8-.1c1.9 1.4 1.9 1.4-.2 1.5-1.2 0-2.7-.7-3.4-1.5-1.7-2 .9-2.1 3.6 0zm7.7 1.9c.6 1.6-4 1.9-5 .3-.4-.6 0-.8 1-.4 1 .3 1.7.2 1.7-.3 0-1.5 1.7-1.2 2.3.4zM273 238.9c0 1.9-5.6 4.6-6.5 3.1-.3-.5.7-1.6 2.2-2.4 3.3-1.8 4.3-1.9 4.3-.7zm-10.5 2.1c-.3.5-1 1-1.6 1-.5 0-.9-.5-.9-1 0-.6.7-1 1.6-1 .8 0 1.2.4.9 1zm162 1.7c-1.1.7-2.2 1.3-2.7 1.3-1.4 0-.8-1.9.9-2.9 2.5-1.3 4-.1 1.8 1.6zm13.5.3c0 .5-.4 1-1 1-.5 0-1-.5-1-1 0-.6.5-1 1-1 .6 0 1 .4 1 1zm135 1c0 .5-.2 1-.4 1-.3 0-.8-.5-1.1-1-.3-.6-.1-1 .4-1 .6 0 1.1.4 1.1 1zm-143.5 1c.3.5.1 1-.4 1-.6 0-1.1-.5-1.1-1 0-.6.2-1 .4-1 .3 0 .8.4 1.1 1zm184.5.2c0 1-6 2.8-9.2 2.8-2.4 0-2.7-.3-1.9-1.8.7-1.3 2.2-1.7 6-1.7 2.8 0 5.1.3 5.1.7zm-322.5 1.5c-2 1.5-1.9 1.5.5 1l2.5-.6-2.3 1.9c-2 1.6-2 1.9-.5 2.2 1.4.3 1 .8-1.6 2.2-2.5 1.3-4.5 1.6-7.4 1.2-2.4-.4-4.5-.2-5.3.5-2.4 2-1.5-.4 1.3-3.3l2.7-2.8-3-.1c-2.8-.1-2.8-.1.6-.9 1.9-.5 3.6-.5 3.8 0 .2.5 2.2 0 4.5-1 5.2-2.3 6.8-2.4 4.2-.3zm144.9 5.5c-.4.5-1.4-.3-2.4-1.9-1.2-2-1.4-3.2-.7-4.1.8-1 1.3-.6 2.4 1.8.7 1.8 1 3.6.7 4.2zm6.6-6.1c0 .6 1.5 1 3.3.9 4.6-.3 5.5 0 3.1 1-1.6.6-2 1.5-1.7 3.3 1 5.2-3 8-14.7 10.3-1.9.3-4.3 1.3-5.2 2.1-1.6 1.4-1.8 1.4-2.4-.3-.3-1.1-1-2.7-1.5-3.7-1.1-2 .2-5.2 2.6-6.1 1.1-.4 1.4-1.3.9-2.9-.5-2.1-.2-2.4 1.8-2.3 1.4.1 2.4.8 2.6 2 .3 1.1 0 1.6-.7 1.2-.7-.4-1.1.1-1.1 1.3 0 1.3-.7 2.1-1.7 2.1-1.4.1-1.2.4.7 1.5 3.2 1.8 4 1.8 4 0s1.1-1.9 4.5-.3c3.3 1.5 4 .6 2.1-3-1.5-2.9-1.5-3 .7-2.4 1.2.3 3.2 1.2 4.5 2 2 1.3 2.2 1.3 2.2-.2 0-.9-.4-1.6-.8-1.6-1.2 0-5.2-3.9-5.2-5 0-.6.5-1 1-1 .6 0 1 .5 1 1.1zm-220.5.9c-.3.5-1.3 1-2.1 1s-1.2-.5-.9-1c.3-.6 1.3-1 2.1-1s1.2.4.9 1zm31.6 5.7c-2.3 2.8-2.7 4.3-1.1 4.3.6 0 1-.7 1-1.6 0-1 .6-1.3 1.8-1 1.4.5 1.8 0 1.7-2.1 0-2.6.4-2.8 4-3.1 3.8-.2 3.9-.1 2 1.3-1.9 1.5-1.9 1.7-.2 2.6 2.3 1.4 2.2 3.3-.3 2.6-1.1-.3-2.3-.1-2.6.4-.3.5-1 .6-1.6.3-.7-.5-.9 0-.5 1.5.9 3.5-2.6 6.1-6.9 5.1-4.2-1-6.4-2.7-6.4-4.9.1-2.4 3.5-6.4 5.1-5.9.9.3 1.9-.7 2.7-2.6 1.2-2.7 1.4-2.9 2.3-1.3.8 1.3.5 2.4-1 4.4zm163.4-4.7c.3.5.2 1-.4 1-.5 0-1.3-.5-1.6-1-.3-.6-.2-1 .4-1 .5 0 1.3.4 1.6 1zm-20.5.4c0 .2-.9.6-2 .9-1.1.3-2 .1-2-.4s.9-.9 2-.9 2 .2 2 .4zm111 6.8c0 1.2-1.7.9-2.7-.5-.6-.6-1.3-2.3-1.6-3.7-.6-2.4-.5-2.4 1.8.5 1.4 1.6 2.5 3.3 2.5 3.7zm-92.3-2c-.3.8-.6.5-.6-.6-.1-1.1.2-1.7.5-1.3.3.3.4 1.2.1 1.9zm4.3-1.2c0 .5-.4 1-1 1-.5 0-1-.5-1-1 0-.6.5-1 1-1 .6 0 1 .4 1 1zm6 0c0 .5-.2 1-.4 1-.3 0-.8-.5-1.1-1-.3-.6-.1-1 .4-1 .6 0 1.1.4 1.1 1zm172.6 5c-1.5 2.2-3.1 4-3.6 4-1.9 0-1 1.8 1.3 2.4l2.2.5-2.5 2.5c-1.4 1.4-3.9 2.8-5.6 3.2-2.7.5-3.3.3-3.9-1.5-.7-2.4.9-5.1 3.1-5.1.7 0 2.1-1.5 3-3.3 1.8-3.6 7.7-9.1 8.2-7.6.2.6-.8 2.8-2.2 4.9zm-3.1-4.1c-.3.5-2 1.2-3.8 1.6-1.7.4-4.1.9-5.2 1.2-1.5.4-1.7.2-.9-.6.6-.6 3-1.5 5.5-2 2.4-.5 4.5-.9 4.7-1 .2-.1.1.3-.3.8zm-290 1.1c-.3.5.1 1 .9 1s1.8-.5 2.1-1c.3-.6 1.3-1 2.2-1 1.3 0 1.3.3.3 1.5-.7.8-1.8 1.5-2.4 1.5-1.5 0-4.6 3.6-3.9 4.4.4.3.1.6-.5.6s-.9.7-.6 1.5c.8 1.9-2.5 2-5 .2-2.2-1.6-.9-5.7 2.6-8.1 2.5-1.8 5.3-2.2 4.3-.6zm116 1c.3.5-.1 1-.9 1s-1.8-.5-2.1-1c-.3-.6.1-1 .9-1s1.8.4 2.1 1zM316 259.3c0 .5-.7.4-1.5-.3s-1.5-2-1.5-2.9c.1-1.3.3-1.3 1.5.3.8 1.1 1.5 2.4 1.5 2.9zm97.2-2.8c.1.5.8 1.5 1.7 2.2 2.4 1.7.8 2.6-2.3 1.2-2.8-1.3-3.7-5.3-1-4.7.8.2 1.5.7 1.6 1.3zm177.8.3c0 .4-.7 1.8-1.6 3-1.8 2.7-5.7 3-5.2.5.4-2.4 6.8-5.6 6.8-3.5zM271 258c0 .5-.9 1-2 1s-2-.5-2-1c0-.6.9-1 2-1s2 .4 2 1zm37 4c0 .5-.5 1-1.1 1-.5 0-.7-.5-.4-1 .3-.6.8-1 1.1-1 .2 0 .4.4.4 1zm276.1 1.1c2.6 1.4 1.5 2.9-2.2 2.9-3.1 0-3.2-.1-2.3-2.4.7-1.9 1.8-2 4.5-.5zm-146.6.9c-.3.5-1.9 1-3.5 1s-3.2-.5-3.5-1c-.4-.6 1-1 3.5-1s3.9.4 3.5 1zm-116.4 3.3c-.5.5-1.8.7-2.8.3-1.4-.6-1.5-.9-.4-1.6 1.9-1.1 4.6-.1 3.2 1.3zm260.2 6.4c.4 1.8.3 3.3-.2 3.3-1.3 0-2.1-2.6-2.1-6.3.1-3.8 1.4-2 2.3 3zm7.5.9l3.2 6.5-2.7-.3c-1.7-.2-2.8-.9-2.8-1.8 0-.8-.8-1.8-1.8-2.2-2.3-1-3.1-3.2-2.3-6.3 1-4.1 3-2.9 6.4 4.1zm-270.9-5l3.2.7-2.1 1.9c-2.4 2.3-4.5 1.8-5.3-1.1-.6-2.3-.4-2.4 4.2-1.5zm82.1-.2c0 .2-.9.6-2 .9-1.1.3-2 .1-2-.4s.9-.9 2-.9 2 .2 2 .4zm196.7 4.6c.2 2.6-.1 3-2.3 3-2.9 0-4.2-2.4-2.4-4.5 2.1-2.6 4.5-1.8 4.7 1.5zm5.8 0c-.3.5-1 1-1.6 1-.5 0-.9-.5-.9-1 0-.6.7-1 1.6-1 .8 0 1.2.4.9 1z"/><path d="M280.7 153.7c-1 .9-.9 5.1.1 5.7.4.2.8-1.1.8-3 0-3.7 0-3.7-.9-2.7zM284 156.7c0 1.2.5 2.5 1 2.8 1.3.8 1.3-1.5 0-3.5-.8-1.2-1-1.1-1 .7zM274.6 168.5c.4.8 1 1.5 1.5 1.5.4 0 .6-.7.3-1.5-.4-.8-1-1.5-1.5-1.5-.4 0-.6.7-.3 1.5zM493.1 183.6c0 1.1.3 1.4.6.6.3-.7.2-1.6-.1-1.9-.3-.4-.6.2-.5 1.3zM543 194c3.8 1.2 12.9 1.2 11 0-.8-.5-4.2-.9-7.5-.9-4.5.1-5.4.3-3.5.9zM239 170.8c0 .5.7 1.3 1.6 1.6 1 .4 1.4.1 1.2-.6-.5-1.5-2.8-2.3-2.8-1zM411.5 184.9c-.7 1.2.7 4.2 2.9 6.1 2 1.6 2 1.2-.3-3.3-1.1-2.1-2.2-3.3-2.6-2.8zM433 184.8c0 2 6.5 8.2 8.7 8.2 1.4 0 1.2-.4-1.1-1.9-1.6-1.1-3.9-3.2-5.2-4.8-1.3-1.5-2.3-2.2-2.4-1.5zM394.2 188c0 1.9.2 2.7.5 1.7.2-.9.2-2.5 0-3.5-.3-.9-.5-.1-.5 1.8zM498 192.5c-.8.9-.8 1.5-.2 1.5 1.2 0 2.6-1.9 1.9-2.6-.2-.2-1 .2-1.7 1.1zM427.9 209.4c.8.9 2.5 1.6 3.9 1.6 3.2 0 1.8-1.5-2.2-2.4-2.6-.6-2.8-.5-1.7.8zM411.4 208.4c1.1.9 2.4 1.6 3 1.6 1.2 0 .7-.5-2.4-1.9-2.4-1.1-2.4-1.1-.6.3zM304 207c0 .6.7 1.3 1.5 1.7 2.4.9 2.7-.1.5-1.5-1.3-.8-2-.8-2-.2zM368 210.1c0 .5.5.7 1 .4.6-.3 1-.8 1-1.1 0-.2-.4-.4-1-.4-.5 0-1 .5-1 1.1zM351 231c0 .5.4 1 .9 1 .6 0 1.3-.5 1.6-1 .3-.6-.1-1-.9-1-.9 0-1.6.4-1.6 1zM489 222.5c1.3 1.4 2.6 2.3 2.8 2 .7-.7-2.9-4.5-4.1-4.5-.6 0 0 1.1 1.3 2.5zM499.6 231c.5 2.4.5 2.4-1 .6-1.2-1.4-1.6-1.6-1.6-.5 0 2.3 1.3 3.5 3.8 3.5 2.7 0 2.8-.7.3-3.7l-2-2.4.5 2.5zM325 223.5c0 1.7 2.2 4.5 3.5 4.5.8 0 1.5-.3 1.5-.8-.1-.9-5-4.6-5-3.7zM307 223.5c0 1.6 3.4 5.5 4.8 5.5 2.2 0 2-1.6-.5-4.2-3-3.1-4.3-3.5-4.3-1.3zM258.5 233.6l-3 1.4 3-.6c1.7-.3 3.4-1 4-1.5 1.4-1.3-.5-1.1-4 .7zM236 238c0 .5.9 1 2 1s2-.5 2-1c0-.6-.9-1-2-1s-2 .4-2 1zM303.5 237c-1 1.1-1.6 2.2-1.3 2.5.3.3 1.3-.4 2.3-1.5 1-1.1 1.6-2.2 1.3-2.5-.3-.3-1.3.4-2.3 1.5zM305 241.1c0 2 2.1 4.9 3.5 4.9 1.9 0 1.9-1.6 0-2.4-.8-.3-1.5-1.2-1.5-2.1 0-.8-.4-1.5-1-1.5-.5 0-1 .5-1 1.1zM300.2 244.2c.7 2.2 7.3 5.2 9.4 4.3 1.6-.7 1.2-.9-2-1.5-2.2-.4-4.5-1.5-5.1-2.4-1.4-1.9-2.8-2.1-2.3-.4zM322 240.1c0 1.3 3 3.9 4.5 3.9 2.7 0 2.2-1.5-1.1-3.1-1.9-.9-3.4-1.3-3.4-.8zM322 255.9c0 .5-1 .7-2.2.4-2.2-.4-2.3-.4-.4 1.1 2.3 1.9 5.2 2.1 6.2.5.3-.6 0-1.5-.7-2-1.8-1.1-2.9-1.1-2.9 0zM580.2 106.9c-1.8 1.1-1.1 5.6.8 5.6.8 0 1.7-1.1 2-2.5.6-2.4 1-2.2 7.8 4.8 4 4.1 7.2 7.1 7.2 6.7 0-1.2-4.2-6.9-8.4-11.3-3.9-4.1-6.7-5.1-9.4-3.3zM877.5 108c.3.5.8 1 1.1 1 .2 0 .4-.5.4-1 0-.6-.5-1-1.1-1-.5 0-.7.4-.4 1zM614 114.4c0 2.9 1.5 4.2 2.4 2.1 1.3-3.6 11.6.2 11.6 4.2 0 1.3.3 1.3 1.5.3 1.3-1.1 1.7-.8 2.6 1.8.6 1.7 1.7 3.3 2.5 3.6.8.3 1.4 1.2 1.4 2.1 0 .8.4 1.5.9 1.5 2.5 0 1.7-2.3-2.4-7.2-4.9-5.6-13.1-10.7-17.7-10.8-2.3 0-2.8.4-2.8 2.4zM390 115.7c0 1.8 4.1 4.1 10.5 6.1 2.3.6 3.1 1.5 3.3 3.8.5 4.2 2.2 5.5 2.2 1.7 0-5.2-1-6.4-7.9-9.6-3.6-1.7-6.9-3.3-7.3-3.5-.5-.2-.8.5-.8 1.5zM600.8 115.7c-3.6.9-1.6 2.3 3.2 2.3 3.8 0 5.4.5 6.7 2 1 1.1 2.3 2 3 2 .9 0 1.3 1.6 1.3 5.1 0 6.6-2.2 9.5-6.7 9.1-4.8-.5-4 1.2 1.1 2.4l4.5 1 1.2-4.5c.7-2.5 1.2-5.6 1.1-6.9-.2-2.2-.1-2.2 2-.8 2.7 1.9 3.8 2 3.8.3-.1-.6-2-2.6-4.3-4.2-12.5-9-12.4-9-16.9-7.8zM581.3 120.7c1.4 6.9 2.5 8.3 6.3 8.3h3.7l-2.7-2.1c-2.8-2.2-3.5-4.5-1.1-3.5 2.8 1 1.5-1.4-1.7-3.4-4.4-2.7-5.2-2.5-4.5.7zM747.7 121.9c-2.6 4.5-10.7 13.1-14.6 15.5-7.4 4.6-22.5 6-34.3 3.2-3.2-.8-6-1.1-6.2-.8-.2.4-.6 2.8-1 5.3l-.7 4.7 16.3.1c22 .2 30.5-.6 31.1-2.9.2-1 2.3-2.4 4.8-3.2l4.3-1.4 1.2-8c.6-4.4 1.4-9.6 1.8-11.7.8-4.4-.3-4.8-2.7-.8zM383.6 125.8c-.3.5 1.1 1.2 3.1 1.5 2 .4 4.6 1.6 5.9 2.8 2.1 2 2.4 3.1 2.4 10.4 0 4.9-.5 8.8-1.2 9.8-.7.9-3.9 2.8-7 4.2-5.5 2.4-6.9 3.7-4.9 4.9.5.3 1.1 0 1.4-.8.3-.7 1.7-1.6 3.2-2 7.2-1.8 10.7-6.9 10.4-14.9-.1-2.9.2-6.3.5-7.7.7-2.7-1.3-9.5-2.1-7.2-.3.9-.9 1-1.7.3-1.8-1.5-9.2-2.5-10-1.3z"/><path d="M608 125.9c0 .6.4 1.3 1 1.6.6.3.7-.1.4-.9-.7-1.8-1.4-2.1-1.4-.7zM628 127.5c0 1.4-.7 2.8-1.5 3.2-1.4.5-1.4.8.1 2.4 2.7 3 3.4 2.3 3.4-3.1 0-2.8-.4-5-1-5-.5 0-1 1.1-1 2.5zM601.9 127.9c.7 1.2 1.9 2.5 2.7 2.8 2.6 1 2.2-.1-.9-2.6-2.9-2.4-3-2.4-1.8-.2zM585.1 133.4c.7 2.5.6 4.2-.1 5.6-1.1 2-.6 4 1 4 .4 0 .6-.9.3-2-.8-3 1.6-2.5 7.3 1.5l4.9 3.5.3-3.7c.2-2.1 1-4.2 1.8-4.6 1.7-1 1.8-3.3.2-4.4-.7-.4-4-1-7.3-1.4-3.3-.3-6.8-.9-7.7-1.3-1.5-.7-1.6-.4-.7 2.8zm13.9.6c0 .5-.7 1-1.5 1s-1.2.6-.9 1.3c.4 1-.3 1.2-2.6.9-3.2-.5-5.2-2.2-2.6-2.2.9 0 1.6-.5 1.6-1 0-.6 1.4-1 3-1 1.7 0 3 .4 3 1zM369.8 133.5c.5 3 2.6 2.8 3-.3.3-1.6-.2-2.2-1.6-2.2-1.5 0-1.8.5-1.4 2.5zM362 135.6c0 3.3 2 8.2 3.7 8.8.9.4 1.7.5 1.8.4.2-.2-1-2.8-2.6-5.8-1.8-3.6-2.8-4.8-2.9-3.4zM398 136.2c0 .9.5 2 1 2.3 1.3.8 1.3-.5 0-2.5-.8-1.3-1-1.3-1 .2zM462.5 143.5c6.7 6.5 10.8 14.9 12.9 26.2 1.2 7 1.4 7.3 1.5 3.3.2-8.2-4.9-23.2-9.7-28.7-2-2.2-8.1-6.3-9.5-6.3-.4 0 1.7 2.5 4.8 5.5zM888.5 140.8c-2.1.2-3.5 1.2-4.7 3.2-.9 1.7-2.9 3.5-4.3 4.2-1.4.6-2.5 1.5-2.5 2 0 .4 8.8.8 19.5.8 12.3 0 19.5-.4 19.5-1s-.7-1-1.5-1c-2.4 0-7.8-2.9-10-5.5-2-2.3-9.1-3.5-16-2.7zM316.1 142.4c1.3 1.3 11.2 6.6 11.6 6.3.9-1-7.3-6.7-9.6-6.7-1.3 0-2.2.2-2 .4zM399.7 144c.6 2.2 2.3 3.8 2.3 2.1 0-1.7-1.2-4.1-2-4.1-.5 0-.6.9-.3 2zM582 144.4c0 .8.5 1.8 1 2.1 1.7 1 .2 2.2-3.5 2.9-3.4.7-10.5 4.2-10.5 5.3 0 .8 6.4-.9 9.2-2.5 2.4-1.4 3.1-1.4 7.5 0 2.7.9 6.6 2.8 8.8 4.2 2.1 1.4 4.6 2.6 5.5 2.6 1 0 2.3.7 3 1.5 1.3 1.5 6 2.1 6 .7 0-.4-4.2-2.6-9.2-5-5-2.3-8.8-4.5-8.5-4.9.4-.4 2.5.4 4.7 1.6 2.9 1.6 4 1.9 4 .9 0-1.8-7.7-9.4-8.6-8.5-.4.4.4 1.5 1.7 2.6 2.8 2.3 1.3 2.9-1.7.6-1-.8-2.7-1.5-3.6-1.5-1 0-2.3-.9-3-2-1.5-2.3-2.8-2.6-2.8-.6zM617.9 147.4c1.7 2.8 3.1 5.8 3.1 6.7 0 1.7-.3 1.6-4.5-.2-7.1-3.2-7.8-1.6-.7 1.8l6.2 3v-2.9c0-3.8-2.2-8.8-5-11.3-1.8-1.6-1.7-1.1.9 2.9zM383.9 147c-1.3 1-2.1 1.9-1.7 2 1.4 0 5.8-2.3 5.8-3.2 0-1.4-1.6-.9-4.1 1.2zM552 147.1c0 .5.5.7 1 .4.6-.3 1-.8 1-1.1 0-.2-.4-.4-1-.4-.5 0-1 .5-1 1.1z"/><path d="M610.5 149c.3.5 1.1 1 1.6 1 .6 0 .7-.5.4-1-.3-.6-1.1-1-1.6-1-.6 0-.7.4-.4 1zM316 150.9c0 .5 1.6 1.3 3.5 1.6 1.9.3 5.1.8 7.1 1.1 2.3.3 3.4.2 3-.5-.4-.6-2.3-1.3-4.4-1.6-2-.4-4.9-.9-6.4-1.1-1.6-.3-2.8-.1-2.8.5zM403.6 152.8c.6 3 .5 3.2-2.2 3.2-4.3 0-14.6 3.2-13.6 4.2.5.5 3 .1 6.1-1.2 2.8-1.1 7.4-2 10.1-2 2.8 0 5-.4 5-.8 0-.5-1.4-2.1-3-3.7l-3-2.9.6 3.2zM233.5 153.5c-1.6 1.4-2.4 2.5-1.6 2.5.7 0 1.1.6.8 1.4-.5 1.2-.1 1.3 2.4.4 1.6-.6 4.1-.8 5.4-.5 3 .5 3.1.4.3-3.3-2.6-3.6-3.4-3.6-7.3-.5zM605.1 153.7c2.2 2.9 4.3 4.2 6.3 4.3 1.5 0 1-.8-2-3-4.4-3.3-6.3-3.9-4.3-1.3zM320.4 156.5c1.1.8 3.6 1.5 5.5 1.4 2.9 0 3.2-.2 1.6-.8-1.1-.5-3.6-1.1-5.5-1.5-3.3-.7-3.4-.6-1.6.9zM566.5 157c.4.6 1.1.8 1.6.5 1.4-.9 1.1-1.5-.7-1.5-.8 0-1.2.5-.9 1zM581.4 159.6c1.7 6.6 8.8 10.3 16.1 8.3 2.9-.8 4.8-.8 7.7.2 4.5 1.4 6.4.5 2.2-1.1-6-2.3-11.8-2.9-14-1.5-1.9 1.2-2.3 1.1-4.2-1.5-1.2-1.5-3.6-3.8-5.3-5.1l-3.2-2.3.7 3zM174.7 161.1c-2.2 1.3-2.2 5.5-.1 6.3 1.4.5 1.6.1 1-2.5-.5-2.5-.3-3 .9-2.5.8.3 1.5.1 1.5-.4 0-1.5-1.4-1.9-3.3-.9zM407.1 160.3c2.7 2.1 9.9 5.5 9.9 4.7 0-1.4-6-5-8.4-5-1.1 0-1.7.1-1.5.3zM563.5 161c.3.5.8 1 1.1 1 .2 0 .4-.5.4-1 0-.6-.5-1-1.1-1-.5 0-.7.4-.4 1z"/><path d="M590 162c0 .5.5 1 1.1 1 .5 0 .7-.5.4-1-.3-.6-.8-1-1.1-1-.2 0-.4.4-.4 1zM614 163.5c.7.9 1.5 1.3 1.7 1.1.7-.7-.7-2.6-1.9-2.6-.6 0-.6.6.2 1.5zM365.5 168.1c-3.5 3.1-11.4 17.4-10.2 18.5.3.4 1.8-1.9 3.3-5 4-8.4 5.7-7.5 2.9 1.7-.9 2.9-1.1 5.6-.6 7l.8 2.2.8-2.5c.5-1.4 1.1-6.3 1.4-10.9.4-5.4 1-8.6 1.9-8.9.7-.2 1 .2.6 1.2-1.1 2.8.3 1.7 2.5-2 1.2-1.9 2.1-3.7 2.1-4 0-1.2-2.3-.1-5.5 2.7zM580.2 166.6c1 1 2 1.5 2.4 1.2.3-.4-.5-1.2-1.8-1.8-2.2-1.2-2.2-1.2-.6.6zM700.2 166.2c-1.8 1.8-1.5 2.9.6 1.9.9-.5 3.3-1.4 5.2-1.9l3.5-1-4-.1c-2.3-.1-4.6.4-5.3 1.1zM359 167c0 .5.7 1 1.5 1s1.5-.5 1.5-1c0-.6-.7-1-1.5-1s-1.5.4-1.5 1zM351 169.8c0 .6-1.6 2-3.6 3.1-4.5 2.7-3.8 3.9.9 1.6 3.7-1.7 5.3-4 3.7-5-.6-.4-1-.2-1 .3zM586.8 169.7c.7.3 1.6.2 1.9-.1.4-.3-.2-.6-1.3-.5-1.1 0-1.4.3-.6.6zM692.7 170.7c-.4.3-.7 1.6-.7 2.7.1 2 .1 2 1.1.3.6-1 2-2.2 3.2-2.7 2.1-.8 2.1-.9-.4-.9-1.4-.1-2.9.2-3.2.6zM578 173c.8.5 2.2 1 3 1 1.3 0 1.3-.1 0-1-.8-.5-2.2-1-3-1-1.3 0-1.3.1 0 1zM623 173.4c-.6.9-1 2.1-.8 2.8.3.8.9.4 1.7-1 1.5-2.8.9-3.9-.9-1.8zM354.2 174c-1.2.5-3.9 2.1-6 3.6-3 2.1-3.2 2.4-1.2 1.9 2.7-.8 11-5.3 11-6 0-.7-1.1-.5-3.8.5z"/><path d="M366.8 177.2c-.5 5.8-.2 13.6.4 13 .9-1 1.5-15.2.6-15.2-.5 0-.9 1-1 2.2zM191.8 177.5c-.3.3-5.6 1-11.7 1.5-6.2.6-12.5 1.7-14.1 2.5-3.8 1.9-12.4 1.9-32.2-.1l-15.7-1.6-3.4 2.6c-1.8 1.4-4.8 2.9-6.6 3.2-1.7.4-3.4 1-3.6 1.4-1 1.7 4.8 5 8.4 4.9l3.6-.1-4.2-1.5c-5.1-1.7-5.4-2.9-1.3-3.8 1.7-.4 3.6-1.5 4.3-2.6 1.5-2.4 6-2.5 22.2-.3 16.2 2.1 20.5 3.5 9.7 3-4.7-.2-8 0-7.6.5.3.5 6.8.9 14.5.9 8.6 0 13.9.4 13.9 1 0 .5-.8 1-1.7 1-1.3 0-1.4.3-.5 1.2.9.9 1.6.7 3.2-.7 2.2-2 2.9-6.5.8-4.7-1.4 1.1-6.8.5-6.8-.8 0-.4 3.9-1.2 8.8-1.9 9.1-1.2 29.4-5.1 30.1-5.7.2-.2-1.8-.4-4.6-.4-2.7 0-5.2.2-5.5.5zM609 178.5c-.7.9-1.1 1.8-.8 2 .3.3 1.1-.1 1.8-1s1.1-1.8.8-2c-.3-.3-1.1.1-1.8 1zM617.3 177.7c-1.8.7-1.6 2.3.2 2.3.8 0 1.5-.7 1.5-1.5s-.1-1.5-.2-1.4c-.2 0-.9.3-1.5.6zM201 182c-1.1.7-.3 1 3 1s4.1-.3 3-1c-.8-.5-2.2-1-3-1-.8 0-2.2.5-3 1zM193 183c0 1.3 1.1 1.3 3 0 1.2-.8 1.1-1-.7-1-1.3 0-2.3.4-2.3 1zM346.8 182.7c-1.9.3-2.8 1-2.8 2.3 0 1-.3 2.5-.6 3.4-.5 1.2 0 1.6 1.8 1.6 2.6 0 6.8-2.5 6.8-4.1 0-.6-1-.3-2.2.5-2.6 1.8-3.8 2-3.8.6 0-.6 1.5-1.9 3.3-3 3.2-2 2.9-2.1-2.5-1.3zM609.6 187c-2 2.2-3.6 4.5-3.6 5.2 0 .7.3.8.8.2.4-.5 2.2-2.6 4.1-4.6 1.9-2.1 3.2-4 2.9-4.3-.3-.3-2.2 1.3-4.2 3.5zM596.8 186.6c-3.1 1.6-3.7 3.4-1.1 3.4 1.3 0 1.1.6-1.2 3-4.4 4.6-2.2 4.7 2.8.1 2.4-2.3 4.9-4.1 5.6-4.1 1.8 0 1.3 3.2-1.1 5.7-1.4 1.5-1.7 2.3-.8 2.3 2 0 3.9-3.2 4-6.7 0-3.1-.1-3.2-2.6-2.3-3.5 1.4-3.7 1.3-3.1-1 .3-1.1.4-2 .4-2-.1.1-1.4.8-2.9 1.6zM216.8 186.7c.7.3 1.6.2 1.9-.1.4-.3-.2-.6-1.3-.5-1.1 0-1.4.3-.6.6zM352.2 189.7c-1.8 3.2-1.5 5.1.4 2.5.8-1.2 1.4-2.8 1.1-3.5-.2-.7-.8-.3-1.5 1zM355.6 191.2c-.3 1.3-.5 3.4-.5 4.8.1 2.4.1 2.4 1.4-.5 1.6-3.5 1.9-6.5.6-6.5-.5 0-1.1 1-1.5 2.2zM203.5 192c.3.5 1.3 1 2.1 1s1.4-.5 1.4-1c0-.6-.9-1-2.1-1-1.1 0-1.7.4-1.4 1zM600.5 200c-.3.5-.1 1 .4 1 .6 0 1.1-.5 1.1-1 0-.6-.2-1-.4-1-.3 0-.8.4-1.1 1zM719.2 225.2c.2.9-.6 2.4-1.7 3.2-1.1.9-1.5 1.6-.9 1.6 2.1 0 4.4-3.4 3.3-5-.8-1.3-.9-1.2-.7.2zM535 230.1c0 .5.5.9 1 .9.6 0 1 .8 1 1.9 0 1 .7 2.4 1.6 3.2 1.3 1.1 1.2 1.4-1.3 2.5-1.5.7-2.1 1.3-1.3 1.3 1.3.1 1.3.2 0 1.1-1.2.8-1.1 1 .7 1 1.2 0 2.5.4 2.8 1 .4.6-.7 1-2.6 1-5.4 0-2.3 1.3 3.6 1.5 6.1.2 7.6-1.6 3-3.7-2.6-1.2-3.4-2.8-1.3-2.8.7 0 .6-.6-.4-1.8-3-3.5-3-4.6 0-1.8 4 3.7 4.1 2.5.3-2.3-2.7-3.4-7.1-5.3-7.1-3zM173.6 231.6c-.9.8-1.6 2.2-1.6 2.9 0 1.9 2.8 4.5 4.8 4.5 1.4 0 1.2-.4-.6-1.8-2.4-1.9-2.2-5.2.4-5.2.8 0 1.4-.5 1.4-1 0-1.5-2.7-1.2-4.4.6zM723.4 234.4c-1 .8-1.6 1.7-1.3 2 .3.3 1.4-.3 2.4-1.4 2.1-2.3 1.7-2.6-1.1-.6zM373.4 235.3c-.5 1.3.3 2.8 2.5 5.1 1.7 1.7 3.1 3.7 3.1 4.4 0 .7.5 1.2 1.1 1.2.8 0 .9-1.1.4-3.3-.4-1.7-.7-3.8-.8-4.5 0-.7-.7-1.1-1.6-.9-.9.1-2.1-.6-2.8-1.8-1.1-1.9-1.2-1.9-1.9-.2zM523.6 235.6c-.7 1.9 1.9 4.3 4.6 4.4 1.1 0 1.5-.5 1.2-1.5-.5-1.1-.2-1.4 1.2-.9 1.3.5 1 0-.8-1.4-3.1-2.6-5.4-2.8-6.2-.6zM547.5 238.9c-1.1 1.9 2.4 4.9 6.4 5.7l3.5.7-2.3-3.1c-2.4-3.4-3.7-4.2-2.7-1.7.3.9 0 1.5-1 1.5-.8 0-1.8-1-2.3-2.2-.5-1.5-1-1.8-1.6-.9zM716.3 238.7c.9.2 2.3.2 3 0 .6-.3-.1-.5-1.8-.5-1.6 0-2.2.2-1.2.5zM180 240.4c0 .8-1.2 2.4-2.6 3.5-2 1.6-2.3 2.1-1 2.1 4.3 0 7.6-4.7 4.6-6.5-.5-.3-1 .1-1 .9zM384.5 241c-.8 1.4 1.3 2.2 3.1 1.2 1.4-.8 1.4-1-.5-1.5-1.1-.3-2.3-.1-2.6.3zM633 244.5c-1.3 1.5-.9 1.5 6-.8.8-.3.1-.6-1.6-.6-1.7-.1-3.7.6-4.4 1.4zM523 246.5c-1.7 1-2 1.4-.9 1.5.9 0 2.2-.7 2.9-1.5 1.5-1.8 1.2-1.8-2 0zM550.9 246.9c1.3 1.2 3.4 2.1 4.7 2.1 4.4 0 2.3-1.5-4.6-3.4l-2.5-.7 2.4 2zM625.7 248.8c-3.4 3.5-4.7 7.9-4.7 15.8 0 7.6 1.5 9.9 5.8 9.1 2.7-.6 3.2-.3 3.2 1.3 0 1 .5 2.2 1.1 2.5.6.4.7 1.9.4 3.6-.5 2.1-.3 2.9.8 2.9.7 0 3.9 2.2 7.1 5 6.9 6 12.4 8 15.9 5.7 3.3-2.1 9.5-18.1 7.8-20.1-2.1-2.5-.9-8 1.9-9.1 5.6-2.3 14.4-7.2 14.8-8.4.2-.7-1.1-.3-3 .9-1.8 1.1-4.1 2-5 2-1 0-1.8.7-1.8 1.5 0 1.8-.5 1.8-3 .5-1.5-.8-2.1-.6-2.9.7-1 1.7-1.2 1.7-4.1.1-1.6-.9-3-1.6-3-1.5 0 .1.7 2.4 1.5 5.1 2 6.5 2 13.6.1 13.6-3.3 0-6.6-6.6-6.6-13.1 0-2.6-4.3-11.3-6-12.4-.5-.3-1.4.3-1.9 1.4-1.4 2.5-1.4 4.1-.1 4.1.6 0 1-1 1-2.2 0-1.5.3-1.9 1-1.2.8.8.7 1.9-.1 3.8-.9 1.9-1.5 2.3-2.1 1.4-.5-.8-.8-.1-.8 1.9 0 3.7 1.5 4.4 2.5 1.3.3-1.1 1.1-2 1.7-2 .5 0-.9 3.4-3.1 7.6-2.3 4.2-4 7.8-3.8 8 .7.7 6.7-5.9 6.7-7.5 0-.9.7-2.6 1.5-3.7 1.3-1.7 1.4-1.2 1.5 5.7 0 5 .5 8.2 1.5 9.5 1.4 1.9 1.4 1.8 1.5-.4 0-2.9 1.1-2.8 4 .3 1.8 2 2.1 2.8 1.2 3.7-.7.7-1.2 2.2-1.2 3.4 0 3.6-6.5 4.8-9.6 1.7-.9-1-2.4-1.8-3.3-2-.9-.1-2.3-1.1-3.2-2.1-.8-1.1-2.4-2.1-3.5-2.3-1.4-.3-2.1-1.7-2.8-5.7-.6-3.4-1.5-5.2-2.4-5.2-1 0-1.3-.7-.8-2.5.3-1.4.8-3.7 1.1-5.3.5-2.4.5-2.5-.7-.8-6.1 9-8.8 8.8-8.1-.6.3-3.5.5-7.4.5-8.8 0-1.4 1.1-3.7 2.5-5.2 1.4-1.4 2.4-3.1 2.1-3.8-.2-.6-1.6.2-3.1 1.8zM531.1 248.7c-1.9 1-3.7 2.4-3.9 3.1-.3 1.1 0 1.2 1.8.2 3.2-1.7 3.7-.4 1.2 3-2.4 3.2-2.7 4-1.3 4 1.6 0 6.3-7.8 5.9-9.9-.3-2.1-.4-2.1-3.7-.4zM174.2 249.1c.2.7 1 1.5 1.7 1.7.8.3 1.2-.1.9-.9-.2-.7-1-1.5-1.7-1.7-.8-.3-1.2.1-.9.9z"/><path d="M636.2 249c1.6 1 1.3 1.7-3.2 7.4-2.8 3.5-5 6.7-5 7 0 .4 1.3 0 2.9-.9 1.8-.9 3.2-2.6 3.6-4.4.4-2.1 1.7-3.3 4.5-4.6 4.6-2.1 6-4.5 2.7-4.5-1.2 0-3.3-.3-4.7-.6-2.1-.5-2.2-.4-.8.6zM540.1 252c-1.2 3.5-.6 3.7 2.9 1 2.1-1.7 2.3-2.1 1-3-2.3-1.5-2.7-1.3-3.9 2zM547 250.9c0 1.1.5 2.3 1 2.6.6.3 1-.3 1-1.4 0-1.1-.4-2.3-1-2.6-.5-.3-1 .3-1 1.4zM518 251c-1.1.7-.7 1 1.7 1 1.7 0 3.5-.5 3.8-1 .8-1.3-3.5-1.3-5.5 0zM660 251.9c0 .6 1.4 1.7 3 2.6 1.7.9 3 1.1 3 .6 0-.6-1.3-1.7-3-2.6-1.6-.9-3-1.1-3-.6zM915 252c-1.1.7-.8.9 1.5.8 1.7-.1 3.9.3 5 .7 1.8.8 1.9.7.6-.8-1.5-1.9-4.8-2.2-7.1-.7zM554.7 255.2c.2 1.8.7 4.4 1 5.8l.6 2.5.8-3c1.1-3.6.2-8.5-1.5-8.5-.8 0-1.1 1.1-.9 3.2zM654 254c0 .5.5 1 1 1 .6 0 1-.5 1-1 0-.6-.4-1-1-1-.5 0-1 .4-1 1zM518.5 256c-1.9.8-1.9.9.3.9 1.2.1 2.2-.4 2.2-.9 0-.6-.1-1-.2-.9-.2 0-1.2.4-2.3.9zM541 256.9c-1.5 2.8-1.3 3.1 2 3.1 2.8 0 2.9-.1 1.8-2.5-1.3-3-2.4-3.2-3.8-.6zM522.7 258.7c-.9 1.7-2.7 3.5-3.9 3.8-2.8.9-9.1 5.5-8.5 6.2.3.2 2.5-1 4.9-2.7 4.3-3.1 4.3-3.1 4.8-.9.3 1.2 1.2 2.5 2 2.7 1.3.5 1.3.3.2-1.1-1.2-1.4-1.1-2.2.8-5.2 1.2-1.9 2-4.1 1.7-4.8-.2-.6-1.1.2-2 2zM660.5 257c.3.5 1.1 1 1.6 1 .6 0 .7-.5.4-1-.3-.6-1.1-1-1.6-1-.6 0-.7.4-.4 1zM406 263c-1.2.8-1.2 1 .5 1 1.1 0 2.7-.5 3.5-1 1.2-.8 1.2-1-.5-1-1.1 0-2.7.5-3.5 1zM400.5 266c-.4.6.8 1 2.9 1 1.9 0 3.8-.5 4.1-1 .4-.6-.8-1-2.9-1-1.9 0-3.8.4-4.1 1zM550.8 269.6c-4.9 4.6-8 5.4-12 3.3-1.6-.9-1.9-.8-1.6.3.3.7 1.7 1.7 3.2 2.3 2.3.8 3.6.5 7.4-1.6 4.3-2.4 9.1-7.3 8.1-8.3-.2-.3-2.5 1.5-5.1 4z"/><path d="M516 269.5c-.7.9-1 1.8-.7 2.1.3.3 1-.4 1.7-1.5 1.3-2.5.8-2.7-1-.6z"/></svg>